<svg xmlns="http://www.w3.org/2000/svg" width="67" height="67" fill="#41465a"><path d="M16.7.5h.1zM67 21.4C67 13 62 5 53.7 1.6 51 .5 48.2 0 45.4 0c-4.3 0-8.5 1.3-12 3.6C30 1.3 25.9 0 21.5 0c-1.5 0-3.1.2-4.7.5C8.8 2.2 2.4 8.4.5 16.3v.2c-.3 1.4-.5 2.9-.5 4.3 0 3.1.7 6.1 1.8 8.8l10.8 26.9c1.6 4.1 4.8 7.5 9.2 9.1 1.6.6 3.2.9 4.9 1h37.4l-6.7-17.7 8-19.3c1-2.7 1.6-5.5 1.6-8.2zm-59.9-.6c0-.9.1-1.9.3-2.8v-.2C8.6 12.7 13 8.4 18.2 7.4c1.1-.2 2.2-.3 3.2-.3 2.4 0 4.6.6 6.6 1.6-1 1.4-1.9 2.8-2.6 4.5L14 41.2 8.3 27c-.7-2.1-1.2-4.2-1.2-6.2zm51.6 6.1l-9.1 21.9 4.1 10.8H27c-.9 0-1.8-.2-2.7-.6-3.6-1.3-5.7-4.7-5.7-8.2 0-1 .2-2.1.6-3.2l12.9-31.7c2.3-5.5 7.7-8.8 13.4-8.8 1.8 0 3.7.3 5.5 1.1 5.6 2.3 8.9 7.6 8.9 13.2-.1 1.8-.4 3.7-1.2 5.5z"/></svg>
