<svg width="71" height="71" viewBox="0 0 71 71" fill="none" xmlns="http://www.w3.org/2000/svg">
<g clip-path="url(#clip0_4115_4839)">
<path d="M35 0H61.3C63.6233 0 65.8514 0.922926 67.4943 2.56574C69.1371 4.20856 70.06 6.4367 70.06 8.76V35C70.06 44.2826 66.3725 53.185 59.8087 59.7487C53.245 66.3125 44.3426 70 35.06 70C30.4587 70.0079 25.901 69.1084 21.6477 67.353C17.3943 65.5976 13.5289 63.0208 10.2725 59.77C7.01606 56.5191 4.43261 52.6581 2.66994 48.4078C0.907279 44.1575 -6.76109e-06 39.6013 0 35C0 25.7174 3.68749 16.815 10.2513 10.2513C16.815 3.68749 25.7174 0 35 0Z" fill="#20A849"/>
<path d="M45.77 22.23H28.26C27.1088 22.23 25.9689 22.4569 24.9054 22.8978C23.8419 23.3386 22.8758 23.9848 22.0622 24.7993C21.2486 25.6138 20.6036 26.5806 20.1639 27.6446C19.7243 28.7086 19.4987 29.8488 19.5 31V45.89C19.5 46.1456 19.5505 46.3987 19.6486 46.6347C19.7467 46.8707 19.8905 47.085 20.0717 47.2653C20.253 47.4456 20.468 47.5883 20.7045 47.6852C20.9411 47.7821 21.1944 47.8313 21.45 47.83H45.77C48.0933 47.83 50.3214 46.9071 51.9643 45.2642C53.6071 43.6214 54.53 41.3933 54.53 39.07V31C54.5313 29.8488 54.3057 28.7086 53.8661 27.6446C53.4264 26.5806 52.7814 25.6138 51.9678 24.7993C51.1542 23.9848 50.1881 23.3386 49.1246 22.8978C48.0612 22.4569 46.9212 22.23 45.77 22.23ZM39.45 41H26.8C26.5768 41 26.3557 40.956 26.1494 40.8706C25.9432 40.7851 25.7558 40.6599 25.5979 40.5021C25.4401 40.3442 25.3148 40.1568 25.2294 39.9505C25.144 39.7443 25.1 39.5232 25.1 39.3C25.1 39.0767 25.144 38.8557 25.2294 38.6494C25.3148 38.4432 25.4401 38.2558 25.5979 38.0979C25.7558 37.94 25.9432 37.8148 26.1494 37.7294C26.3557 37.644 26.5768 37.6 26.8 37.6H39.45C39.9009 37.6 40.3333 37.7791 40.6521 38.0979C40.9709 38.4167 41.15 38.8491 41.15 39.3C41.15 39.7508 40.9709 40.1833 40.6521 40.5021C40.3333 40.8209 39.9009 41 39.45 41ZM47.23 32.67H26.8C26.5651 32.688 26.3291 32.6573 26.1066 32.5797C25.8842 32.5022 25.6801 32.3796 25.5073 32.2195C25.3345 32.0594 25.1966 31.8653 25.1023 31.6495C25.008 31.4336 24.9593 31.2006 24.9593 30.965C24.9593 30.7294 25.008 30.4964 25.1023 30.2805C25.1966 30.0646 25.3345 29.8706 25.5073 29.7105C25.6801 29.5504 25.8842 29.4277 26.1066 29.3502C26.3291 29.2727 26.5651 29.242 26.8 29.26H47.23C47.6596 29.2929 48.061 29.4868 48.3538 29.8029C48.6467 30.1191 48.8093 30.5341 48.8093 30.965C48.8093 31.3959 48.6467 31.8109 48.3538 32.127C48.061 32.4431 47.6596 32.6371 47.23 32.67Z" fill="white"/>
</g>
<defs>
<clipPath id="clip0_4115_4839">
<rect width="70.06" height="70.06" fill="white"/>
</clipPath>
</defs>
</svg>
