<svg width="22" height="22" viewBox="0 0 22 22" fill="none" xmlns="http://www.w3.org/2000/svg">
<g clip-path="url(#clip0_7912_273)">
<path d="M12.7 7.53005C13.541 7.70605 14.36 8.03505 15.113 8.52105L12.618 11.486H12.617C11.9427 11.1778 11.1861 11.0988 10.4627 11.2611C9.73927 11.4235 9.08891 11.8182 8.61102 12.385C8.1341 12.9505 7.85676 13.6574 7.82188 14.3963C7.78699 15.1353 7.9965 15.8651 8.41802 16.473L5.92202 19.438C4.72859 18.1569 4.04563 16.4831 4.00215 14.7328C3.95867 12.9825 4.55768 11.2768 5.68602 9.93805L14.055 -0.00195312L16.98 2.44505L12.7 7.53005Z" fill="#13BBB2"/>
<path d="M16.724 19.1711C14.361 21.9771 10.304 22.5301 7.297 20.5891L9.793 17.6241C10.4673 17.9324 11.2239 18.0114 11.9473 17.849C12.6708 17.6867 13.3211 17.2919 13.799 16.7251C14.2756 16.1594 14.5527 15.4525 14.5874 14.7136C14.6221 13.9747 14.4125 13.245 13.991 12.6371L16.488 9.67212C17.6814 10.9531 18.3643 12.6267 18.4078 14.3769C18.4512 16.127 17.8523 17.8325 16.724 19.1711Z" fill="#192232"/>
</g>
<defs>
<clipPath id="clip0_7912_273">
<rect width="22" height="22" fill="white"/>
</clipPath>
</defs>
</svg>
