<svg width="192" height="192" viewBox="0 0 192 192" fill="none" xmlns="http://www.w3.org/2000/svg">
<g clip-path="url(#clip0)">
<path fill-rule="evenodd" clip-rule="evenodd" d="M119.376 128.347H8.94774C6.50289 128.347 4.15821 127.375 2.42944 125.647C0.70067 123.918 -0.270508 121.573 -0.270508 119.128C-0.270508 116.683 0.70067 114.34 2.42944 112.611C4.15821 110.882 6.50289 109.91 8.94774 109.91H119.376C121.82 109.91 124.165 110.882 125.894 112.611C127.623 114.34 128.594 116.683 128.594 119.128C128.594 121.573 127.623 123.918 125.894 125.647C124.165 127.375 121.82 128.347 119.376 128.347Z" fill="#5CB18C"/>
<path fill-rule="evenodd" clip-rule="evenodd" d="M95.7044 184.857C86.752 184.863 77.8499 183.519 69.2978 180.872C68.1408 180.516 67.0654 179.935 66.1328 179.163C65.2002 178.391 64.4288 177.443 63.8626 176.373C63.2964 175.303 62.9465 174.132 62.8328 172.927C62.7192 171.722 62.8441 170.506 63.2003 169.349C63.5565 168.192 64.1372 167.116 64.909 166.183C65.6809 165.251 66.6288 164.48 67.6988 163.914C68.7688 163.348 69.9399 162.997 71.1451 162.884C72.3504 162.77 73.5662 162.896 74.7232 163.252C81.5246 165.322 88.595 166.373 95.7044 166.372C110.856 166.446 125.625 161.62 137.808 152.612C149.991 143.604 158.935 130.899 163.305 116.392C163.662 115.235 164.242 114.16 165.014 113.227C165.786 112.294 166.734 111.523 167.804 110.957C168.874 110.39 170.045 110.04 171.25 109.926C172.456 109.813 173.672 109.938 174.828 110.294C175.99 110.645 177.07 111.222 178.008 111.992C178.946 112.761 179.723 113.71 180.294 114.78C180.865 115.851 181.218 117.023 181.335 118.231C181.452 119.439 181.329 120.657 180.974 121.817C175.443 140.105 164.156 156.119 148.793 167.477C133.43 178.836 114.81 184.931 95.7044 184.857Z" fill="#5CB18C"/>
<path fill-rule="evenodd" clip-rule="evenodd" d="M182.511 81.2953H72.083C69.6381 81.2953 67.2935 80.3245 65.5647 78.5958C63.8359 76.867 62.8647 74.5222 62.8647 72.0773C62.8647 69.6325 63.8359 67.2876 65.5647 65.5589C67.2935 63.8301 69.6381 62.8582 72.083 62.8582H182.511C184.956 62.8582 187.301 63.8301 189.029 65.5589C190.758 67.2876 191.729 69.6325 191.729 72.0773C191.729 74.5222 190.758 76.867 189.029 78.5958C187.301 80.3245 184.956 81.2953 182.511 81.2953Z" fill="#5CB18C"/>
<path fill-rule="evenodd" clip-rule="evenodd" d="M19.2698 81.2956C16.8249 81.2956 14.4802 80.3249 12.7515 78.5961C11.0227 76.8673 10.0515 74.5225 10.0515 72.0777C10.0577 71.1682 10.1868 70.2635 10.4355 69.3887C13.8823 58.1729 19.5067 47.7471 26.9869 38.7071C34.4671 29.6672 43.6562 22.1905 54.0287 16.7055C64.4012 11.2205 75.7535 7.83416 87.4359 6.74086C99.1183 5.64756 110.902 6.86834 122.112 10.3336C124.452 11.0635 126.408 12.6906 127.55 14.8593C128.693 17.028 128.93 19.5611 128.209 21.9041C127.854 23.0603 127.273 24.1358 126.5 25.0666C125.727 25.9973 124.778 26.7654 123.707 27.3277C122.636 27.89 121.464 28.2353 120.259 28.3428C119.054 28.4503 117.84 28.3175 116.686 27.9536C109.885 25.8835 102.815 24.8323 95.7051 24.8333C80.5538 24.759 65.7846 29.5858 53.6015 38.5934C41.4183 47.601 32.4743 60.306 28.1041 74.8135C27.5271 76.7057 26.3566 78.3627 24.7658 79.5385C23.1749 80.7144 21.248 81.3473 19.2698 81.3437" fill="#5CB18C"/>
<path fill-rule="evenodd" clip-rule="evenodd" d="M159.657 37.1242C159.657 38.9475 159.117 40.7295 158.104 42.2455C157.091 43.7614 155.651 44.9424 153.967 45.6401C152.282 46.3378 150.429 46.5209 148.64 46.1652C146.852 45.8095 145.21 44.9319 143.921 43.6427C142.631 42.3535 141.753 40.7105 141.398 38.9224C141.042 37.1342 141.225 35.2804 141.922 33.596C142.62 31.9116 143.802 30.4723 145.318 29.4594C146.833 28.4465 148.616 27.9051 150.439 27.9051C151.649 27.9051 152.848 28.144 153.967 28.6073C155.085 29.0705 156.101 29.7498 156.957 30.6058C157.813 31.4618 158.492 32.4776 158.956 33.596C159.419 34.7144 159.657 35.9137 159.657 37.1242ZM50.1896 154.273C50.1896 156.097 49.6489 157.879 48.636 159.395C47.6231 160.911 46.1834 162.093 44.499 162.79C42.8145 163.488 40.9611 163.67 39.1729 163.314C37.3847 162.959 35.7421 162.081 34.4529 160.792C33.1637 159.503 32.2858 157.86 31.9301 156.071C31.5744 154.283 31.7569 152.431 32.4546 150.746C33.1523 149.062 34.3339 147.621 35.8498 146.609C37.3658 145.596 39.1481 145.055 40.9713 145.055C42.1819 145.055 43.3805 145.294 44.499 145.758C45.6174 146.221 46.6336 146.899 47.4896 147.755C48.3456 148.611 49.0246 149.628 49.4879 150.746C49.9511 151.865 50.1896 153.063 50.1896 154.273Z" fill="#5CB18C"/>
</g>
<defs>
<clipPath id="clip0">
<rect width="192" height="192" fill="white"/>
</clipPath>
</defs>
</svg>
