<?xml version="1.0" encoding="utf-8"?>
<svg viewBox="0 0 500 500" xmlns="http://www.w3.org/2000/svg">
  <path d="M 233.523 0.019 C 225.571 -0.188 217.892 2.531 211.583 6.816 C 205.274 11.113 199.607 16.757 194.143 23.816 C 189.977 29.211 185.834 31.506 178.537 32.985 C 171.252 34.475 161.061 34.344 149.157 34.344 C 135.86 34.344 126.23 35.41 118.289 38.086 C 111.921 40.207 106.123 44.372 103.064 49.647 C 102.921 49.985 102.79 50.322 102.695 50.659 C 102.552 50.92 102.409 51.083 102.326 51.344 C 102.183 51.551 102.04 51.812 101.945 52.018 C 101.719 52.617 101.362 53.128 101.219 53.726 C 99.326 61.035 102.028 67.191 105.35 72.074 C 108.612 76.882 112.945 80.993 117.29 84.647 C 122.278 89.194 132.837 97.438 143.015 112.186 C 152.205 125.477 158.908 143.575 158.396 165.208 C 118.993 176.204 81.387 202.427 52.543 235.904 C 21.235 272.231 -0.097 316.541 0.011 359.622 C 0.142 412.764 18.463 450.624 59.795 472.116 C 101.15 493.618 162.172 499.992 250.335 499.992 C 338.51 499.992 399.507 493.618 440.732 472.116 C 481.98 450.624 500.122 412.764 499.99 359.622 C 499.787 277.365 429.076 202.079 347.757 169.287 C 353.483 168.602 359.388 168.09 365.614 168.264 C 385.66 168.732 407.064 174.257 425.564 192.051 C 428.361 195.325 432.968 196.902 437.432 196.053 C 441.849 195.205 445.42 192.094 446.527 188.059 C 447.634 184.068 446.134 179.782 442.634 177.096 C 421.016 156.235 394.862 148.339 371.506 146.849 C 391.029 139.377 413.48 137.126 440.349 150.59 C 444.122 153.016 449.051 153.222 453.086 151.189 C 457.086 149.1 459.395 145.109 459.062 140.9 C 458.729 136.701 455.753 133.09 451.455 131.557 C 434.706 123.139 418.79 119.745 403.814 119.658 C 370.101 119.495 341.769 135.886 323.151 147.534 C 320.353 107.89 344.84 76.283 347.899 72.76 L 348.268 72.411 L 348.637 71.737 C 352.768 65.788 359.208 57.337 361.97 47.265 C 363.351 42.251 364.137 35.628 359.327 29.591 C 354.53 23.555 346.423 21.434 338.471 21.434 C 323.591 21.434 310.174 26.067 299.425 27.895 C 288.699 29.722 283.259 29.417 277.854 24.49 L 277.854 24.828 C 277.759 24.751 277.569 24.915 277.473 24.828 C 261.962 10.134 249.379 0.443 233.523 0.019 Z M 232.82 21.771 C 237.154 21.902 246.558 26.318 260.772 39.783 L 261.141 39.783 L 261.141 40.131 C 273.628 51.518 290.604 51.214 303.949 48.962 C 314.032 47.265 323.615 44.971 331.471 43.861 C 331.602 44.677 331.793 44.72 330.721 46.243 C 329.65 47.777 327.198 50.365 323.305 53.378 C 315.508 59.414 302.496 67.104 288.771 78.535 C 283.152 83.255 276.462 86.431 271.295 87.029 C 266.141 87.627 263.165 86.692 259.748 82.951 L 259.379 82.951 C 253.32 76.066 247.868 70.845 241.487 67.321 C 234.975 63.71 227.297 61.883 220.274 62.895 C 206.381 64.896 197.572 74.032 186.846 83.288 L 186.477 83.288 L 186.466 82.951 C 180.359 88.226 173.049 89.966 161.931 85.67 C 152.526 82.059 140.932 73.01 129.872 58.142 C 133.956 57.119 139.908 56.097 149.205 56.097 C 161.109 56.097 172.645 56.358 183.799 54.063 C 194.953 51.768 205.822 46.243 213.512 36.389 L 213.893 36.389 C 218.523 30.396 222.559 26.318 225.773 24.153 C 228.963 21.989 230.69 21.728 232.82 21.771 Z M 224.047 84.647 C 225.535 84.441 226.476 84.147 229.261 85.67 C 232.047 87.203 236.011 90.597 241.19 96.546 L 241.19 96.883 L 241.559 96.883 C 250.094 106.193 262.844 109.761 274.331 108.445 C 285.807 107.129 296.485 102.115 305.175 94.849 C 306.425 93.783 307.639 93.153 308.877 92.13 C 300.937 109.804 294.664 133.428 299.747 160.444 C 244.75 184.873 200.632 171.962 183.692 164.86 C 184.097 142.683 177.038 123.65 168.312 108.782 C 181.144 109.935 193.739 106.791 202.882 98.928 C 213.464 89.792 221.071 85.071 224.047 84.647 Z M 312.068 179.141 C 394.434 201.144 475.991 280.769 476.182 359.622 C 476.301 408.685 463.111 435.756 429.172 453.431 C 395.21 471.105 337.105 478.239 250.287 478.239 C 163.469 478.239 105.328 471.105 71.294 453.431 C 37.26 435.756 23.938 408.685 23.819 359.622 C 23.736 323.295 42.508 282.422 71.174 249.152 C 99.458 216.359 137.159 191.29 172.205 183.557 C 192.168 191.757 247.273 208.539 312.068 179.141 Z M 231.834 228.084 L 231.881 249.837 C 214.025 252.001 183.193 264.998 183.277 299.803 C 183.432 362.896 283.416 330.474 283.535 378.308 C 283.571 394.622 275.19 408.566 243.061 408.566 C 209.717 408.566 200.217 384.562 200.181 371.51 L 178.599 371.51 C 182.289 413.917 214.443 423.988 232.299 427.251 L 232.347 445.61 L 253.929 445.61 L 253.882 427.251 C 270.524 426.153 308.546 415.102 308.451 375.937 C 308.379 343.308 279.618 334.552 251.048 328.005 C 228.43 322.567 207.133 318.412 207.073 297.758 C 207.061 289.046 210.585 269.545 242.726 269.545 C 265.321 269.545 275.999 282.553 279.606 297.758 L 301.188 297.758 C 295.189 276.005 284.439 256.297 253.464 250.859 L 253.416 228.084 Z" style="" transform="matrix(1, -0.000032, 0.000032, 1, -0.007994, 0.007995)"/>
</svg>