<svg width="180" height="180" viewBox="0 0 180 180" fill="none" xmlns="http://www.w3.org/2000/svg">
<rect width="180" height="180" fill="#0A1D41"/>
<path fill-rule="evenodd" clip-rule="evenodd" d="M97.011 40.6277C98.6677 40.6257 100.137 41.6908 100.651 43.2658L105.688 58.7051C106.202 60.28 105.643 62.0067 104.304 62.982L91.1765 72.5433C89.8374 73.5188 88.0225 73.5209 86.681 72.5486L73.5313 63.0186C72.1899 62.0464 71.6269 60.3209 72.137 58.7448L77.1373 43.2936C77.6473 41.7174 79.1144 40.6489 80.7711 40.6469L97.011 40.6277Z" fill="white"/>
<path fill-rule="evenodd" clip-rule="evenodd" d="M96.3388 138.769C97.9953 138.768 99.463 137.7 99.9736 136.124L104.98 120.675C105.491 119.099 104.929 117.374 103.588 116.401L90.4422 106.865C89.1014 105.892 87.2864 105.894 85.9467 106.868L72.8155 116.424C71.476 117.399 70.9164 119.125 71.4296 120.701L76.4598 136.142C76.973 137.717 78.442 138.783 80.0987 138.781L96.3388 138.769Z" fill="white"/>
<path fill-rule="evenodd" clip-rule="evenodd" d="M135.627 77.6552C137.202 78.1672 138.269 79.6354 138.269 81.2922V97.5322C138.269 99.189 137.202 100.657 135.627 101.169L120.182 106.188C118.606 106.7 116.88 106.139 115.906 104.798L106.361 91.6601C105.387 90.3198 105.387 88.5048 106.361 87.1645L115.906 74.0261C116.88 72.6858 118.606 72.1248 120.182 72.6368L135.627 77.6552Z" fill="white"/>
<path fill-rule="evenodd" clip-rule="evenodd" d="M42.751 102.697C41.1754 102.185 40.1086 100.717 40.1086 99.0598L40.1086 82.8198C40.1086 81.1632 41.1754 79.6948 42.751 79.183L58.1962 74.1644C59.7717 73.6524 61.4979 74.2134 62.4716 75.5537L72.0173 88.6921C72.991 90.0324 72.991 91.8474 72.0173 93.1877L62.4716 106.326C61.4979 107.666 59.7717 108.227 58.1962 107.715L42.751 102.697Z" fill="white"/>
</svg>
