<svg width="207" height="207" viewBox="0 0 207 207" fill="none" xmlns="http://www.w3.org/2000/svg">
<path d="M31.542 58.7051C30.3836 58.7051 29.4512 57.801 29.4512 56.6425V56.6143C29.4229 43.4478 18.7711 32.7677 5.5764 32.7395C4.41798 32.7395 3.4856 31.8071 3.4856 30.6487C3.4856 29.4903 4.41798 28.5579 5.5764 28.5579C18.7429 28.5296 29.4229 17.8495 29.4512 4.68309C29.4512 3.52467 30.3836 2.59229 31.5137 2.59229H31.542C32.7004 2.59229 33.6328 3.49642 33.6328 4.65484V4.68309C33.6611 17.8495 44.3129 28.5296 57.5076 28.5579C58.666 28.5579 59.5984 29.462 59.5984 30.6204V30.6487C59.5984 31.8071 58.666 32.7395 57.5358 32.7395H57.4793C44.3129 32.7395 33.6328 43.4196 33.6046 56.6143C33.6328 57.7445 32.7004 58.6768 31.542 58.7051Z" fill="#76CAE7"/>
<path d="M181.882 203.508C180.95 203.508 180.215 202.773 180.215 201.841C180.215 191.302 171.654 182.769 161.116 182.741C160.183 182.741 159.449 182.006 159.449 181.074C159.449 180.142 160.183 179.407 161.116 179.407C171.654 179.407 180.187 170.874 180.187 160.335C180.187 159.403 180.95 158.668 181.854 158.668C182.787 158.668 183.521 159.431 183.521 160.335C183.521 170.874 192.082 179.407 202.621 179.435C203.553 179.435 204.288 180.17 204.288 181.102C204.288 182.035 203.553 182.769 202.621 182.769C192.082 182.769 183.549 191.33 183.521 201.869C183.549 202.745 182.815 203.508 181.882 203.508Z" fill="#76CAE7"/>
<path d="M174.282 85.6031C183.634 124.763 159.449 164.093 120.317 173.445C81.1846 182.797 41.7983 158.64 32.4461 119.48C23.094 80.3195 47.2513 40.9897 86.4116 31.6376C125.572 22.2855 164.902 46.4428 174.282 85.6031Z" fill="url(#paint0_radial_7902_49)"/>
<mask id="mask0_7902_49" style="mask-type:luminance" maskUnits="userSpaceOnUse" x="30" y="29" width="147" height="147">
<path d="M174.282 85.6031C183.634 124.763 159.449 164.093 120.317 173.445C81.1846 182.797 41.7983 158.64 32.4461 119.48C23.094 80.3195 47.2513 40.9897 86.4116 31.6376C125.572 22.2855 164.902 46.4428 174.282 85.6031Z" fill="white"/>
</mask>
<g mask="url(#mask0_7902_49)">
<path d="M64.2604 151.944C74.9969 152.283 83.9818 143.863 84.3491 133.127C84.6881 122.39 76.2684 113.405 65.5318 113.038C65.447 113.038 65.3623 113.038 65.2775 113.038C64.9667 113.038 64.6277 113.038 64.3169 113.038C64.3734 112.473 64.4016 111.936 64.4016 111.371C64.3169 100.55 55.4733 91.8755 44.6802 91.932H30.0728C27.1909 113.744 34.1131 135.726 49.0314 151.944H64.2604Z" fill="#F2F2F2"/>
<path d="M175.158 88.9653C175.186 88.7958 175.158 88.598 175.073 88.4285C172.728 75.7141 166.936 63.8756 158.375 54.2127C146.734 49.5507 133.483 55.2016 128.821 66.8423C128.68 67.1813 128.567 67.5487 128.426 67.8877C127.945 69.5264 127.691 71.1934 127.634 72.8887C126.843 72.8039 126.052 72.7474 125.261 72.7474C113.875 72.7192 104.607 81.93 104.579 93.3165C104.551 102.075 110.089 109.93 118.367 112.84C120.401 113.631 122.605 114.055 124.809 114.027H148.91C158.573 106.709 167.388 98.3175 175.158 88.9653Z" fill="#F2F2F2"/>
</g>
<path d="M200.643 41.6677C193.156 29.2359 175.695 24.3762 151.283 28.021C142.92 29.2076 134.641 30.9877 126.561 33.3893C132.974 35.6213 139.106 38.6728 144.7 42.4871C147.554 41.8655 150.436 41.1027 153.204 40.6788C157.527 40.0007 161.907 39.6617 166.314 39.6334C175.017 38.3903 183.775 41.6112 189.596 48.251C194.145 55.8231 190.302 68.7918 179.085 83.8795C163.461 103.318 144.333 119.649 122.662 131.996C101.499 145.219 78.0201 154.317 53.4672 158.866C34.876 161.635 21.5965 158.866 17.0476 151.322C12.4986 143.778 16.3412 130.781 27.5864 115.75C28.9708 113.885 29.3099 112.981 30.8921 111.088C30.1575 104.646 30.2423 98.1479 31.2029 91.7342C26.1454 96.7917 21.5117 102.245 17.3019 108.037C2.58143 127.702 -1.4024 145.417 6.0567 157.849C14.0809 168.586 27.1908 174.236 40.4985 172.682C45.4713 172.654 50.444 172.259 55.3602 171.496C81.5519 166.721 106.613 157.058 129.245 142.987C152.329 129.764 172.728 112.303 189.37 91.5364C204.119 71.8149 208.102 54.0996 200.643 41.6677Z" fill="#76CAE7"/>
<defs>
<radialGradient id="paint0_radial_7902_49" cx="0" cy="0" r="1" gradientUnits="userSpaceOnUse" gradientTransform="translate(103.069 102.186) scale(73.594 72.8864)">
<stop offset="0.18" stop-color="#679CD3"/>
<stop offset="1" stop-color="#2974BA"/>
</radialGradient>
</defs>
</svg>
