<svg width="202" height="141" xmlns="http://www.w3.org/2000/svg" xml:space="preserve">

 <g>
  <title>Youtube Logo</title>
   <rect id="svg_4" height="82" width="101" y="31" x="57" fill="#ffffff"/>
   <path id="svg_3" d="m101.07422,0s-63.21885,0.00006 -79.08594,4.12304c-8.49578,2.3738 -15.49141,9.3695 -17.86523,17.99024c-4.12295,15.8671 -4.12305,48.72656 -4.12305,48.72656s0.0001,32.9842 4.12305,48.60156c2.37383,8.62062 9.24451,15.49138 17.86523,17.86524c15.99203,4.24788 79.08594,4.24804 79.08594,4.24804s63.34418,-0.00005 79.21094,-4.12304c8.62079,-2.37381 15.49133,-9.11966 17.74023,-17.86524c4.24793,-15.74232 4.24805,-48.60156 4.24805,-48.60156s0.12484,-32.98446 -4.24805,-48.85156c-2.2489,-8.62074 -9.11944,-15.49133 -17.74023,-17.74024c-15.86676,-4.37285 -79.21094,-4.37305 -79.21094,-4.37305zm-20.11523,40.48046l52.59962,30.35939l-52.59962,30.23438l0,-60.59376z" fill="red"/>
 </g>
</svg>
