<svg width="44" height="44" viewBox="0 0 44 44" fill="none" xmlns="http://www.w3.org/2000/svg">
<path d="M22.4088 6.45825C20.8013 6.45825 19.5969 7.66261 19.5969 9.27012C19.5969 9.80595 19.7313 10.3418 20.1328 10.8776L21.3371 9.67327V9.27182C21.3371 8.6016 21.8729 8.06746 22.5415 8.06746C23.21 8.06746 23.7458 8.6033 23.7458 9.27182C23.7458 9.94033 23.21 10.4762 22.5415 10.4762H22.14L20.9357 11.5479C22.2744 12.3508 24.0163 12.0837 24.8192 10.745C25.6221 9.4062 25.355 7.66431 24.0163 6.86141C23.6148 6.59434 23.079 6.45995 22.4088 6.45995V6.45825Z" fill="#AECBFA"/>
<path d="M21.337 14.6267C21.337 13.6894 21.0699 12.7521 20.5341 11.9492L18.9266 13.5567C19.061 13.9582 19.1937 14.2269 19.1937 14.6284C19.1937 15.2986 18.9266 15.8327 18.5234 16.2359L19.3263 18.3792C20.6651 17.5763 21.3353 16.1032 21.3353 14.6301L21.337 14.6267Z" fill="#5E97F6"/>
<path d="M17.0521 16.9029C15.8477 16.9029 14.776 15.9656 14.776 14.7595C14.776 13.5535 15.7133 12.4835 16.9194 12.4835C17.3208 12.4835 17.8567 12.6179 18.2581 12.885L19.8656 11.4119C18.9283 10.609 17.991 10.2075 16.9194 10.2075C14.509 10.2075 12.5 12.2165 12.5 14.6269C12.5 17.0373 14.3746 19.0462 16.9194 19.0462C17.1864 19.0462 17.5896 19.0462 17.8567 18.9118L17.0538 16.9029H17.0521Z" fill="#5E97F6"/>
<path d="M22.5431 18.6431C21.6059 18.6431 20.6686 18.7775 19.7313 19.0445L20.9356 21.9908C21.4715 21.9908 22.0073 21.8564 22.5431 21.8564C26.2923 21.8564 29.2385 24.937 29.2385 28.5518C29.2385 32.1665 26.1579 35.2472 22.5431 35.2472C18.9284 35.2472 15.8477 32.1665 15.8477 28.5518C15.8477 26.007 17.1865 23.731 19.4625 22.6593L18.2582 19.713C13.303 22.1251 11.2957 28.1503 13.7044 32.9711C16.1148 37.9263 22.14 39.9336 26.9608 37.5232C31.916 35.1128 33.9233 29.0876 31.5129 24.2668C29.7727 20.9191 26.2906 18.6431 22.5414 18.6431H22.5431Z" fill="#4285F4"/>
</svg>
