<svg version="1.1" id="Layer_1" xmlns="http://www.w3.org/2000/svg" x="0" y="0" viewBox="0 0 478.1 466.6" style="enable-background:new 0 0 478.14 466.59" xml:space="preserve"><style>.st0{fill:#6f4bbb}.st1{fill:#7d5dc2}.st2{fill:#9478cf}.st3{fill:#5f3ea7}.st4{fill:#a58dd4}.st5{fill:#d3e8ef}.st6{fill:#fff}.st7{fill:#ea4e64}</style><path class="st0" d="M132.9 392.8H217v73.8h-82.6c-13-5.8-24-14-31.7-23.7a95.1 95.1 0 0 1 30.1-50z"/><path class="st1" d="M137.8 399c-11.2 11.6-22.2 25.6-26 41.5 6.8 7.9 15.4 14.1 24.8 18.6h70.8v-60h-69.6z"/><path class="st2" d="M118.3 424.1c-2.2 3.1-6.3 15.5-6.5 16.3 6.7 8 15.4 14.2 24.7 18.6h37.7V427a673 673 0 0 1-56-2.8h.1z"/><path class="st3" d="M132.5 451c8.7 2.8 12.8 8.4 14 15.6h-30.3c2-6.2 7.8-13.8 16.3-15.7"/><path class="st0" d="M132.3 454.2c-4.7 1.3-8.7 5-11.3 9.3h11.5v-9.2l-.2-.1z"/><path class="st3" d="M162.5 449.1c11.7 3.3 17.3 11 18.7 17.5h-40.5c2.7-6.9 10.8-16 21.8-17.5"/><path class="st0" d="M162.3 452.3a26.7 26.7 0 0 0-16.5 11.2h16.7v-11.1l-.2-.1zM318 392.8h-84v73.8h82.5c13-5.8 23.9-14 31.7-23.7a95.1 95.1 0 0 0-30.1-50z"/><path class="st1" d="M313.3 399c11.2 11.6 22.1 25.6 25.9 41.5a74.2 74.2 0 0 1-24.7 18.6h-70.8v-60h69.6z"/><path class="st2" d="M332.7 424.1c2.2 3.1 6.3 15.5 6.5 16.3a74.2 74.2 0 0 1-24.7 18.6h-37.8V427a673 673 0 0 0 56-2.8z"/><path class="st3" d="M318.6 451c-8.7 2.8-12.8 8.4-14.1 15.6h30.4c-2-6.2-7.8-13.8-16.3-15.7"/><path class="st0" d="M318.7 454.2c4.8 1.3 8.8 5 11.4 9.3h-11.5v-9.2l.1-.1z"/><path class="st3" d="M288.6 449.1c-11.7 3.3-17.4 11-18.8 17.5h40.6a29.5 29.5 0 0 0-21.8-17.5"/><path class="st0" d="M288.8 452.3a26.7 26.7 0 0 1 16.4 11.2h-16.6v-11.1l.2-.1z"/><path class="st3" d="M.3 415.6C.9 429 3.8 439.4 9.8 446c9.3-.7 17-11 20.6-19.8-5.4-9.4-15.9-13.6-30.1-10.6"/><path class="st0" d="M5 419.3a40 40 0 0 0 6.6 21.8l3.6-21.2a29 29 0 0 0-10.2-.6"/><path class="st3" d="M23.7 422.7c.9 12.1 2.4 22.6 10 33.5 13.5-3 24.2-10.5 28.7-22.6-6.8-15.2-22.6-17.3-38.8-10.9z"/><path class="st0" d="m35.6 451 9.1-26.7a33 33 0 0 0-16.4 1.4c.9 9.3 2.4 17.3 7.3 25.3z"/><path class="st3" d="M68.3 432.5c2.3 13.8 15.3 20.5 21.8 20.2 3-5 5.8-11.6 6-19.4l-5.7-4.8c-8.6-1.5-17.8-1-22.2 4z"/><path class="st0" d="M87.7 448.1c2.7-3.8 4.3-9.8 4.6-15.4l-9.3-1.4 4.7 16.8z"/><path class="st0" d="M96 248.8v184.4c-32 4-69 2.7-95.7-17.7.5-17.2 2.1-34 5.2-50 5.8-29 16.7-55.4 35.6-77.1 16.6-19.1 33.3-28.3 55-39.7z"/><path class="st2" d="M9.4 411.2C26 424 66 428 87 425.4V263.7c-54.2 28.8-75.7 82-77.6 147.5"/><path class="st4" d="M9.4 411.2c8.4 6.5 22.8 10.7 37.8 13 2.1-41.1 1.9-103-7.3-119.4-20.2 28.5-29.3 65-30.5 106.4"/><path class="st2" d="M47 383.8a12.7 12.7 0 1 1 .1 25.3 12.7 12.7 0 0 1 0-25.3"/><path class="st0" d="M77.4 105c-3.7-24 .3-36.6 5.3-58.4 15.2 12.6 25 21.8 43.5 31.1a188.1 188.1 0 0 1 23.9-65.6l7-12.1c27.2 20.5 50.5 37 68.4 64 18-27 41.1-43.5 68.3-64l7 12.1c12 20.5 20.3 42.5 24 65.6 18.5-9.3 28.3-18.4 43.5-31.1 5 21.8 9 34.2 5.3 58.3l33.6 9.3a11918.2 11918.2 0 0 1-25.7 286.4c-.3 3.5-4.6 9.7-22.6 10-87.6 5.8-179.3 5.8-267 0-17.9-.3-22.1-6.5-22.6-10l-3.7-37-1.5-15c-7.4-78.2-14.5-156.2-20.5-234.4l33.6-9.3h.2z"/><path class="st2" d="M160.9 18.4A172 172 0 0 0 136.8 96c-15-5.6-32-14.7-46.4-26.7a98.7 98.7 0 0 0 1.7 45 627 627 0 0 0-35.2 9c6.2 80.5 12 161 19.9 241.3.7 8 2.4 25.1 3.3 33.1 3.2 1.8 9.8 1.8 12.6 2 88.1 5.8 177.4 5.8 265.5 0 2.8-.3 9.5-.3 12.6-2l3.4-33c7.8-80.4 13.6-161 19.8-241.4a631.5 631.5 0 0 0-35.1-9c4-14.9 4.6-32 1.7-45A165.1 165.1 0 0 1 314 95.9a172 172 0 0 0-24-77.5c-29.6 22.3-48.8 38.4-64.7 70.8-15.9-32.4-35-48.5-64.7-70.8h.2z"/><path class="st4" d="M160.9 18.4c2.2 35.8 11.2 75.5 28 92.1-22.6-2.5-34.6-5-52.1-14.6-15-5.6-32-14.7-46.4-26.7 7.8 23.5 15.4 40.4 30.9 56.8A42 42 0 0 1 92 114.2a627 627 0 0 0-35.2 9c6.2 80.5 12 161 19.9 241.3.7 8 2.4 25.1 3.3 33.1 3.2 1.8 9.8 1.8 12.6 2 44 3 88.4 4.3 132.8 4.3v-48c-68.4 5.4-131-102.5-59.1-173.4l-14.3 8a76.3 76.3 0 0 1 6.5-37.2c9.4-22.5 34.2-39.2 66.9-43V89c-16-32.3-35.1-48.5-64.7-70.8v.1z"/><path class="st1" d="M329.6 126c15.4-16.4 23.1-33.3 31-56.8 3 13 2.3 30.1-1.7 45a42 42 0 0 1-29.3 11.8m-26-6.6a13.9 13.9 0 0 1 0 27.7 13.9 13.9 0 0 1 0-27.7m50.6 31.2a9.6 9.6 0 1 1 0 19.3 9.6 9.6 0 0 1 0-19.3m-92.1-40c17-16.7 25.9-56.4 28-92.2a172 172 0 0 1 24 77.5c-17.5 9.5-29.4 12.1-52 14.6"/><path class="st2" d="M99.8 139.5a22.8 22.8 0 1 1 0 45.5 22.8 22.8 0 0 1 0-45.5m-14.7 69.9a9.2 9.2 0 0 1 0 18.3 9.2 9.2 0 0 1 0-18.3"/><path class="st5" d="M227 152a98.2 98.2 0 1 1 0 196.3 98.2 98.2 0 0 1 0-196.4"/><path class="st6" d="M131.3 227.7a98.3 98.3 0 0 1 75.2-73.6c40.6-3.2 73.3 25.2 73.3 63.8 0 38.9-33.3 73.3-74.3 77-41 3.6-74.2-25-74.2-63.8v-3.4z"/><path class="st7" d="M257.1 212.4a55.4 55.4 0 1 1 0 110.8 55.4 55.4 0 0 1 0-110.8"/><path d="M257.1 212.4c8.1 0 15.7 1.7 22.7 4.9v.6c0 37.9-31.6 71.6-71.2 76.6a55.4 55.4 0 0 1 48.5-82.1z" style="fill:#ec6277"/><path d="M257.1 231.8a36 36 0 1 1 0 72 36 36 0 0 1 0-72" style="fill:#232323"/><path d="M257.1 231.8c7.3 0 14.1 2.2 19.8 6a82.2 82.2 0 0 1-48.5 51.6 35.8 35.8 0 0 1 28.7-57.6" style="fill:#323232"/><path class="st6" d="M218 226.3a22.6 22.6 0 1 1 0 45.3 22.6 22.6 0 0 1 0-45.3"/><path class="st0" d="M111.4 295c28-15.4 70 11.6 67 55.2a128.6 128.6 0 0 1-67-55.1"/><path class="st4" d="M111.4 295c25.4.6 53.5 15 67 55.2-32-3.7-61.7-28-67-55.1"/><path class="st1" d="M124.7 331.5c3.7-1.3 21.2-.9 22.6 1 1.7 2.3-3 14.2-7.9 21.8a43.4 43.4 0 0 1-14.7-22.8"/><path class="st6" d="M119.6 327.3c3.7-1.3 21.2-1 22.6 1 1.7 2.2-3 14.1-7.9 21.8a43.4 43.4 0 0 1-14.7-22.8"/><path class="st0" d="M124.8 321.2c1.2 24.8 33.4 48.6 64 39.7 1.7 7.1-3.2 11.4-8.2 12.5a64 64 0 0 1-63.5-37.6c-2.5-6.2.4-13.8 7.7-14.6zM119.5 367.6a43.6 43.6 0 0 0 33 23.4c-18.9 8.5-35.5-2.7-33-23.4"/><path class="st2" d="M132.2 371a74.8 74.8 0 0 0 46 9.6c-12 8.2-35.8 9-46-9.5"/><path class="st3" d="M260.9 124c-30.5-52.5-110.4-22-102.3 37.1 20-33.1 58.6-43.8 102.3-37"/><path class="st0" d="M260.9 124c-17.2-29.6-53.4-31.5-77.5-15.2a22 22 0 0 0 5.6 16 81.3 81.3 0 0 1 72-.8h-.1zM420 324a58 58 0 0 1 58.1 57.6c0 32-26.2 57.6-58 57.6a58 58 0 0 1-58.2-57.6c0-32 26.2-57.7 58.1-57.7"/><path class="st2" d="M420 332.4c27.4 0 49.6 22 49.6 49.1a49.4 49.4 0 0 1-49.6 49.1c-27.4 0-49.6-22-49.6-49.1a49.4 49.4 0 0 1 49.6-49.1"/><path class="st4" d="M420 332.4a49.7 49.7 0 0 1 44.5 27.2c1.7 25.7-29.5 44.6-50.4 35.7a49.2 49.2 0 0 1-25-52.2 49.7 49.7 0 0 1 30.9-10.7z"/><path d="M399.8 374c-2.4-7.2 24-16 26.5-9l26 78.4c2.4 7.1-24 16-26.4 8.9l-26.1-78.4z" style="fill:#2b3039"/><path class="st3" d="M437.6 366a61.4 61.4 0 0 0-25 24.4c8.8 10.7 20.5 16.7 33.3 15 10.4-13 5-28-8.3-39.4z"/><path class="st0" d="M445.7 383.8a38.7 38.7 0 0 0-8-12.8 59 59 0 0 0-19.4 18.6c5.5.6 14.1-.9 27.4-5.8z"/><path class="st3" d="M447.6 397.4a61.4 61.4 0 0 0-25 24.3c8.8 10.8 20.5 16.7 33.2 15 10.4-13 5-28-8.2-39.3z"/><path class="st0" d="M455.7 414a38.7 38.7 0 0 0-8-12.8 59 59 0 0 0-19.4 18.6c5.5.6 14-1 27.4-5.9z"/><path class="st3" d="M393.6 400.5a51 51 0 0 1 29.2-.9c1.3 11.6-2 22-10.3 28.8-13.8-1.3-19.7-13.3-18.8-27.8v-.1z"/><path class="st0" d="M399.6 414.4a31.4 31.4 0 0 1-3-12.2 49.4 49.4 0 0 1 22.5-.8c-2.9 3.6-8.8 8-19.4 13z"/><path d="M373.9 188.3a95.2 95.2 0 1 0 10.7 190 95.2 95.2 0 0 0-10.7-190" style="fill:#393f4c"/><path class="st5" d="M374.6 200a83.4 83.4 0 1 0 9.5 166.6 83.4 83.4 0 0 0-9.5-166.5"/><path class="st6" d="M442.7 324.6a75.6 75.6 0 0 0-43.1-114.2c-2.5 28.7-5 57-7.8 85.9 10.2 4 36.4 17 51 28.3h-.1zM373.4 209.3a72.4 72.4 0 0 0-65.4 92.8 84.2 84.2 0 0 1 79-92.3h.2c-4.4-.5-9-.8-13.7-.5h-.1z"/><path d="M307.9 326.4c1.6 2.6 3.2 5 5 7.4l24.5-34 56.6 23.5 32.9-67.8 33 6.3-3-9-34.7-6.7-32.2 66.5-55.4-23-26.7 36.9z" style="fill:#999"/><path d="M335 277.4a17.2 17.2 0 1 1 2 34.3 17.2 17.2 0 0 1-2-34.3" style="fill:#1ec185"/><path class="st7" d="M423.6 233.6a17.2 17.2 0 1 1 2 34.3 17.2 17.2 0 0 1-2-34.3"/><path d="M391 300.8a17.2 17.2 0 1 1 2 34.3 17.2 17.2 0 0 1-2-34.3" style="fill:#ff893a"/></svg>