<?xml version="1.0" encoding="utf-8"?>
<svg viewBox="166.7 162.164 198.751 198.702" xmlns="http://www.w3.org/2000/svg">
  <path class="cls-3" d="M138.16,116.37c-4.54,18.76-19.85,78.9-19.85,78.9a4.73,4.73,0,0,1-4.92,3.42L99,197.19a4.85,4.85,0,0,1-4.17-4.36s-4.06-66.06.18-90.05S192.62-2.73,198.36.15s-55.66,97.46-60.2,116.22" style="fill: rgb(0, 191, 208);" transform="matrix(1, 0, 0, 1, 166.712036, 162.16156)"/>
  <path class="cls-4" d="M82.37,60.58C63.61,65.12,3.47,80.43,3.47,80.43A4.74,4.74,0,0,0,0,85.34L1.55,99.75a4.84,4.84,0,0,0,4.36,4.18S72,108,96,103.75,201.47,6.11,198.59.38,101.13,56,82.37,60.58" style="fill: rgb(255, 92, 40);" transform="matrix(1, 0, 0, 1, 166.712036, 162.16156)"/>
  <path class="cls-5" d="M198.59.38a.42.42,0,0,0-.09-.14.42.42,0,0,0-.14-.09C192.62-2.73,99.23,78.81,95,102.78c-.07.38-.13.77-.19,1.16l1.16-.19C119.93,99.51,201.47,6.11,198.59.38Z" style="fill: rgb(0, 69, 118);" transform="matrix(1, 0, 0, 1, 166.712036, 162.16156)"/>
  <path class="cls-6" d="M94.8,103.94c-7.66,1.21-19,1.67-31.08,1.73L6.43,163a4.74,4.74,0,0,0,0,6.69l22.66,22.66a4.74,4.74,0,0,0,6.69,0L93.07,135C93.13,123,93.59,111.6,94.8,103.94Z" style="fill: rgb(243, 163, 38);" transform="matrix(1, 0, 0, 1, 166.712036, 162.16156)"/>
</svg>