<svg width="60" height="43" viewBox="0 0 60 43" fill="none" xmlns="http://www.w3.org/2000/svg">
<g clip-path="url(#clip0_4439_4786)">
<path d="M29.9622 24.0045C32.3363 24.0045 34.657 23.3005 36.6309 21.9814C38.6048 20.6623 40.1432 18.7875 41.0514 16.594C41.9597 14.4005 42.197 11.987 41.7335 9.65863C41.2699 7.33026 40.1262 5.19168 38.4471 3.51336C36.768 1.83504 34.6288 0.692388 32.3002 0.229926C29.9716 -0.232535 27.5582 0.0059685 25.3652 0.915272C23.1722 1.82457 21.2981 3.36383 19.9799 5.33835C18.6618 7.31286 17.9588 9.63394 17.96 12.008C17.96 13.5839 18.2705 15.1443 18.8737 16.6002C19.4769 18.0561 20.3611 19.3788 21.4757 20.4929C22.5903 21.6069 23.9134 22.4905 25.3696 23.093C26.8257 23.6955 28.3863 24.0053 29.9622 24.0045Z" fill="#FFCD00"/>
<path d="M30.0373 30.0028H29.9971C25.995 30.0018 22.1073 28.668 18.9475 26.2119C15.7878 23.7558 13.536 20.3173 12.5476 16.4393C11.9449 14.04 9.99329 12.008 7.51936 12.008H0C0 19.9637 3.1604 27.5936 8.78594 33.2191C14.4115 38.8447 22.0414 42.0051 29.9971 42.0051H30.0373V30.0028Z" fill="#00ECBB"/>
<path d="M29.9629 30.0028H29.9973C33.9996 30.0028 37.8879 28.6693 41.0478 26.2131C44.2078 23.7569 46.4593 20.3178 47.4468 16.4393C48.0553 14.04 50.0069 12.008 52.4808 12.008H60.0001C59.9986 19.9643 56.8369 27.5941 51.2105 33.2195C45.584 38.8449 37.9536 42.0051 29.9973 42.0051H29.9629V30.0028Z" fill="#AF64FF"/>
<path d="M51.2122 33.2172C48.4267 36.0029 45.1197 38.2127 41.4801 39.7204C37.8405 41.228 33.9396 42.004 30.0001 42.004C26.0606 42.004 22.1597 41.228 18.5202 39.7204C14.8806 38.2127 11.5736 36.0029 8.78809 33.2172L17.2718 24.7335C20.6483 28.1079 25.2265 30.0034 30.0001 30.0034C34.7737 30.0034 39.352 28.1079 42.7285 24.7335L51.2122 33.2172Z" fill="#7131FF"/>
</g>
<defs>
<clipPath id="clip0_4439_4786">
<rect width="60" height="42.0051" fill="white"/>
</clipPath>
</defs>
</svg>
