<svg width="33" height="33" viewBox="0 0 33 33" fill="none" xmlns="http://www.w3.org/2000/svg">
<path d="M31.1755 11.3187C31.1755 7.6609 28.9982 4.17728 25.3839 2.69673C24.2082 2.21773 22.9889 2 21.7697 2C19.8972 2 18.0683 2.56609 16.5442 3.56764C15.0637 2.56609 13.2783 2 11.3623 2C10.7091 2 10.0124 2.08709 9.31565 2.21773C5.83201 2.958 3.04509 5.65782 2.21773 9.0979V9.185C2.08709 9.7946 2 10.4478 2 11.0575C2 12.4074 2.30482 13.7137 2.78382 14.8895L7.48673 26.6032C8.18346 28.3886 9.57692 29.8691 11.4929 30.5659C12.1897 30.8271 12.8864 30.9578 13.6267 31.0013H29.9127L26.9951 23.2938L30.4788 14.8895C30.9142 13.7137 31.1755 12.4945 31.1755 11.3187ZM5.09173 11.0575C5.09173 10.6656 5.13528 10.2301 5.22237 9.8382V9.7511C5.74491 7.5303 7.66092 5.65782 9.92528 5.22237C10.4043 5.13528 10.8833 5.09173 11.3187 5.09173C12.3638 5.09173 13.3218 5.353 14.1927 5.78846C13.7573 6.3981 13.3654 7.0077 13.0606 7.748L8.09637 19.9408L5.61428 13.7573C5.30946 12.8428 5.09173 11.9284 5.09173 11.0575ZM27.5612 13.7137L23.5986 23.2502L25.3839 27.9531H13.7573C13.3654 27.9531 12.9735 27.866 12.5816 27.6919C11.0139 27.1258 10.0995 25.6452 10.0995 24.1211C10.0995 23.6857 10.1866 23.2067 10.3607 22.7277L15.9781 8.9237C16.9797 6.5287 19.3311 5.09173 21.8132 5.09173C22.597 5.09173 23.4244 5.22237 24.2082 5.57073C26.6468 6.5723 28.0838 8.8802 28.0838 11.3187C28.0402 12.1026 27.9096 12.9299 27.5612 13.7137Z" fill="url(#paint0_linear_7932_33671)"/>
<defs>
<linearGradient id="paint0_linear_7932_33671" x1="2.5944" y1="34.8124" x2="33.0061" y2="-0.277872" gradientUnits="userSpaceOnUse">
<stop stop-color="#2FDFBF"/>
<stop offset="1" stop-color="#2F74FF"/>
</linearGradient>
</defs>
</svg>
