<svg width="22" height="20" viewBox="0 0 22 20" fill="none" xmlns="http://www.w3.org/2000/svg">
<path d="M15.7136 0C16.2755 -5.00138e-09 16.7947 0.307883 17.0757 0.807673L21.7893 9.19233C22.0702 9.69212 22.0702 10.3079 21.7893 10.8077L17.0757 19.1923C16.7947 19.6921 16.2755 20 15.7136 20H6.28643C5.7245 20 5.20526 19.6921 4.92429 19.1923L0.210724 10.8077C-0.0702413 10.3079 -0.0702411 9.69212 0.210724 9.19233L4.92429 0.807673C5.20526 0.307883 5.7245 8.89045e-08 6.28643 8.39031e-08L15.7136 0Z" fill="#4386FA"/>
<path fill-rule="evenodd" clip-rule="evenodd" d="M11.9563 4C12.1588 3.99976 12.3384 4.12997 12.4013 4.32253L13.017 6.21012C13.0798 6.40268 13.0115 6.61378 12.8478 6.73302L11.243 7.90197C11.0793 8.02123 10.8574 8.02149 10.6934 7.90262L9.08589 6.73749C8.9219 6.61864 8.85309 6.40768 8.91544 6.21498L9.52672 4.32594C9.58907 4.13323 9.76841 4.00259 9.97095 4.00235L11.9563 4Z" fill="white"/>
<path fill-rule="evenodd" clip-rule="evenodd" d="M11.8741 15.9994C12.0766 15.9993 12.256 15.8687 12.3184 15.676L12.9305 13.7873C12.9929 13.5946 12.9242 13.3836 12.7603 13.2647L11.1532 12.0988C10.9893 11.9799 10.7674 11.9801 10.6037 12.0993L8.99839 13.2675C8.83463 13.3867 8.76623 13.5978 8.82896 13.7904L9.44389 15.6782C9.50663 15.8708 9.68622 16.0011 9.88875 16.0009L11.8741 15.9994Z" fill="white"/>
<path fill-rule="evenodd" clip-rule="evenodd" d="M16.677 8.52708C16.8696 8.58968 17 8.76918 17 8.97174V10.9572C17 11.1598 16.8696 11.3393 16.677 11.4019L14.7888 12.0154C14.5962 12.078 14.3852 12.0095 14.2661 11.8456L13.0992 10.2393C12.9802 10.0754 12.9802 9.85355 13.0992 9.68968L14.2661 8.08339C14.3852 7.91953 14.5962 7.85094 14.7888 7.91354L16.677 8.52708Z" fill="white"/>
<path fill-rule="evenodd" clip-rule="evenodd" d="M5.32303 11.5894C5.13041 11.5268 5 11.3473 5 11.1447L5 9.15924C5 8.95671 5.13041 8.77718 5.32303 8.7146L7.21119 8.10104C7.4038 8.03844 7.61481 8.10703 7.73385 8.27089L8.9008 9.87718C9.01983 10.041 9.01983 10.2629 8.9008 10.4268L7.73385 12.0331C7.61481 12.197 7.4038 12.2655 7.21119 12.2029L5.32303 11.5894Z" fill="white"/>
</svg>
