<svg width="250" height="250" viewBox="0 0 250 250" fill="none" xmlns="http://www.w3.org/2000/svg">
<g clip-path="url(#clip0_7_381)">
<mask id="mask0_7_381" style="mask-type:luminance" maskUnits="userSpaceOnUse" x="0" y="0" width="250" height="250">
<path d="M250 0H0V250H250V0Z" fill="white"/>
</mask>
<g mask="url(#mask0_7_381)">
<path d="M110.871 191.906C110.871 198.758 105.337 204.312 98.509 204.312C91.682 204.312 86.1484 198.758 86.1484 191.906C86.1484 185.053 91.682 179.5 98.509 179.5C105.337 179.5 110.871 185.053 110.871 191.906Z" fill="#0066CC"/>
<path d="M162.844 191.906C162.844 198.758 157.309 204.312 150.482 204.312C143.655 204.312 138.121 198.758 138.121 191.906C138.121 185.053 143.655 179.5 150.482 179.5C157.309 179.5 162.844 185.053 162.844 191.906Z" fill="#0066CC"/>
<path d="M155.022 167.095H93.971C89.0679 167.095 84.6495 164.13 82.7786 159.582L66.6972 120.511H54.1094C47.422 120.511 42 115.07 42 108.358C42 101.647 47.422 96.2062 54.1094 96.2062H74.7969C79.6997 96.2062 84.1182 99.1729 85.9891 103.719L102.07 142.791H147.003L163.55 103.616C166.161 97.4351 173.268 94.555 179.427 97.1692C185.583 99.7896 188.459 106.921 185.85 113.101L166.172 159.685C164.274 164.177 159.884 167.095 155.022 167.095Z" fill="#0066CC"/>
<path d="M168.55 55.8893C163.916 51.0466 156.251 50.8917 151.427 55.5414L136.352 70.0665V12.1532C136.352 5.44053 130.932 0.000854492 124.243 0.000854492C117.555 0.000854492 112.133 5.44053 112.133 12.1532V69.7824L97.626 55.6007C92.835 50.919 85.1687 51.0177 80.502 55.827C75.8353 60.6348 75.9352 68.3287 80.726 73.0119L115.793 107.289C115.954 107.445 116.126 107.584 116.293 107.73C116.381 107.807 116.466 107.887 116.556 107.963C116.968 108.304 117.396 108.614 117.84 108.892C117.902 108.93 117.969 108.965 118.032 109.004C118.468 109.265 118.916 109.498 119.375 109.7C119.417 109.718 119.454 109.744 119.496 109.762C119.525 109.774 119.553 109.783 119.581 109.794C119.856 109.909 120.135 110.008 120.416 110.101C120.519 110.136 120.621 110.177 120.724 110.209C120.999 110.291 121.279 110.357 121.558 110.421C121.67 110.447 121.78 110.48 121.892 110.502C122.172 110.558 122.454 110.594 122.735 110.629C122.847 110.643 122.956 110.667 123.068 110.676C123.447 110.714 123.825 110.733 124.203 110.733C124.216 110.733 124.228 110.736 124.241 110.736H124.243C124.275 110.736 124.308 110.731 124.34 110.731C124.694 110.728 125.048 110.713 125.399 110.679C125.608 110.66 125.816 110.62 126.021 110.59C126.195 110.564 126.37 110.546 126.542 110.512C126.789 110.465 127.033 110.398 127.276 110.336C127.405 110.301 127.537 110.277 127.664 110.239C127.915 110.165 128.159 110.073 128.405 109.982C128.524 109.94 128.645 109.903 128.763 109.855C128.997 109.76 129.226 109.65 129.456 109.539C129.582 109.479 129.709 109.425 129.831 109.361C130.04 109.252 130.243 109.129 130.447 109.006C130.587 108.922 130.729 108.843 130.865 108.753C131.044 108.636 131.216 108.506 131.39 108.378C131.545 108.264 131.701 108.152 131.851 108.03C132.002 107.907 132.147 107.774 132.294 107.643C132.406 107.543 132.523 107.453 132.632 107.348L168.203 73.0727C173.027 68.4229 173.182 60.7305 168.55 55.8893Z" fill="#99CC00"/>
<path d="M126.113 250.684C113.981 250.684 101.327 246.099 87.7235 236.932C82.1713 233.191 80.6924 225.641 84.4206 220.069C88.1488 214.499 95.672 213.015 101.225 216.755C122.429 231.044 134.41 227.602 146.872 217.42C152.059 213.183 159.687 213.966 163.909 219.171C168.13 224.377 167.349 232.031 162.162 236.268C150.397 245.879 138.53 250.684 126.113 250.684Z" fill="#99CC00"/>
</g>
</g>
<defs>
<clipPath id="clip0_7_381">
<rect width="250" height="250" fill="white"/>
</clipPath>
</defs>
</svg>
