<svg width="179" height="201" viewBox="0 0 179 201" fill="none" xmlns="http://www.w3.org/2000/svg">
<path d="M170.2 142.5C168.3 141.2 165.8 141.3 163.9 142.6C162 143.9 161.2 146.4 161.9 148.6C162.6 150.8 164.6 152.4 166.9 152.5C169.2 152.6 171.3 151.3 172.2 149.2C173.2 146.8 172.4 143.9 170.2 142.5C172.7 144.2 167.8 140.8 170.2 142.5Z" fill="#FF6C36"/>
<path d="M100.4 193.4C101.6 193.4 102.9 193.4 104.1 193.3C106.6 193.2 109.1 193 111.5 192.7C113.5 192.5 107.4 193.2 111.5 192.7C114 192.4 116 194.7 115.5 197.2C115.2 198.3 114.4 199.2 113.4 199.7C112.7 200 112 200 111.3 200.1C110.5 200.2 109.6 200.3 108.8 200.3C102.2 200.8 95.6 200.7 89 200C83 199.3 77.2 198.2 71.4 196.4C65.8 194.7 60.4 192.5 55.2 189.8C49.9 187.1 45 183.9 40.3 180.3C34.9 176.3 30 171.7 25.6 166.6C21.2 161.6 17.3 156.1 14 150.4C10.6 144.5 7.80001 138.3 5.70001 131.8C3.50001 125.2 2.10002 118.4 1.30002 111.5C0.500018 104.5 0.500012 97.4 1.20001 90.4C1.90001 83.5 3.30002 76.6 5.50002 70C7.60002 63.5 10.3 57.3 13.7 51.3C17 45.4 21 39.9 25.4 34.8C29.8 29.8 34.7 25.2 40 21.1C45.4 17 51.2 13.4 57.2 10.5C63.4 7.49998 69.9 5.19998 76.6 3.49998C83.4 1.79998 90.4 0.899986 97.4 0.599986C104.4 0.399986 111.5 0.899986 118.4 2.09999C125.1 3.29999 131.7 5.19998 138.1 7.69998C144.4 10.2 150.4 13.4 156 17.1C161.6 20.8 166.8 25.1 171.6 29.9C173.6 31.9 175.4 33.9 176.7 36.5C177.8 38.7 178.4 41.2 178.6 43.6C178.9 48.6 177.2 53.7 173.8 57.4C169.9 61.8 164 64.2 158.2 63.8C155.4 63.6 152.6 62.8 150.1 61.4C148.8 60.7 147.6 59.8 146.6 58.8C145.4 57.7 144.3 56.4 143.1 55.3C138.2 50.7 132.6 47 126.5 44.2C120.2 41.4 113.5 39.6 106.7 39C99.7 38.4 92.6 38.9 85.8 40.6C79.2 42.3 72.9 45.1 67.1 48.8C61.5 52.5 56.5 57.1 52.4 62.3C48.2 67.6 44.9 73.6 42.6 80C40.3 86.5 39.1 93.4 39.1 100.3C39.1 107.3 40.2 114.2 42.5 120.8C44.7 127.2 48 133.1 52.1 138.4C56.2 143.7 61.2 148.3 66.8 152C72.5 155.8 78.8 158.6 85.5 160.3C92.3 162.1 99.4 162.6 106.4 162C113.2 161.4 119.9 159.7 126.2 156.9C126.9 156.6 127.5 156.2 128.2 156.1C128.8 156 129.4 156 130 156.2C131.2 156.6 132.1 157.5 132.4 158.7C132.7 159.8 132.5 161.1 131.7 162C131.3 162.5 130.7 162.8 130.1 163.1C129.3 163.4 128.6 163.8 127.8 164.1C121.4 166.8 114.7 168.5 107.8 169.1C100.8 169.8 93.7 169.4 86.9 168C87.8 169 88.6 170.1 89.4 171.2C90.2 172.3 91 173.5 91.7 174.6C91.8 174.8 92.1 175.2 92.1 175.2C92.1 175.2 92.2 175.2 92.4 175.2C92.8 175.2 93.1 175.3 93.5 175.3C94.2 175.4 94.9 175.4 95.6 175.5C98.5 175.7 101.4 175.7 104.3 175.6C110 175.3 115.7 174.5 121.2 172.9C126.5 171.4 131.7 169.3 136.6 166.7C141.4 164.1 145.9 161.1 150 157.5C151 156.6 152 155.7 153 154.8C153.9 154 154.6 153 155.7 152.5C157.6 151.5 159.9 151.8 161.5 153.1C163.2 154.4 163.9 156.6 163.4 158.7C163.1 159.8 162.6 160.7 161.8 161.4C160.8 162.3 159.9 163.3 158.9 164.2C154.9 167.8 150.6 171.1 146 173.9C141.3 176.8 136.4 179.2 131.2 181.1C125.9 183.1 120.5 184.5 114.9 185.4C109.2 186.3 103.4 186.7 97.6 186.5C98.1 187.8 98.5 189.1 98.9 190.4C99.1 191 99.2 191.6 99.4 192.2C99.4 192.4 99.6 192.9 99.6 192.9L100.4 193.4Z" fill="#FF6C36"/>
<path d="M156.2 175C150.6 179.2 144.5 182.8 138.1 185.6C134.9 187 131.6 188.2 128.2 189.3C126.5 189.8 124.8 190.3 123.1 190.7C122.4 190.9 121.6 191 120.9 191.4C120.3 191.7 119.9 192.2 119.6 192.8C118.9 194.1 119.1 195.6 120 196.7C121 198 122.5 198.2 124 197.9C127.4 197.1 130.8 196.1 134.1 194.9C140.7 192.6 147.1 189.5 153.1 185.8C154.6 184.9 156.1 183.9 157.5 182.9C158.2 182.4 159 181.9 159.7 181.4C160.3 180.9 161 180.5 161.5 179.8C162.3 178.7 162.3 177.1 161.6 175.9C160.9 174.7 159.5 174 158.2 174.1C157.4 174.3 156.7 174.6 156.2 175C157.8 173.8 145.9 182.6 156.2 175Z" fill="#FF6C36"/>
<path d="M168.2 164.2C167.3 165.2 166.3 166.2 165.3 167.2C164.5 168 163.6 168.7 163.2 169.8C162.6 171.9 164 174.1 166.1 174.4C167.4 174.6 168.5 174.1 169.4 173.3C170.4 172.4 171.4 171.4 172.3 170.4C173.1 169.6 174 168.8 174.3 167.6C174.5 166.7 174.4 165.6 173.9 164.8C172.7 162.8 169.8 162.5 168.2 164.2C169.6 162.7 166.9 165.6 168.2 164.2Z" fill="#FF6C36"/>
<path d="M145.5 143.2C143.2 145.6 140.8 147.8 138.2 149.8C137.5 150.3 136.7 150.9 136 151.4C135.4 151.8 134.9 152.4 134.6 153.1C134 154.5 134.4 156.2 135.6 157.2C137 158.4 138.8 158.3 140.3 157.2C141.7 156.2 143.1 155.2 144.4 154.2C145.6 153.2 146.8 152.1 148 151C148.7 150.4 149.3 149.7 150 149C150.6 148.4 151.2 147.8 151.6 147C152.2 145.4 151.6 143.5 150.1 142.6C148.6 141.8 146.7 142 145.5 143.2C146.9 141.8 142 146.9 145.5 143.2Z" fill="#FF6C36"/>
<path d="M100.8 77C95.9 77 91.1 78.5 87.1 81.4C83.2 84.2 80.2 88.1 78.6 92.6C76.9 97.2 76.7 102.4 78.1 107.2C79.4 111.8 82.1 115.9 85.8 118.9C89.5 122 94.2 123.9 99 124.2C103.9 124.6 108.9 123.4 113.1 120.8C117.2 118.3 120.4 114.7 122.4 110.3C124.4 105.8 125 100.7 124 95.8C123.1 91.1 120.6 86.7 117.2 83.4C113.7 80.1 109.2 77.9 104.5 77.1C103.2 77.1 102 77 100.8 77Z" fill="#FF6C36"/>
</svg>
