<svg width="98" height="98" viewBox="0 0 98 98" fill="none" xmlns="http://www.w3.org/2000/svg">
<path d="M93.83 5.40989H70.47C69.9256 5.40953 69.3914 5.55732 68.9245 5.83741C68.4577 6.11751 68.0759 6.51936 67.82 6.99989L63.34 15.8899C63.1954 16.1444 63.1193 16.4321 63.1193 16.7249C63.1193 17.0176 63.1954 17.3054 63.34 17.5599C63.4943 17.8096 63.7088 18.0164 63.9639 18.1615C64.2191 18.3065 64.5066 18.3851 64.8 18.3899H75.54L63.85 41.1299C63.7072 41.3832 63.6322 41.6691 63.6322 41.9599C63.6322 42.2507 63.7072 42.5366 63.85 42.7899C64.0914 43.1711 64.4715 43.4436 64.91 43.5499C65.0489 43.5747 65.1892 43.5914 65.33 43.5999H75.41C75.9588 43.6029 76.498 43.4554 76.9688 43.1733C77.4395 42.8912 77.8239 42.4853 78.08 41.9999L95.34 7.87989C95.4775 7.62186 95.5454 7.33239 95.5367 7.04011C95.5281 6.74784 95.4434 6.46287 95.2908 6.2134C95.1383 5.96392 94.9233 5.75857 94.6671 5.61765C94.4109 5.47673 94.1224 5.40511 93.83 5.40989Z" fill="#0ABCC2"/>
<path d="M69 54.3599H59C58.4583 54.3604 57.9269 54.5075 57.4621 54.7857C56.9972 55.0639 56.6164 55.4627 56.36 55.9399L46.07 76.2599L17 18.3999H48.62C49.1627 18.3985 49.6949 18.2498 50.1598 17.9698C50.6247 17.6898 51.0049 17.289 51.26 16.8099L55.72 7.88992C55.8647 7.63724 55.9409 7.35111 55.9409 7.05992C55.9409 6.76873 55.8647 6.4826 55.72 6.22992C55.5681 5.97886 55.3538 5.77139 55.098 5.62769C54.8421 5.484 54.5534 5.40897 54.26 5.40992H10.26C9.74469 5.41139 9.23844 5.54558 8.79006 5.79955C8.34167 6.05352 7.96626 6.41871 7.70001 6.85992L2.90001 16.2699C2.63384 16.711 2.48574 17.2132 2.46997 17.7281C2.45421 18.2431 2.57132 18.7534 2.81001 19.2099L39.61 91.8599C39.8651 92.339 40.2453 92.7398 40.7102 93.0198C41.1751 93.2998 41.7073 93.4485 42.25 93.4499H50.19C50.731 93.4467 51.2611 93.2972 51.7241 93.0173C52.1871 92.7374 52.5658 92.3375 52.82 91.8599L70.59 56.8599C70.7271 56.6026 70.7949 56.3141 70.7867 56.0227C70.7785 55.7313 70.6947 55.447 70.5434 55.1978C70.392 54.9486 70.1785 54.7431 69.9236 54.6014C69.6688 54.4598 69.3815 54.3869 69.09 54.3899" fill="black"/>
</svg>
