<?xml version="1.0" encoding="UTF-8"?>
<svg id="uuid-86e54cc0-9b6a-4530-9385-8b6776375497" data-name="Layer 2" xmlns="http://www.w3.org/2000/svg" viewBox="0 0 420.57342 411.5041">
  <defs>
    <style>
      .uuid-8e1e29df-c4ee-43b2-8a81-0dacbf3c628f {
        fill: #005f9e;
      }

      .uuid-0e8bc495-da17-4a5f-927f-3f5a422e7173 {
        fill: #02d1e4;
      }

      .uuid-f7ec4dee-849f-4db7-ad94-26536ff471e4 {
        fill: #0095f8;
      }

      .uuid-66d8ed11-7b0b-440a-a3f0-5b5604a7c0f8 {
        fill: #007aca;
      }

      .uuid-91671021-db43-4898-9a17-cb541158f245 {
        fill: #64e5db;
      }

      .uuid-9d02e96d-317a-44c4-8027-fc0f5ede3a8b {
        fill: #1400ff;
      }
    </style>
  </defs>
  <g id="uuid-32b2b3a9-49d0-4fc2-8b66-1bc8962a7151" data-name="desz">
    <g>
      <g>
        <path class="uuid-f7ec4dee-849f-4db7-ad94-26536ff471e4" d="M261.49832,158.08055v-.00029c-64.96695-40.0876-130.59333-80.85296-155.59195-55.83771l-1.97109,1.96536c-17.35537,21.56046,6.16013,68.42948,36.6804,119.47091,5.85336,9.78981,11.96418,19.73215,18.09335,29.67908,65.10113,40.18565,130.89981,81.15859,156.00165,56.1075,24.41719-24.4169-14.20592-87.91048-53.21235-151.38485Z"/>
        <path class="uuid-8e1e29df-c4ee-43b2-8a81-0dacbf3c628f" d="M103.93527,104.20791l-.00315,.00315-40.55492,40.43537L10.05159,198.09245c-.5284,.40798-1.41059,1.17176-2.41291,2.17408-32.19663,32.19634,45.06364,132.01767,89.03494,211.23757l49.54856-49.54884c13.98975-13.98889,22.85121-32.28809,25.15001-51.93709,2.2988-19.6513-2.09982-39.501-12.48254-56.34145l-.18062-.31882c-6.12917-9.94693-12.23999-19.88926-18.09335-29.67908-30.52027-51.04143-54.03577-97.91045-36.6804-119.47091Z"/>
        <path class="uuid-0e8bc495-da17-4a5f-927f-3f5a422e7173" d="M323.9437,0l-49.53136,49.46341c-14.07891,13.98487-23.0195,32.31618-25.37134,52.02052-2.35155,19.70405,2.02356,39.62514,12.41459,56.53039l.04272,.06594v.00029c39.00643,63.47437,77.62954,126.96795,53.21235,151.38485l97.92392-97.89009,.00459-.0043,.2675-.26721c32.27289-32.35804-45.04271-132.06699-88.96297-211.3038Z"/>
        <path class="uuid-9d02e96d-317a-44c4-8027-fc0f5ede3a8b" d="M412.63717,211.57301c.08859-.08601,.18177-.16486,.2695-.2523-.08716,.08687-.17948,.16543-.2675,.25029l-.00459,.0043,.00258-.00229Z"/>
      </g>
      <g>
        <path class="uuid-f7ec4dee-849f-4db7-ad94-26536ff471e4" d="M261.49847,158.08069l-.00022-.00044v-.00011c-64.96695-40.08748-130.59341-80.85288-155.59186-55.83747l-1.97122,1.96523c-17.3553,21.56052,6.16024,68.42939,36.68049,119.47109,5.85355,9.78955,11.96412,19.73211,18.09331,29.679,65.10112,40.18561,130.89989,81.15857,156.00189,56.10735,24.41699-24.41699-14.2061-87.91047-53.2124-151.38465Z"/>
        <path class="uuid-8e1e29df-c4ee-43b2-8a81-0dacbf3c628f" d="M158.88971,253.67666l-.18073-.31867-.22752-.14048c-61.4401-38.06415-122.51141-75.13538-148.42971-55.12507-.52845,.40793-1.41084,1.17193-2.41303,2.17412-32.19654,32.19654,45.06371,132.01767,89.03497,211.2374l49.54849-49.54849c13.98989-13.98878,22.85115-32.28811,25.15013-51.9375,2.29875-19.65095-2.10006-39.50104-12.48259-56.3413Z"/>
        <path class="uuid-66d8ed11-7b0b-440a-a3f0-5b5604a7c0f8" d="M140.61566,223.67899c-30.52024-51.04171-54.03579-97.91058-36.68049-119.47109l-.0031,.00322-40.55484,40.43542L10.05174,198.09244c25.9183-20.01031,86.98961,17.06092,148.42971,55.12507l.22752,.14048c-6.1292-9.94689-12.23976-19.88945-18.09331-29.679Z"/>
        <path class="uuid-91671021-db43-4898-9a17-cb541158f245" d="M323.9438,.00014l-49.53142,49.46345c-14.07903,13.98479-23.01947,32.31616-25.37122,52.02044-2.35153,19.70406,2.02355,39.625,12.41451,56.53035l.04258,.06575,.00177,.00111c63.46631,38.6965,126.53035,77.3696,151.13717,53.4917l.26944-.26922C445.17943,178.94588,367.86406,79.23684,323.9438,.00014Z"/>
        <polygon class="uuid-91671021-db43-4898-9a17-cb541158f245" points="261.50003 158.08124 261.49825 158.08014 261.49825 158.08025 261.50003 158.08124"/>
        <path class="uuid-0e8bc495-da17-4a5f-927f-3f5a422e7173" d="M412.90663,211.32069c-.08759,.08759-.18073,.16621-.26944,.25225l-.00244,.00244c.08937-.08671,.18339-.16621,.27188-.25469Z"/>
        <path class="uuid-0e8bc495-da17-4a5f-927f-3f5a422e7173" d="M261.50003,158.08124l-.00177-.001,.00022,.00044c39.00629,63.47418,77.62939,126.96766,53.2124,151.38465l97.92388-97.88995,.00244-.00244c-24.60682,23.8779-87.67086-14.7952-151.13717-53.4917Z"/>
      </g>
    </g>
  </g>
</svg>