<svg width="40" height="40" viewBox="0 0 40 40" fill="none" xmlns="http://www.w3.org/2000/svg">
<g clip-path="url(#clip0_1_276)">
<path d="M4.07644 12.2112C6.66613 6.04219 12.691 1.71775 19.7126 1.71775C26.7313 1.71775 32.759 6.0422 35.3459 12.2127H35.3487C35.4985 12.6305 35.8933 12.9289 36.3552 12.9289C36.9459 12.9289 37.4247 12.4415 37.4247 11.8432C37.4247 11.6968 37.4009 11.5604 37.3505 11.4325C34.4248 4.47471 27.6272 -0.401123 19.7112 -0.401123C11.7951 -0.401123 4.99753 4.47187 2.07608 11.4268C2.02149 11.5533 2.00049 11.6968 2.00049 11.8432C2.00049 12.4429 2.47923 12.9289 3.06996 12.9289C3.53191 12.9289 3.91546 12.6347 4.07644 12.2112Z" fill="#F38B00"/>
<path d="M31.5105 38.6965C31.3355 39.2479 30.9268 39.5989 30.1611 39.5989H25.8734C25.1721 39.5989 24.8165 39.3971 24.6401 38.6965L20.5918 23.3257C20.1831 21.771 20.0081 19.962 19.7687 18.1529C19.5937 19.962 19.36 21.8194 18.9512 23.3257L14.9029 38.6965C14.7867 39.2479 14.3191 39.5989 13.5534 39.5989H9.20555C8.50423 39.5989 8.14868 39.3971 7.9723 38.6965L2.037 16.5911C1.86202 15.8379 2.32957 15.3803 2.97769 15.3803H5.73536C6.49547 15.3803 6.90982 15.6361 7.0848 16.3893L10.8476 32.1636C11.2507 33.9727 11.3739 35.8301 11.5489 37.5383C11.8414 35.877 12.0752 33.9258 12.5484 32.2162L16.7199 16.341C16.8948 15.6887 17.4268 15.386 18.1337 15.386H21.5339C22.2352 15.386 22.8245 15.7413 23.0009 16.395L27.2298 32.2233C27.703 33.9315 27.9367 35.8429 28.1705 37.5454C28.4043 35.8841 28.6437 33.9329 28.9936 32.2233L32.4582 16.3481C32.5744 15.6958 33.1595 15.3931 33.8664 15.3931H36.4491C37.0973 15.3931 37.5648 15.7967 37.3898 16.5499L31.5105 38.6965Z" fill="#005CB9"/>
</g>
<defs>
<clipPath id="clip0_1_276">
<rect width="40" height="40" fill="white"/>
</clipPath>
</defs>
</svg>
