<svg width="280" height="299" fill="none" xmlns="http://www.w3.org/2000/svg"><path fill-rule="evenodd" clip-rule="evenodd" d="M151.22.252c-5.484.31-14.768 1.67-18.8 2.756-.88.237-2.32.623-3.2.858-3.284.877-8.442 2.485-9.66 3.01-.694.3-1.461.546-1.706.546-.245 0-.757.159-1.139.353-.382.195-1.145.542-1.695.773-3.493 1.466-4.623 1.979-8.4 3.814-2.31 1.123-5.328 2.72-6.707 3.55-1.38.83-2.611 1.51-2.738 1.51-.127 0-.71.335-1.293.743-.584.409-2.142 1.339-3.462 2.066-1.32.728-2.94 1.65-3.6 2.053-.66.402-1.47.852-1.8 1-.33.147-1.05.573-1.6.946-1.103.749-5.288 3.103-6.697 3.769-.493.232-.898.558-.9.723-.002.165-.231.3-.51.3-.28 0-1.134.423-1.9.939-1.267.854-2.372 1.488-7.993 4.584-.99.545-2.25 1.3-2.8 1.678-.55.377-2.08 1.28-3.4 2.008-4.44 2.447-5.584 3.099-9.733 5.55-2.273 1.342-4.212 2.44-4.31 2.44-.097 0-1.317.72-2.71 1.6-1.393.88-2.646 1.6-2.782 1.6-.137 0-1.234.63-2.438 1.4-1.204.77-2.291 1.4-2.416 1.4s-.988.484-1.92 1.074c-1.665 1.057-4.362 2.618-8.691 5.032-1.21.675-2.74 1.555-3.4 1.957-.66.402-1.47.857-1.8 1.01-.33.154-1.536.875-2.681 1.604-1.144.728-2.184 1.324-2.31 1.324-.126 0-1.37.72-2.762 1.6-1.393.88-2.646 1.6-2.782 1.6-.137 0-1.234.63-2.438 1.4-1.204.77-2.306 1.4-2.45 1.4-3.89 0-7.232 10.168-4.734 14.4.454.77 1.425 2.48 2.157 3.8.733 1.32 1.66 2.94 2.062 3.6.402.66.852 1.47 1 1.8.147.33.573 1.05.946 1.6s1.273 2.08 1.999 3.4c.726 1.32 1.516 2.753 1.756 3.185.24.431.662 1.029.937 1.328.275.299.5.708.5.908 0 .2.63 1.348 1.4 2.552.77 1.204 1.4 2.27 1.4 2.371 0 .1 1.05 1.953 2.335 4.119a316.817 316.817 0 0 1 3.664 6.337l1.764 3.185c.24.431.662 1.029.937 1.328.275.299.5.708.5.908 0 .2.63 1.348 1.4 2.552.77 1.204 1.4 2.296 1.4 2.427 0 .131.603 1.182 1.34 2.334.738 1.153 1.938 3.17 2.667 4.481a135.031 135.031 0 0 0 2.055 3.585c.402.66.857 1.465 1.012 1.789.154.325 1.973 3.475 4.042 7 2.069 3.526 4.313 7.401 4.986 8.611l1.66 2.985c.242.431.663 1.029.938 1.328.275.299.5.708.5.908 0 .2.63 1.348 1.4 2.552.77 1.204 1.4 2.27 1.4 2.371 0 .1 1.05 1.953 2.335 4.119a323.307 323.307 0 0 1 3.666 6.337c.732 1.32 1.659 2.94 2.06 3.6.403.66.858 1.47 1.01 1.8.155.33.876 1.536 1.605 2.681.728 1.144 1.324 2.184 1.324 2.31 0 .126.72 1.369 1.6 2.762.88 1.393 1.6 2.739 1.6 2.99 0 .251.159.457.353.457.195 0 .455.315.578.7.237.736 1.056 2.195 5.45 9.7 1.48 2.53 3.126 5.41 3.656 6.4.53.99 1.188 2.038 1.463 2.329.275.29.5.785.5 1.1 0 .314.159.571.353.571.195 0 .455.315.578.7.26.812 2.094 4.06 4.234 7.5.82 1.32 1.928 3.3 2.46 4.4 2.177 4.501 2.1 3.245 2.26 37.386.132 28.568.212 31.859.793 32.5.936 1.034 2.26.883 4.844-.552 1.253-.696 3.088-1.713 4.078-2.26.99-.547 1.89-1.112 2-1.255.11-.144.83-.574 1.6-.957.77-.382 1.94-1.018 2.6-1.413.66-.394 2.01-1.169 3-1.722.99-.553 2.7-1.556 3.8-2.23 3.284-2.012 6.354-3.726 7.1-3.966.385-.123.7-.383.7-.578 0-.194.257-.353.571-.353.315 0 .81-.232 1.1-.515.291-.284 1.159-.831 1.929-1.217.77-.386 1.94-1.024 2.6-1.419a196.783 196.783 0 0 1 6.2-3.498c.77-.413 1.49-.854 1.6-.98.11-.126.47-.353.8-.504.33-.15 1.14-.603 1.8-1.005.66-.402 2.28-1.325 3.6-2.053 1.32-.727 2.85-1.628 3.4-2.001.55-.373 1.27-.799 1.6-.946.33-.148 1.14-.598 1.8-1 1.03-.627 3.992-2.294 6.8-3.825.44-.241.89-.54 1-.666.11-.126.47-.353.8-.504.33-.15 1.14-.603 1.8-1.005 1.03-.627 3.992-2.294 6.8-3.825.44-.241.89-.545 1-.677.11-.132 1.28-.837 2.6-1.566a341.384 341.384 0 0 0 10.536-6.028c1.806-1.077 5.817-3.297 6.761-3.743.493-.232.898-.558.9-.723.002-.165.26-.3.574-.3.315 0 .817-.225 1.116-.5.299-.275.897-.696 1.328-.937.432-.24 1.865-1.03 3.185-1.756s2.85-1.626 3.4-1.999c.55-.373 1.27-.799 1.6-.946.33-.148 1.14-.598 1.8-1 1.069-.651 2.281-1.333 7.4-4.168.77-.426 1.67-.982 2-1.235.33-.252.96-.655 1.4-.896.44-.24 1.88-1.033 3.2-1.763 1.32-.73 2.76-1.523 3.2-1.763.44-.241.89-.54 1-.666.11-.126.47-.353.8-.504.33-.15 1.14-.602 1.8-1.004.66-.402 2.1-1.228 3.2-1.836 1.1-.609 2.284-1.359 2.631-1.667.348-.308.843-.56 1.1-.56.258 0 .469-.159.469-.353 0-.195.315-.468.7-.607 1.168-.422 4.491-2.622 5.629-3.727.29-.282.661-.513.824-.513.163 0 .645-.317 1.072-.704.426-.387 1.585-1.327 2.575-2.089.99-.763 1.89-1.481 2-1.597.11-.116.92-.819 1.8-1.562 4.28-3.613 10.877-10.407 14.804-15.248 1.517-1.87 2.902-3.46 3.077-3.533a.573.573 0 0 0 .319-.491c0-.196 1.06-1.846 2.356-3.666 1.295-1.821 2.69-3.941 3.1-4.712a33.347 33.347 0 0 1 1.561-2.6c.449-.659 1.169-1.918 1.6-2.798.431-.88.918-1.66 1.083-1.733.165-.074.3-.374.3-.668 0-.642 1.277-3.144 1.7-3.332.165-.074.3-.391.3-.706 0-.314.172-.884.382-1.266.899-1.632 2.818-6.196 2.818-6.699 0-.302.18-.66.4-.796.22-.136.4-.576.4-.978s.269-1.246.598-1.876c.328-.63.598-1.45.6-1.822.001-.372.182-.788.402-.924.22-.136.4-.617.4-1.07 0-.746.845-3.702 1.638-5.73.172-.44.406-1.43.52-2.2.114-.77.498-2.75.854-4.4.356-1.65.808-4.26 1.005-5.8.196-1.54.539-3.97.762-5.4.525-3.37.515-21.372-.013-25-.224-1.54-.569-3.97-.766-5.4-.678-4.926-1.196-7.645-1.597-8.395-.222-.414-.403-1.307-.403-1.984 0-.678-.155-1.544-.344-1.926-.614-1.242-1.656-4.781-1.656-5.625 0-.453-.18-.934-.4-1.07-.22-.136-.401-.552-.402-.924-.002-.372-.272-1.192-.6-1.822-.329-.63-.598-1.397-.598-1.705 0-.308-.154-.872-.341-1.254-.348-.71-1.03-2.242-2.265-5.095-1.449-3.345-3.565-7.657-4.462-9.092-.512-.821-.932-1.751-.932-2.067 0-.316-.141-.634-.313-.708-.173-.073-1.379-1.843-2.682-3.933s-2.48-3.89-2.616-4c-.136-.11-.351-.481-.477-.825-.189-.514-4.217-5.76-5.706-7.43-.223-.251-1.111-1.361-1.973-2.47-1.895-2.433-11.251-11.698-14.033-13.895-1.1-.87-2.09-1.686-2.2-1.815-1.053-1.235-13.554-9.565-14.355-9.565-.208 0-.438-.135-.512-.3-.142-.32-1.372-1.008-5.533-3.094-6.673-3.346-13.76-6.197-19.4-7.806-4.319-1.231-9.404-2.505-11.2-2.804-1.1-.184-3.71-.626-5.8-.983C170.982.068 161.014-.3 151.22.252Zm17.559 79.978c.462.186 1.921.648 3.241 1.026 11.871 3.405 23.274 14.783 26.527 26.466.26.935.698 2.465.973 3.4.699 2.376.675 15.111-.033 17.5l-1.182 4c-.357 1.21-.792 2.371-.967 2.58-.175.209-.318.689-.318 1.067 0 .377-.135.746-.3.82-.165.073-.657.853-1.093 1.733-3.236 6.533-10.051 13.271-17.607 17.408-1.32.723-3.027 1.737-3.793 2.253s-1.621.939-1.9.939c-.279 0-.507.159-.507.353 0 .195-.315.455-.7.578-.718.231-2.7 1.34-8.3 4.646a300.919 300.919 0 0 1-8.8 4.986c-.44.241-.89.539-1 .664-1.537 1.741-6.286 2.768-8.256 1.785-1.901-.949-2.416-1.658-6.246-8.612a79.542 79.542 0 0 0-1.901-3.2c-1.734-2.763-3.616-6.122-3.866-6.9-.123-.385-.383-.7-.578-.7-.194 0-.353-.257-.353-.571 0-.315-.225-.817-.5-1.116-.275-.299-.696-.897-.937-1.328l-1.765-3.185-2.104-3.8c-.426-.77-.982-1.67-1.235-2-.252-.33-.655-.96-.895-1.4-.24-.44-.885-1.61-1.434-2.6-.549-.99-1.595-2.88-2.324-4.2-.729-1.32-1.434-2.49-1.566-2.6-.132-.11-.436-.56-.677-1-2.18-3.995-3.177-5.748-3.755-6.6-.373-.55-.799-1.27-.946-1.6-.148-.33-.598-1.14-1-1.8-.627-1.03-2.294-3.992-3.825-6.8-.241-.44-.527-.89-.637-1-2.563-2.567-1.492-8.248 1.817-9.639.348-.146 4.299-2.427 6.922-3.995 1.766-1.056 5.803-3.292 6.758-3.743.493-.232.898-.558.9-.723.002-.165.26-.3.574-.3.315 0 .81-.232 1.1-.515.291-.284 1.159-.831 1.929-1.217.77-.386 1.94-1.024 2.6-1.42a196.783 196.783 0 0 1 6.2-3.497c.77-.413 1.49-.841 1.6-.951.504-.503 7.071-3.6 7.634-3.6.348 0 .761-.13.919-.286 1.665-1.665 18.217-2.665 21.606-1.306Z" fill="#5C44E4"/></svg>