<svg width="27" height="27" viewBox="0 0 27 27" fill="none" xmlns="http://www.w3.org/2000/svg">
<g clip-path="url(#clip0_7909_142)">
<path d="M3.09666 15.5267C1.69332 15.2467 0.32999 16.16 0.0499905 17.56C-0.23001 18.9633 0.683324 20.3267 2.08332 20.6067C3.48666 20.8867 4.84999 19.9733 5.12999 18.5733C5.40999 17.17 4.49666 15.8067 3.09666 15.5267Z" fill="#E89C2E"/>
<path d="M18.3366 18.56C16 18.0934 13.7266 19.6134 13.26 21.95C12.7966 24.2867 14.3133 26.56 16.65 27.0267C18.9866 27.49 21.26 25.9734 21.7266 23.6367C22.1933 21.3 20.6733 19.0267 18.3366 18.56Z" fill="#E89C2E"/>
<path d="M22.89 0.0999976C20.0833 -0.460002 17.3566 1.36 16.7933 4.16666L16.2933 6.70666C15.9233 8.58 14.1 9.79666 12.2266 9.42666L10.5333 9.08C8.66998 8.71 7.44998 6.89666 7.82331 5.02333L7.90998 4.6C8.22998 2.96666 7.16665 1.37 5.53665 1.05C3.89665 0.723331 2.30665 1.78333 1.97998 3.42333C1.65331 5.05666 2.72332 6.64333 4.35332 6.97333L4.77665 7.06C6.64998 7.43 7.86665 9.25333 7.48665 11.1167L7.32331 11.9633C6.95331 13.8367 8.16998 15.66 10.0333 16.03C11.9066 16.4 13.73 15.1833 14.1 13.31L14.2633 12.4633C14.6333 10.5967 16.4566 9.38 18.32 9.75333L20.8666 10.2633C23.6733 10.8167 26.4 8.99333 26.9533 6.18666C27.5133 3.38 25.6933 0.653331 22.8866 0.0999976H22.89Z" fill="#E89C2E"/>
</g>
<defs>
<clipPath id="clip0_7909_142">
<rect width="27" height="27" fill="white"/>
</clipPath>
</defs>
</svg>
