<svg width="142" height="181" viewBox="0 0 142 181" fill="none" xmlns="http://www.w3.org/2000/svg">
<path d="M120.509 3.83578C123.95 5.19378 121.143 20.6753 114.081 38.3296C107.11 55.9839 98.5997 69.202 95.0689 67.844C91.6286 66.486 94.4352 51.0045 101.497 33.3502C108.559 15.6054 117.069 2.47778 120.509 3.83578Z" fill="#9CD137"/>
<path d="M77.0524 0.0333529C80.8549 -0.781447 85.2005 13.4326 86.8302 31.7206C88.4598 50.0087 86.6491 65.5807 82.8467 66.3955C79.0442 67.2103 74.6986 52.9963 73.0689 34.7083C71.5298 16.4202 73.25 0.848153 77.0524 0.0333529Z" fill="#9CD137"/>
<path d="M35.678 21.8524C38.7562 19.0458 49.2582 28.2804 59.036 42.3133C68.8138 56.4367 74.2459 70.1075 71.1677 72.9141C68.0895 75.7207 57.5875 66.486 47.8097 52.4531C38.0319 38.3297 32.5998 24.659 35.678 21.8524Z" fill="#9CD137"/>
<path d="M7.34046 62.0498C8.87956 58.0663 22.6409 59.6959 38.0318 65.8523C53.4227 71.9181 64.5585 80.0663 62.9289 84.0498C61.2993 88.0333 47.6285 86.3132 32.2376 80.2473C16.9372 74.1815 5.71086 66.0333 7.34046 62.0498Z" fill="#9CD137"/>
<path d="M0.00721702 110.577C-0.354883 106.412 12.9537 100.165 29.7932 96.6341C46.6327 93.1032 60.4845 93.5559 60.8467 97.7205C61.2088 101.885 47.9002 108.132 31.0607 111.663C14.3117 115.194 0.369417 114.741 0.00721702 110.577Z" fill="#9CD137"/>
<path d="M15.3982 154.667C13.2254 151.498 22.5505 139.004 36.3118 126.692C50.0731 114.469 63.0196 107.136 65.1924 110.305C67.3652 113.474 58.0401 125.967 44.2788 138.28C30.5175 150.502 17.571 157.836 15.3982 154.667Z" fill="#9CD137"/>
<path d="M49.9825 181.194C46.5422 179.836 49.3488 164.354 56.4105 146.7C63.3817 129.046 71.892 115.828 75.4228 117.186C78.8631 118.544 76.0565 134.025 68.9948 151.679C61.9331 169.334 53.4228 182.552 49.9825 181.194Z" fill="#9CD137"/>
<path d="M121.143 100.889C118.88 102.247 116.073 103.153 113.357 103.153C107.02 103.153 105.571 99.2597 106.295 94.914C107.201 89.9346 110.822 85.77 117.431 85.77C119.513 85.77 122.501 86.3132 123.768 87.5807L121.143 100.889ZM141.875 62.8646H128.114L125.036 79.342C122.501 78.2556 119.332 77.6218 115.982 77.6218C102.764 77.6218 93.6203 85.8605 91.8096 96.0004C90.4516 103.968 95.2499 112.478 107.744 112.478C112.361 112.297 116.616 110.848 119.875 108.947L119.513 111.301H133.003L141.875 62.8646Z" fill="black"/>
</svg>
