<svg width="60" height="60" viewBox="0 0 60 60" fill="none" xmlns="http://www.w3.org/2000/svg">
<path d="M60 30.675C60 28.7 59.8212 26.825 59.5147 25H30.6514V36.275H47.1775C46.4368 39.975 44.2657 43.1 41.0473 45.225V52.725H50.9068C56.6795 47.5 60 39.8 60 30.675V30.675Z" fill="#4285F4"/>
<path d="M30.6512 60C38.9271 60 45.8492 57.3 50.9067 52.725L41.0472 45.225C38.2885 47.025 34.7892 48.125 30.6512 48.125C22.6564 48.125 15.8875 42.85 13.461 35.725H3.29492V43.45C8.32685 53.25 18.6717 60 30.6512 60V60Z" fill="#34A853"/>
<path d="M13.461 35.725C12.8225 33.925 12.4904 32 12.4904 30C12.4904 28 12.848 26.0751 13.461 24.275V16.55H3.29502C1.20051 20.6 0 25.15 0 30C0 34.85 1.20051 39.4 3.29502 43.45L13.461 35.725Z" fill="#FBBC05"/>
<path d="M30.6512 11.875C35.1723 11.875 39.2081 13.4 42.4009 16.375L51.1366 7.825C45.8492 2.975 38.9271 0 30.6512 0C18.6717 0 8.32685 6.75001 3.29492 16.55L13.461 24.275C15.8875 17.15 22.6564 11.875 30.6512 11.875V11.875Z" fill="#EA4335"/>
</svg>
