<svg width="32" height="26" viewBox="0 0 32 26" fill="none" xmlns="http://www.w3.org/2000/svg">
<g clip-path="url(#clip0_9_400)">
<path d="M16.0247 5.19922L17.698 8.90422V8.96922H17.1188C17.1188 9.03422 17.1188 9.09922 17.1188 9.16422C17.1188 9.35922 17.0544 9.48922 16.9901 9.68422C16.9257 9.74922 16.9257 9.81422 16.8614 9.87922C16.8614 9.87922 16.797 10.6592 16.797 12.1542C16.797 13.0642 16.8614 14.3642 16.9257 15.7942C18.6633 15.9242 20.2722 16.1192 21.7524 16.3792V10.1392H21.3019L22.396 7.66922L23.4901 10.1392H23.0396V16.6392C24.6485 16.9642 26 17.3542 27.2227 17.7442V12.2842H26.7722L27.8663 9.81422L28.9604 12.2842H28.5099V18.1992C29.9257 18.7192 31.0198 19.2392 31.6633 19.5642C32.6287 11.6992 30.8911 4.87422 30.8911 4.87422C23.0396 4.61422 16.0247 0.324219 16.0247 0.324219V5.19922Z" fill="#00709E"/>
<path d="M28.5742 19.5645V25.7394H29.3465H29.5396H29.9901H30.3762C30.6336 24.8944 30.8911 23.9844 31.0198 23.1395C31.2772 22.2945 31.4059 21.5795 31.4703 21.0595V20.9945C31.1485 20.6695 30.1188 20.1495 28.5742 19.5645Z" fill="#00709E"/>
<path d="M23.104 17.875V25.675H23.8763H25.2922H26.0644H27.3516V19.045C26.1288 18.655 24.713 18.265 23.104 17.875Z" fill="#00709E"/>
<path d="M21.817 25.6743V17.6143C20.3368 17.3543 18.7922 17.1593 17.1189 17.0293C17.1189 17.0293 17.2476 17.9393 17.2476 18.0693C17.5051 20.0843 18.0199 23.2043 18.5991 25.6743H21.2377H21.817Z" fill="#00709E"/>
<path d="M13.4505 25.6743C13.9653 23.2043 14.5445 20.0843 14.802 18.0693C14.802 17.9393 14.9307 17.0943 14.9307 17.0293C13.1931 17.1593 11.6485 17.3543 10.2327 17.6143V25.6743H10.8119H13.4505Z" fill="#00709E"/>
<path d="M3.41092 18.1342V12.2192H2.96042L4.05448 9.74922L5.14854 12.2192H4.69804V17.6792C5.92082 17.2892 7.33666 16.8992 8.88121 16.5742V10.0742H8.43072L9.52478 7.60422L10.6188 10.0742H10.1683V16.3142C11.6485 16.0542 13.2574 15.8592 14.9951 15.7292C15.1238 14.2992 15.1238 12.9342 15.1238 12.0892C15.1238 10.5942 15.0594 9.81422 15.0594 9.81422C14.9951 9.74922 14.9951 9.68422 14.9307 9.61922C14.8664 9.48922 14.802 9.29422 14.802 9.09922C14.802 9.03422 14.802 8.96922 14.802 8.90422H14.2228V8.83922L16.0248 5.19922V0.324219C16.0248 0.324219 9.00992 4.54922 1.09408 4.80922C1.09408 4.80922 -0.579183 11.6342 0.257451 19.4992C0.901015 19.1742 1.99507 18.7192 3.41092 18.1342Z" fill="#00709E"/>
<path d="M4.698 19.045V25.675H5.98513H6.7574H8.17324H8.94552V17.875C7.27225 18.265 5.85641 18.655 4.698 19.045Z" fill="#00709E"/>
<path d="M0.385986 20.93V20.995C0.450343 21.515 0.643412 22.23 0.836481 23.075C1.02955 23.92 1.22262 24.83 1.48005 25.675H1.86619H2.50975H3.28203V19.5C1.86619 20.15 0.836481 20.67 0.385986 20.93Z" fill="#00709E"/>
</g>
<defs>
<clipPath id="clip0_9_400">
<rect width="32" height="26" fill="white"/>
</clipPath>
</defs>
</svg>
