<svg width="189" height="206" fill="none" xmlns="http://www.w3.org/2000/svg"><path d="m119 95.7-41.3 13.5L42 125.1l-10 2.6a357.6 357.6 0 0 1-16.6 14.4c-2.6 2-6.2 5.7-8.2 8a35.7 35.7 0 0 0-6 10.3 17 17 0 0 0 2.4 15.4 54 54 0 0 0 22.5 17c5 2.2 13.5 5 19.9 6.6 10.5 2.6 31 5.6 42.2 6h5.4A195.1 195.1 0 0 0 112 159c1.6-6.9 2.8-16 3.8-26.8a136.7 136.7 0 0 0-1.4-31.2l-.2-1.2 5.7-1.6-1-2.6Zm-9.5 5.5c.4 0 1.4 9.6 1.7 15.7v2.1a176.4 176.4 0 0 1-18.8-11.8c-.3-.2-.3-.2 2.2-1.2a292 292 0 0 1 15-4.8Zm-21 7c.3 0 1 .4 2.7 1.4 6.5 4 15.2 9 19 10.5 1 .6 1.2.4-1.4 2.2A130.8 130.8 0 0 1 84.6 135a96.8 96.8 0 0 0 3.8-23.6c-.2-3.2-.2-3.2 0-3.2Zm-4.3 1.6a57.3 57.3 0 0 1-3 22.7 9.1 9.1 0 0 1-.8 2.2c-.1.2-4.4-4-5.8-5.7a40.8 40.8 0 0 1-7.5-12.5c.5-.4 17-6.8 17-6.7Zm-20.4 8a39.3 39.3 0 0 0 5.7 10.3 59.1 59.1 0 0 0 8.8 9.1c.2.2.2.2-4.8 2a383 383 0 0 1-19.7 7l-5.2 1.6c-.3.1-.2 0 .6-1.3a165.4 165.4 0 0 0 13.4-27.9c.1-.4.3-.6.7-.8h.5Zm-6.2 2.6-3 6.4a260.6 260.6 0 0 1-12.3 21.1c-.2.3-.2.3-.7-.8a26 26 0 0 1-2.1-16.6c.3-1.9.3-1.9 1.2-2.3 3.8-2 16.7-8 17-7.8Zm53.7 2.2v1.3c0 7-.8 16.5-1.9 23.4l-.4 2.3-2-.5a75.4 75.4 0 0 1-21.5-10.7l2.9-1.5a188.3 188.3 0 0 0 22.5-13.9l.4-.4ZM34 131.8c.1 0 .1.2-.1 1.3l-.3 3.4c-.2 4.5.5 7.9 2.8 12.5a80 80 0 0 1 1 2.3c-.1.2-20.8 6.3-27.2 8l-3.8 1c-.2.1-.2 0-.2-.5.7-4.6 4.2-10.5 9.1-15.6 3.3-3.4 5.8-5.4 10.2-8 3.2-1.5 8-4.3 8.5-4.4-.1 0-.1 0 0 0Zm48.5 8.7 1.7.9c6.6 3.9 16 7.5 23.8 9.3l.7.2-1 .5c-4.2 2.4-17.8 8-31.7 13.2l-4.4 1.6-.7.2 1.2-2.4c4-7.3 7.8-16.2 9.8-22.3l.6-1.2Zm-4.9 1.6-.5 1.5c-2.7 6.5-6.2 13.6-10.8 21.7l-2.1 3.7-2-1.2c-6.7-4.1-12.6-9-16.3-14l-.6-.6 3-.9a204.4 204.4 0 0 0 29.3-10.2Zm30.8 10.8c0 .7-1.5 7.1-2.9 11.7-1 3.9-2 7-3.7 12.4l-1.5 4.3-.4-.1c-9.2-1.7-17.6-4-25.3-7.2-2.2-1-5.3-2.2-5.5-2.4-.1-.1 1.8-1 4.1-2a424.8 424.8 0 0 0 35.2-16.7Zm-71 2.4L28 168.8l-5 7-2.9 4.2-1.3 2-1.5-1.1a53.2 53.2 0 0 1-5.8-6 26.3 26.3 0 0 1-5.2-10c-.3-1.5-.3-2.2 0-2.3.5-.1 8.8-2 16.6-4 4.3-1 9.3-2 11.1-2.6l3.4-.7Zm4 1.5 1 1.2a60 60 0 0 0 16.2 13 974.2 974.2 0 0 1-37.2 13.1l-.6-.4-.5-.4 1-1.3c2.9-4.2 6.6-9 14.5-18.5l5.6-6.7Zm24.8 17.8 3 1.1a108.3 108.3 0 0 0 29 6.7c.8 0 1.1 0 1 .2a509.5 509.5 0 0 1-43.2 13 139 139 0 0 1-4.7 1.4c-.3.1-1.4-.2-1.4-.3l1.7-2c4.5-5.4 8.9-11.4 12.7-17 1-1.9 1.9-3 1.9-3Zm-5.5.1-6 9.7-4.2 6.6c-.7 1-1.6 2.5-2 3.4l-1 1.7-.5-.1c-1.1-.3-9-3-11-3.9a69.3 69.3 0 0 1-12.6-6.8l9.5-2.5a597.9 597.9 0 0 0 27.8-8Zm38.7 9.1c.2.3-4.9 14.3-6.7 18.7-.4 1-.5 1.2-.9 1.2L79.7 202c-7.8-1.2-20.8-3.5-24-4.2l-.7-.2 4.6-1c10-2.3 14.7-3.5 19.6-5 6.1-1.8 12.1-4.1 18.3-7l2-.8Z" fill="url(#a)"/><path d="M76.4-.2c-.7-.1-11.7 3.8-18.9 6.7-9.6 3.9-17 7.7-21.7 11a15.9 15.9 0 0 0-4.1 4.1c-.2.3-.3.7-.3 1l4.2 4 10 3.2L69.2 34l27 4.6.2-2.4h-.2l-3.5-.5-.8-1.2c-3.6-6.4-7.7-14.5-10-20A94.9 94.9 0 0 1 77.2 2c-.5-2.1-.6-2.2-.9-2.2ZM76 1.3l.3 2a62 62 0 0 0 3 13c1.2 3.5 1.2 3.3-.1 2.9a353.2 353.2 0 0 0-30.8-5.3A156.1 156.1 0 0 1 76 1.3Zm-30 14 1.2.4c6.6 2.2 23.2 5.4 32.4 6.1l2 .2-2 1a171.7 171.7 0 0 0-14.7 8.2c-.1 0-.9 0-1.5-.2l-1.2-.2-3-3-11.5-11-1.7-1.5Zm-1.3 1 4.4 5.4 5.3 6.7 1 1.2c-.1.1-6.4-1.1-9.6-1.8-3.4-.9-4.9-1.2-6.9-1.9l-1.7-.5V25c0-2 2.6-5.2 7.1-8.4l.4-.4ZM82 23.6a118 118 0 0 0 5.8 11c.3.3.8.3-3.6-.4-10.5-1.7-14-2.2-14-2.4l.8-.5a65.5 65.5 0 0 0 11-7.7Z" fill="url(#b)"/><path d="M31.9 21.1s-.8 1.1 0 2.8c.4 1 1.6 2.2 3 3.4 0 0 13.8 13.5 15.5 15.5 7.6 8.9 11 17.6 11.3 29.5a47 47 0 0 1-5 22.4c-6.3 14.1-20 29.7-41 47l3-1c2-1.5 4.7-3 11-6.6 14.7-8 31.2-15.4 51.4-23 29.1-10.9 77-23.8 104.4-28l2.8-.4-.4-.7a73.5 73.5 0 0 0-28.3-27.2c-12.2-6.8-28-12.1-48-16.1-3.8-.7-12-2.2-18.8-3.2a2199.7 2199.7 0 0 1-46.3-7.8 75 75 0 0 1-8.3-2.3c-2.5-.7-5.6-1.6-6.3-4.3Zm8 7.9 1.3.4c1.2.4 2.7 1 4.5 1.3l4 1.1 3.5 1a247.8 247.8 0 0 1 5.1 16.8l-.8-1.2a66.6 66.6 0 0 0-16-18.2L39.9 29Zm15.4 4.2a448 448 0 0 0 22.5 4.3l1.8.4-.8.5-6.6 3.9a61.4 61.4 0 0 0-8.8 7L61.8 51l-.3-1.3a99 99 0 0 0-6.2-16.5c-.1 0-.1 0 0 0Zm26.8 5A55.8 55.8 0 0 1 84.8 56l-.2 2.7-.1.3-1.6-.5a1154.5 1154.5 0 0 0-18.2-5.4c0-.2 3.8-4 5.5-5.5a167 167 0 0 1 12-9.3Zm2.2.4a512 512 0 0 1 29.7 5.6c.2.1-.5.4-2.5 1.3a144.8 144.8 0 0 0-23.4 13l-.1-2c0-5.8-1.3-11.8-3.4-16.9l-.3-1Zm33.1 6.5c.1.1-.3 2.7-.7 4.1a79.6 79.6 0 0 1-9.2 20.2l-1.9-1c-3.5-2.2-7.7-4.2-12.1-6l-2.4-1A178 178 0 0 1 117.4 45Zm2.3.4a160.4 160.4 0 0 1 30 10.2l2.3 1-1.6.5a228 228 0 0 0-35.9 11.1l-1.7.7.6-1.6c3.4-7 5.5-14.4 6-20.7l.3-1.2Zm-56.4 13 6.8 1.7c3.6 1 11 3.4 11 3.6l-1.8 1.7c-4.1 3.3-8 7-12.7 11.5l-2.7 2.5V79c.7-5.2.5-12-.5-18.8v-1.8Zm91 .1a275.6 275.6 0 0 1-14.1 19.1L132 88.1l-2.3 2.8-1-1.2A64.8 64.8 0 0 0 113.8 74l-.6-.6 9.3-4a301 301 0 0 1 31.8-10.8Zm2.4.6A103.9 103.9 0 0 1 185 81.7l-3 .2a312 312 0 0 0-46 7.7l-2.2.5 2.7-2.7a79.4 79.4 0 0 0 20.3-28.2Zm-69.3 7 7.5 3.6 7.3 3.7-3.3 1.8c-5.8 3-10.8 5.7-16.1 8.9L80 85.8l.7-1.6a69 69 0 0 0 6.7-18Zm-4 1-1.7 6c-1.2 4-3.4 8.8-5.5 12.6l-1.6 2.9-.8 1.2-1.8-1.6c-2-2-3.7-3.2-5.8-4.3a6 6 0 0 1-1.5-1 143.4 143.4 0 0 1 18.7-15.9Zm24.7 10 1.5 1a116.6 116.6 0 0 1 16.7 13.3l.4.4-2.6.8a478.1 478.1 0 0 0-40.8 13c-.2 0-.3.2 2.8-2.7 8.2-7.6 15.6-16 21-24l1-1.8Zm-6.5 1.7-6.8 9.5A439.3 439.3 0 0 1 79.7 107l-.1-1.2c0-3.7-1-7.7-2.7-11.2-.7-1.4-.8-1.7-.7-2A275.1 275.1 0 0 1 101.6 79Zm-39.4 9.6 1.6.8c2 1.1 3.8 2.3 5.4 3.6l-1.9 1.5c-3 2.1-7.4 5.5-10 7.6-2.8 2.1-2.9 2.2-2.6 1.7A69 69 0 0 0 61.6 90c.2-.8.5-1.5.6-1.5Zm10.5 8.2c.2 0 .3.2 1.3 1.6 1.7 2.6 3.1 6.2 3.4 9l.1.7-4.3 1.6c-7.6 3-14.7 6-19.4 8l-5.2 2.5c-1.5.9-2.7 1.4-2.7 1.4l2.1-1.7a126.8 126.8 0 0 0 24.7-23ZM68 98a106 106 0 0 1-25.1 22.3c-1 .6-1.7 1-1.8 1.2-.3 0 0-.2 3.2-3.7 2-2.3 3.6-4 5.4-6.3 1.3-1.6 1.5-1.8 3.1-3 4.5-3.5 15-10.6 15.2-10.5Z" fill="url(#c)"/><defs><linearGradient id="a" x1="31.2" y1="185.1" x2="46.1" y2="176.3" gradientUnits="userSpaceOnUse"><stop stop-color="#909CA9"/><stop offset="1" stop-color="#EDEDEE"/></linearGradient><linearGradient id="b" x1="31.6" y1="19.2" x2="43.6" y2="19.2" gradientUnits="userSpaceOnUse"><stop stop-color="#939FAB"/><stop offset="1" stop-color="#DCDEE1"/></linearGradient><radialGradient id="c" cx="0" cy="0" r="1" gradientUnits="userSpaceOnUse" gradientTransform="rotate(-171.5 48.8 33.6) scale(15.4516 30.9108)"><stop stop-color="#EE352C"/><stop offset="1" stop-color="#A91D22"/></radialGradient></defs></svg>