<svg width="190" height="190" viewBox="0 0 190 190" fill="none" xmlns="http://www.w3.org/2000/svg">
<g clip-path="url(#clip0_7929_33664)">
<path d="M94.4672 1.46934e-05C91.4579 0.00132737 88.5055 0.820642 85.9259 2.37032C83.3464 3.92001 81.2365 6.14176 79.8222 8.79795C78.4078 11.4541 77.7421 14.4449 77.8962 17.4502C78.0503 20.4555 79.0185 23.3624 80.6972 25.86L87.7872 18.78C87.5528 18.0737 87.4346 17.3341 87.4372 16.59C87.4372 15.2055 87.8477 13.8522 88.6169 12.701C89.386 11.5499 90.4793 10.6527 91.7584 10.1229C93.0375 9.59304 94.4449 9.45442 95.8028 9.72452C97.1607 9.99461 98.4079 10.6613 99.3869 11.6403C100.366 12.6192 101.033 13.8665 101.303 15.2244C101.573 16.5822 101.434 17.9897 100.904 19.2688C100.374 20.5479 99.4773 21.6411 98.3261 22.4103C97.175 23.1795 95.8216 23.59 94.4372 23.59C93.6964 23.5916 92.9602 23.4735 92.2572 23.24L85.1772 30.32C87.3259 31.7774 89.7867 32.71 92.3616 33.043C94.9365 33.376 97.5536 33.1 100.002 32.2372C102.451 31.3744 104.663 29.9489 106.461 28.0753C108.258 26.2018 109.591 23.9326 110.351 21.4501C111.112 18.9677 111.279 16.3414 110.84 13.7825C110.401 11.2237 109.367 8.80361 107.822 6.71709C106.277 4.63057 104.263 2.93582 101.944 1.76917C99.6244 0.602527 97.0635 -0.00344051 94.4672 1.46934e-05Z" fill="#AECBFA"/>
<path d="M87.8671 48.3501C87.878 42.7459 86.0631 37.2908 82.6971 32.8101L73.4971 42.0001C74.8962 44.5589 75.4077 47.5093 74.9517 50.3898C74.4958 53.2702 73.0981 55.9184 70.9771 57.9201L75.9771 70.1401C79.623 67.792 82.6218 64.567 84.699 60.7603C86.7762 56.9535 87.8655 52.6866 87.8671 48.3501Z" fill="#5E97F6"/>
<path d="M62.1571 61.5399H61.9171C59.8601 61.5401 57.8314 61.0595 55.9931 60.1365C54.1547 59.2134 52.5575 57.8735 51.3289 56.2237C50.1003 54.5738 49.2743 52.6596 48.9169 50.6338C48.5594 48.608 48.6803 46.5268 49.27 44.556C49.8596 42.5853 50.9018 40.7796 52.3132 39.2831C53.7246 37.7866 55.4662 36.6407 57.3991 35.9368C59.332 35.2329 61.4026 34.9904 63.4458 35.2289C65.489 35.4673 67.4482 36.1799 69.1671 37.3099L78.2771 28.1999C75.053 25.586 71.2487 23.784 67.1837 22.9452C63.1188 22.1064 58.9119 22.2552 54.9164 23.3792C50.9209 24.5033 47.2535 26.5697 44.2221 29.4048C41.1908 32.24 38.884 35.7613 37.4956 39.6727C36.1072 43.5842 35.6777 47.7718 36.2431 51.8837C36.8085 55.9956 38.3524 59.9118 40.7451 63.3033C43.1377 66.6949 46.3093 69.4627 49.9934 71.3745C53.6775 73.2862 57.7666 74.286 61.9171 74.2899C63.6767 74.2908 65.432 74.1166 67.1571 73.7699L62.1571 61.5399Z" fill="#5E97F6"/>
<path d="M94.8171 72.1101C89.0592 72.1043 83.3315 72.9432 77.8171 74.6001L85.1071 92.4101C88.2805 91.6237 91.5379 91.2274 94.8071 91.2301C103.994 91.2328 112.895 94.4206 119.995 100.25C127.095 106.08 131.954 114.191 133.744 123.202C135.534 132.212 134.145 141.565 129.813 149.666C125.481 157.767 118.474 164.116 109.986 167.63C101.498 171.144 92.0543 171.607 83.2635 168.939C74.4728 166.271 66.879 160.638 61.7758 152.999C56.6727 145.36 54.376 136.188 55.277 127.045C56.178 117.903 60.221 109.356 66.7171 102.86C69.5123 100.074 72.7034 97.7149 76.1871 95.8601L68.9771 78.1001C55.9951 84.458 45.806 95.3701 40.3517 108.757C34.8973 122.144 34.5589 137.069 39.4009 150.69C44.243 164.31 53.927 175.673 66.6076 182.612C79.2881 189.552 94.0787 191.584 108.161 188.32C122.243 185.057 134.632 176.726 142.967 164.916C151.303 153.106 155.001 138.642 153.359 124.28C151.716 109.918 144.847 96.663 134.06 87.0401C123.273 77.4172 109.322 72.0994 94.8671 72.1001L94.8171 72.1101Z" fill="#4285F4"/>
</g>
<defs>
<clipPath id="clip0_7929_33664">
<rect width="190" height="190" fill="white"/>
</clipPath>
</defs>
</svg>
