<?xml version="1.0" encoding="utf-8"?>
<svg viewBox="58.8192 105.0458 381.8489 294.5101" xmlns="http://www.w3.org/2000/svg">
  <defs>
    <clipPath id="clip0_307_37">
      <rect width="58.5037" height="55" fill="white" transform="translate(12 0.924805)"/>
    </clipPath>
  </defs>
  <g clip-path="url(#clip0_307_37)" transform="matrix(6.529539108276367, 0, 0, 6.529539108276367, -19.5352783203125, 72.88909912109375)" style="">
    <path d="M64.7337 31.0703C64.0627 31.0428 63.3862 31.0703 62.7097 31.0703C59.9597 31.0703 59.9597 31.0703 60.0202 28.2763C60.1377 25.0451 59.5558 21.8266 58.3141 18.8412C57.0725 15.8557 55.2005 13.1737 52.8262 10.9788V10.9513L52.3312 10.5113C49.8582 8.3421 46.9397 6.74138 43.7812 5.82188C40.6227 4.90238 37.301 4.68645 34.0501 5.1893C30.7992 5.69215 27.698 6.90154 24.9649 8.73234C22.2318 10.5631 19.9333 12.9708 18.2312 15.7858L18.1927 15.8463C18.0772 16.0443 17.9562 16.2423 17.8462 16.4403C15.6558 20.314 14.6697 24.7526 15.0137 29.1893C15.0577 29.9263 15.5637 31.0153 14.0677 31.1198C12.7752 31.2078 11.8072 31.8513 12.0327 33.3198C12.2582 34.7883 13.3857 34.9698 14.6452 34.9698C16.5977 34.9313 18.5557 34.9698 20.5082 34.9698C21.7622 34.9698 22.6642 35.4758 22.7082 36.8013C22.7467 38.0003 21.9822 38.6658 20.7997 38.6823C19.3312 38.6823 18.3742 39.3588 18.4897 40.8383C18.6052 42.3178 19.8152 42.4883 21.0637 42.4553C24.5672 42.4278 28.0707 42.4223 31.5797 42.4553C32.8722 42.4553 33.8292 43.0053 33.7522 44.5068C33.6807 45.8763 32.7952 46.3108 31.5522 46.3053C29.3962 46.3053 27.2402 46.3053 25.0787 46.3053C23.7092 46.3053 22.3672 46.3768 22.3617 48.1753C22.3562 49.9738 23.7147 50.0343 25.0787 50.0288C32.3607 50.0288 39.6427 50.0288 46.9192 50.0288C50.0872 50.0288 53.2552 50.0288 56.4232 50.0288C57.7102 50.0288 58.7772 49.7923 58.8157 48.2578C58.8597 46.6078 57.7157 46.2778 56.3737 46.3108C55.8237 46.3108 55.2737 46.3108 54.7567 46.3108H45.0492C43.7787 46.3108 42.9372 45.7608 42.8987 44.4408C42.8602 43.1208 43.7347 42.5488 44.9667 42.4608C45.3682 42.4278 45.7752 42.4608 46.1767 42.4608C47.4087 42.4608 48.5582 42.3233 48.6572 40.7668C48.7672 39.1168 47.6672 38.7263 46.3032 38.7208C45.0602 38.6548 44.3397 37.9288 44.3397 36.8288C44.3397 35.5803 45.1592 34.9038 46.4737 34.9423C47.2822 34.9423 48.0962 34.9423 48.9047 34.9423C54.1627 34.9423 59.4207 34.9423 64.6787 34.9423C66.0042 34.9423 66.9557 34.5243 66.9997 33.0448C67.0437 31.5653 65.9987 31.1253 64.7337 31.0703Z" fill="#EB6D4A"/>
    <circle cx="63.9501" cy="40.562" r="1.85432" fill="#EB6D4A"/>
    <circle cx="68.6259" cy="40.562" r="1.85432" fill="#EB6D4A"/>
    <rect x="63.7603" y="38.7077" width="4.98122" height="3.70865" fill="#EB6D4A"/>
    <circle cx="53.0244" cy="40.562" r="1.85432" fill="#EB6D4A"/>
    <circle cx="57.7002" cy="40.562" r="1.85432" fill="#EB6D4A"/>
    <rect x="52.8346" y="38.7077" width="4.98122" height="3.70865" fill="#EB6D4A"/>
  </g>
</svg>