<svg width="40" height="40" viewBox="0 0 40 40" fill="none" xmlns="http://www.w3.org/2000/svg">
<g clip-path="url(#clip0_101_2)">
<path d="M20 40C8.97872 40 0 31.0638 0 20C0 8.97872 8.93617 0 20 0H34.9787C37.7447 0 39.9574 2.25531 39.9574 4.97872V19.9574C39.9574 31.0638 31.0213 40 20 40Z" fill="#08C7FB"/>
<path d="M19.7021 29.9149C19.9575 30.0851 20.2979 30.0426 20.4681 29.7872L26.766 21.0213L28.2128 18.9787C28.5532 18.5107 28.2128 17.8298 27.617 17.8298H24.8085H18.1702L20.5106 10.766C20.5958 10.5532 20.5106 10.2979 20.2979 10.1277C20.0426 9.95746 19.7021 10 19.5319 10.2553L13.2341 19.0213L11.7872 21.0638C11.4468 21.5319 11.7872 22.2128 12.383 22.2128H15.1915H21.8724L19.5319 29.2766C19.4043 29.4894 19.4894 29.7447 19.7021 29.9149Z" fill="white"/>
</g>
<defs>
<clipPath id="clip0_101_2">
<rect width="40" height="40" fill="white"/>
</clipPath>
</defs>
</svg>
