<svg width="210" height="210" viewBox="0 0 210 210" fill="none" xmlns="http://www.w3.org/2000/svg">
<path d="M138.1 98.2C138.1 86.5 147.6 77 159.3 77C171 77 180.5 86.5 180.5 98.2V148.5C180.5 156.5 187 163 195 163C203 163 209.5 156.5 209.5 148.5V98.2C209.5 70.5 187 48 159.3 48C145.3 48 132.7 53.7 123.6 63C132.6 72.1 138.1 84.5 138.1 98.2Z" fill="#20D1CC"/>
<path d="M109.2 98.2C109.2 84.5 114.7 72.1 123.7 63C114.6 53.8 102 48 88 48C74 48 61.4 53.7 52.3 63C61.2 72 66.7 84.4 66.8 98.1C66.9 86.4 76.4 77 88 77C99.7 77 109.2 86.5 109.2 98.2Z" fill="#05D0E0"/>
<path d="M138.1 148.5V98.2C138.1 84.5 132.6 72.1 123.6 63C114.7 72.1 109.1 84.5 109.1 98.2V148.5C109.1 152.5 110.7 156.1 113.3 158.7C115.9 161.3 119.5 162.9 123.5 162.9C131.6 163 138.1 156.5 138.1 148.5Z" fill="#01A9B2"/>
<path d="M16.5 48C8.5 48 2 54.5 2 62.5C2 70.5 8.5 77 16.5 77C28.2 77 37.7 86.5 37.7 98.1C37.7 84.4 43.2 72.1 52.2 63C43.1 53.8 30.5 48 16.5 48Z" fill="#0282C9"/>
<path d="M37.8 98.1V98.2V148.5C37.8 156.5 44.3 163 52.3 163C54.8 163 57.1 162.4 59.2 161.3C63.7 158.9 66.8 154.1 66.8 148.6V98.3V98.2C66.8 84.5 61.3 72.2 52.3 63.1C43.3 72 37.8 84.4 37.8 98.1Z" fill="#016BB1"/>
<path d="M16.5 77C24.5081 77 31 70.5081 31 62.5C31 54.4919 24.5081 48 16.5 48C8.49187 48 2 54.4919 2 62.5C2 70.5081 8.49187 77 16.5 77Z" fill="#06429E"/>
<path d="M52.2 163C60.2081 163 66.7 156.508 66.7 148.5C66.7 140.492 60.2081 134 52.2 134C44.1918 134 37.7 140.492 37.7 148.5C37.7 156.508 44.1918 163 52.2 163Z" fill="#01569A"/>
<path d="M123.6 163C131.608 163 138.1 156.508 138.1 148.5C138.1 140.492 131.608 134 123.6 134C115.592 134 109.1 140.492 109.1 148.5C109.1 156.508 115.592 163 123.6 163Z" fill="#008C9D"/>
<path d="M195.1 163C203.108 163 209.6 156.508 209.6 148.5C209.6 140.492 203.108 134 195.1 134C187.092 134 180.6 140.492 180.6 148.5C180.6 156.508 187.092 163 195.1 163Z" fill="#03ABA3"/>
</svg>
