<svg width="73" height="73" viewBox="0 0 73 73" fill="none" xmlns="http://www.w3.org/2000/svg">
<path d="M36.32 68C53.8164 68 68 53.8164 68 36.32C68 18.8236 53.8164 4.64001 36.32 4.64001C18.8236 4.64001 4.64001 18.8236 4.64001 36.32C4.64001 53.8164 18.8236 68 36.32 68Z" fill="url(#paint0_linear_1_35)"/>
<path fill-rule="evenodd" clip-rule="evenodd" d="M39.34 12.91C41.58 11.8 43.12 9.48 43.12 6.81C43.12 3.05 40.07 0 36.31 0C32.55 0 29.5 3.05 29.5 6.81C29.5 9.48 31.04 11.8 33.28 12.91V17.4H39.33V12.91H39.34Z" fill="#9DF3F9"/>
<path fill-rule="evenodd" clip-rule="evenodd" d="M33.29 59.73C31.05 60.84 29.51 63.16 29.51 65.83C29.51 69.59 32.56 72.64 36.32 72.64C40.08 72.64 43.13 69.59 43.13 65.83C43.13 63.16 41.59 60.84 39.35 59.73V55.24H33.3V59.73H33.29Z" fill="#82EBF1"/>
<path fill-rule="evenodd" clip-rule="evenodd" d="M12.91 33.3C11.8 31.06 9.48 29.52 6.81 29.52C3.05 29.52 0 32.57 0 36.33C0 40.09 3.05 43.14 6.81 43.14C9.48 43.14 11.8 41.6 12.91 39.36H17.4V33.31H12.91V33.3Z" fill="#9DF3F9"/>
<path d="M36.32 57.51C47.1834 57.51 55.99 48.7034 55.99 37.84C55.99 26.9765 47.1834 18.17 36.32 18.17C25.4566 18.17 16.65 26.9765 16.65 37.84C16.65 48.7034 25.4566 57.51 36.32 57.51Z" fill="black"/>
<path fill-rule="evenodd" clip-rule="evenodd" d="M44.88 40.86C43.63 44.39 40.27 46.91 36.32 46.91C31.3 46.91 27.24 42.84 27.24 37.83C27.24 32.82 31.31 28.75 36.32 28.75C40.27 28.75 43.64 31.28 44.88 34.8H60.53V40.85H44.88V40.86Z" fill="black"/>
<path d="M65.83 44.65C62.07 44.65 59.02 41.6 59.02 37.84C59.02 34.08 62.07 31.03 65.83 31.03C69.59 31.03 72.64 34.08 72.64 37.84C72.64 41.6 69.59 44.65 65.83 44.65Z" fill="black"/>
<path d="M36.32 56.28C47.1834 56.28 55.99 47.4734 55.99 36.61C55.99 25.7466 47.1834 16.94 36.32 16.94C25.4566 16.94 16.65 25.7466 16.65 36.61C16.65 47.4734 25.4566 56.28 36.32 56.28Z" fill="black"/>
<path fill-rule="evenodd" clip-rule="evenodd" d="M44.88 39.64C43.63 43.17 40.27 45.69 36.32 45.69C31.3 45.69 27.24 41.62 27.24 36.61C27.24 31.6 31.31 27.53 36.32 27.53C40.27 27.53 43.64 30.06 44.88 33.58H60.53V39.63H44.88V39.64Z" fill="black"/>
<path d="M65.83 43.42C62.07 43.42 59.02 40.37 59.02 36.61C59.02 32.85 62.07 29.8 65.83 29.8C69.59 29.8 72.64 32.85 72.64 36.61C72.64 40.37 69.59 43.42 65.83 43.42Z" fill="black"/>
<path d="M36.32 55.99C47.1834 55.99 55.99 47.1834 55.99 36.32C55.99 25.4566 47.1834 16.65 36.32 16.65C25.4566 16.65 16.65 25.4566 16.65 36.32C16.65 47.1834 25.4566 55.99 36.32 55.99Z" fill="url(#paint1_linear_1_35)"/>
<path fill-rule="evenodd" clip-rule="evenodd" d="M44.88 39.35C43.63 42.88 40.27 45.4 36.32 45.4C31.3 45.4 27.24 41.33 27.24 36.32C27.24 31.31 31.31 27.24 36.32 27.24C40.27 27.24 43.64 29.77 44.88 33.29H60.53V39.34H44.88V39.35Z" fill="url(#paint2_linear_1_35)"/>
<path d="M65.83 43.13C62.07 43.13 59.02 40.08 59.02 36.32C59.02 32.56 62.07 29.51 65.83 29.51C69.59 29.51 72.64 32.56 72.64 36.32C72.64 40.08 69.59 43.13 65.83 43.13Z" fill="url(#paint3_linear_1_35)"/>
<defs>
<linearGradient id="paint0_linear_1_35" x1="19.76" y1="12.03" x2="52.73" y2="60.41" gradientUnits="userSpaceOnUse">
<stop stop-color="#009CA8"/>
<stop offset="1" stop-color="#007D85"/>
</linearGradient>
<linearGradient id="paint1_linear_1_35" x1="25.78" y1="18.83" x2="51.8" y2="62.03" gradientUnits="userSpaceOnUse">
<stop stop-color="#36E3EE"/>
<stop offset="1" stop-color="#00B1BE"/>
</linearGradient>
<linearGradient id="paint2_linear_1_35" x1="23.34" y1="18.4" x2="56.71" y2="48.35" gradientUnits="userSpaceOnUse">
<stop stop-color="#D2F6F9"/>
<stop offset="1" stop-color="#82EBF1"/>
</linearGradient>
<linearGradient id="paint3_linear_1_35" x1="73.23" y1="38.95" x2="54.57" y2="32.32" gradientUnits="userSpaceOnUse">
<stop stop-color="#9AEEF3"/>
<stop offset="1" stop-color="#82EBF1"/>
</linearGradient>
</defs>
</svg>
