<svg width="63" height="60" viewBox="0 0 63 60" fill="none" xmlns="http://www.w3.org/2000/svg">
<g clip-path="url(#clip0_5221_2632)">
<path d="M43.637 19.3769L43.6554 42.3244C43.637 43.4534 42.6898 44.1095 41.5283 44.1095H36.6184C35.4443 44.1095 34.4913 45.0358 34.4913 46.1772V57.8909C34.4913 59.0309 35.4414 59.9572 36.6143 59.9586L59.9375 59.9959C61.1131 59.9973 62.069 59.0708 62.069 57.9281V46.4599C62.069 45.3184 61.116 44.3921 59.9417 44.3921H56.7494C55.5751 44.3921 54.6221 43.4659 54.6221 42.3244V27.4123C54.6221 26.2697 55.5751 25.3448 56.7509 25.3448H59.9402C61.116 25.3461 62.069 24.4212 62.069 23.2786V2.06768C62.069 0.926317 61.1174 0 59.9417 0H46.7145C45.9159 0 45.1843 0.4356 44.8198 1.12759L33.0859 23.4544L21.4951 1.13584C21.1334 0.439738 20.3989 0 19.5962 0H2.12725C0.953007 0 0 0.926317 0 2.06768V10.9932C0 12.1345 0.953007 13.0609 2.12725 13.0609H5.25147C6.42571 13.0609 7.37874 13.9872 7.37874 15.1285V30.6852C7.37874 31.8267 6.42571 32.753 5.25147 32.753H2.12725C0.953007 32.753 0 33.6792 0 34.8207V57.9323C0 59.0737 0.953007 60 2.12725 60H20.2117C21.3861 60 22.339 59.0737 22.339 57.9323V46.4599C22.339 45.3184 21.3861 44.3921 20.2117 44.3921H17.1088C15.9345 44.3921 14.9815 43.4659 14.9815 42.3244V21.5218L27.365 45.3608C27.8868 46.3657 29.3632 46.3713 29.8922 45.3691L43.637 19.3769Z" fill="#043F2E"/>
</g>
<defs>
<clipPath id="clip0_5221_2632">
<rect width="62.069" height="60" fill="white"/>
</clipPath>
</defs>
</svg>
