<svg width="30" height="30" viewBox="0 0 30 30" fill="none" xmlns="http://www.w3.org/2000/svg">
  <path fill-rule="evenodd" clip-rule="evenodd"
    d="M29.9466 14.9733C29.9466 23.2429 23.2428 29.9466 14.9733 29.9466C6.70377 29.9466 0 23.2429 0 14.9733C0 6.70378 6.70377 0 14.9733 0C23.2428 0 29.9466 6.70378 29.9466 14.9733ZM8.98127 20.8973H16.4024C16.5163 20.8973 16.5733 20.7552 16.5163 20.6558L10.5196 13.2266C10.4341 13.1272 10.2917 13.1698 10.2632 13.2834L8.82457 20.7126C8.81032 20.8121 8.88155 20.8973 8.98127 20.8973ZM8.84177 9.68311H16.2629C16.3626 9.68311 16.4338 9.76833 16.4196 9.86777L14.9809 17.297C14.9524 17.4107 14.81 17.4533 14.7245 17.3539L8.72781 9.91039C8.65658 9.82516 8.71356 9.68311 8.84177 9.68311ZM17.0174 9.79675C17.0316 9.73993 17.0886 9.68311 17.1598 9.68311H22.5013C22.5868 9.68311 22.6723 9.76834 22.658 9.85357L21.6609 14.6833C21.6467 14.7543 21.5897 14.7969 21.5185 14.7969H21.3619C18.7267 14.7969 16.6328 12.3678 17.0174 9.79675Z"
    fill="#3901F1" />
</svg>
