<svg width="127" height="121" viewBox="0 0 127 121" fill="none" xmlns="http://www.w3.org/2000/svg">
<g clip-path="url(#clip0_7912_269)">
<path d="M124.8 33.3999H119.3L120.4 27.8999C120.7 26.4999 119.7 25.2999 118.3 25.2999C116.9 25.2999 115.5 26.4999 115.2 27.8999L114.1 33.3999H108.6C107.2 33.3999 105.8 34.5999 105.5 35.9999C105.2 37.3999 106.2 38.5999 107.6 38.5999H113.1L112 44.0999C111.7 45.4999 112.7 46.6999 114.1 46.6999C115.5 46.6999 116.9 45.4999 117.2 44.0999L118.3 38.5999H123.8C125.2 38.5999 126.6 37.3999 126.9 35.9999C127.2 34.8999 126.5 33.6999 125.3 33.3999C125.2 33.4999 125 33.3999 124.8 33.3999ZM72.9 14.3999L69.3 15.4999C68.9 13.9999 68.3 12.5999 67.6 11.1999C65 6.29995 61.3 3.69995 56.8 3.69995C56.5 3.69995 56.2 3.69993 55.9 3.79993C55.8 3.59993 55.6 3.49993 55.5 3.29993C53.5 1.19993 51 0.199951 48 0.199951C42.1 0.399951 36.3 4.59995 31.6 12.0999C28.3 17.3999 25.7 23.9999 25 29.1999L13.5 32.7999C10.1 33.8999 10 33.9999 9.60003 37.1999C9.30003 39.5999 0.400024 108.3 0.400024 108.3L74.1 121V14.2999C73.5 14.2999 73.2 14.2999 72.9 14.3999ZM55.9 19.6999L43.5 23.5999C44.7 18.9999 47 14.3999 49.8 11.3999C50.8 10.2999 52.3 8.99993 54 8.29993C55.6 11.6999 55.9 16.3999 55.9 19.6999ZM47.9 4.19995C49.1 4.09995 50.4 4.49995 51.4 5.09995C49.7 5.99995 48.2 7.19995 46.9 8.59995C43.2 12.5999 40.3 18.7999 39.2 24.7999L28.9 27.9999C31 18.5999 38.8 4.49995 47.9 4.19995ZM36.5 57.7999C36.9 64.0999 53.4 65.3999 54.3 80.0999C55 91.6999 48.2 99.5999 38.3 100.2C26.4 101 19.9 93.9999 19.9 93.9999L22.4 83.2999C22.4 83.2999 29 88.2999 34.2 87.8999C37.6 87.6999 38.9 84.8999 38.7 82.8999C38.2 74.6999 24.8 75.1999 23.9 61.7999C23.2 50.4999 30.6 38.9999 47 37.9999C53.3 37.5999 56.5 39.1999 56.5 39.1999L52.8 53.1999C52.8 53.1999 48.6 51.2999 43.7 51.5999C36.5 52.0999 36.4 56.6999 36.5 57.7999ZM59.8 18.4999C59.8 15.4999 59.4 11.3999 58 7.79993C62.4 8.59993 64.6 13.6999 65.6 16.6999C65.5 16.6999 59.8 18.4999 59.8 18.4999ZM76.2 120.8L106.8 113.2C106.8 113.2 93.6 24.1999 93.6 23.5999C93.5 23.0999 93.1 22.6999 92.5 22.5999C92.1 22.5999 83.5 22.3999 83.5 22.3999C83.5 22.3999 78.3 17.2999 76.3 15.3999V120.8H76.2Z" fill="black"/>
</g>
<defs>
<clipPath id="clip0_7912_269">
<rect width="127" height="121" fill="white"/>
</clipPath>
</defs>
</svg>
