<svg width="36" height="35" viewBox="0 0 36 35" fill="none" xmlns="http://www.w3.org/2000/svg">
<path d="M35.15 19V1L17.5 27.5L0 1V19L9 34.18H26L35.15 19Z" fill="white"/>
<path d="M33.707 0C34.0064 0.0544436 34.3082 0.100881 34.6053 0.164932C35.1489 0.283427 35.3787 0.666133 35.1593 1.17614C34.9469 1.67895 34.6939 2.1636 34.4027 2.6253C29.475 10.2965 24.5388 17.9616 19.5941 25.6205C19.2365 26.1519 18.8347 26.6522 18.3931 27.1161C17.9127 27.6389 17.3387 27.6445 16.8615 27.1225C16.4059 26.6364 15.9913 26.1134 15.6221 25.5588C10.7115 17.9554 5.81052 10.3461 0.919135 2.73098C0.59968 2.23219 0.306645 1.71177 0 1.20096V0.640512L1.84147 0H33.707ZM0 19.0552C0.53803 18.8951 0.866293 19.1353 1.15452 19.5821C4.00267 23.9749 6.85829 28.3635 9.72138 32.7478C9.839 32.924 9.93826 33.1118 10.0176 33.3082C10.225 33.8439 10.0056 34.1777 9.42914 34.1825C7.68375 34.197 5.93675 34.2002 4.19055 34.201C3.71017 34.201 3.22978 34.1849 2.7494 34.1689C1.86389 34.1393 1.18255 33.7358 0.756605 32.968C0.51241 32.53 0.36189 32.0408 0.170536 31.5741C0.11209 31.4355 0.0568455 31.2898 0 31.1449V19.0552ZM34.7334 18.6853C35.0392 18.775 35.1457 18.9712 35.1489 19.2578C35.1617 20.4179 35.2002 21.5797 35.1978 22.7382C35.1922 25.4195 35.1833 28.1025 35.1385 30.7822C35.1297 31.2778 34.988 31.7854 34.8279 32.2658C34.4027 33.5244 33.5124 34.1761 32.1817 34.1874C30.1401 34.2098 28.0985 34.2026 26.0568 34.193C25.1641 34.189 24.9303 33.7494 25.4211 32.992C26.7158 30.9904 28.0248 28.9888 29.3307 26.9936C30.9421 24.5266 32.5554 22.0608 34.1705 19.5965C34.3683 19.2954 34.5476 18.9864 34.7334 18.6853Z" fill="#004C75"/>
</svg>
