<svg width="600" height="534" viewBox="0 0 600 534" fill="none" xmlns="http://www.w3.org/2000/svg">
<g clip-path="url(#clip0_7911_208)">
<path d="M130.493 506.755L7.61279 293.912C2.88834 285.729 0.401123 276.447 0.401123 266.998C0.401123 257.549 2.88834 248.266 7.61279 240.083L130.493 27.2453C135.218 19.0611 142.015 12.265 150.199 7.54008C158.383 2.81519 167.667 0.328032 177.117 0.328613H422.878C432.327 0.328853 441.61 2.8164 449.794 7.54125C457.977 12.2661 464.773 19.0618 469.498 27.2453L592.378 240.083C597.103 248.267 599.591 257.55 599.591 267C599.591 276.45 597.103 285.733 592.378 293.917L469.498 506.75C464.773 514.933 457.977 521.729 449.794 526.454C441.61 531.179 432.327 533.666 422.878 533.667H177.117C167.667 533.668 158.383 531.181 150.199 526.456C142.014 521.731 135.218 514.939 130.493 506.755Z" fill="url(#paint0_linear_7911_208)"/>
<mask id="mask0_7911_208" style="mask-type:luminance" maskUnits="userSpaceOnUse" x="0" y="0" width="600" height="534">
<path d="M130.498 506.755L7.61743 293.912C2.89298 285.729 0.405762 276.447 0.405762 266.998C0.405762 257.549 2.89298 248.266 7.61743 240.083L130.498 27.2453C135.222 19.0614 142.018 12.2655 150.201 7.54062C158.385 2.81573 167.668 0.328379 177.117 0.328613H422.878C432.328 0.328032 441.612 2.81519 449.797 7.54008C457.981 12.265 464.777 19.0611 469.502 27.2453L592.383 240.083C597.108 248.267 599.596 257.55 599.596 267C599.596 276.45 597.108 285.733 592.383 293.917L469.502 506.75C464.777 514.935 457.981 521.731 449.797 526.456C441.612 531.181 432.328 533.668 422.878 533.667H177.117C167.668 533.667 158.385 531.18 150.201 526.455C142.018 521.73 135.222 514.934 130.498 506.75V506.755Z" fill="white"/>
</mask>
<g mask="url(#mask0_7911_208)">
<path opacity="0.07" d="M231.246 219.603L198.431 252.324L226.316 280.215L198.707 329.255L407.65 538.203L458.282 538.212L557.162 360.623L400.591 204.038L231.246 219.603Z" fill="black"/>
</g>
<path d="M396.897 202.728H202.929C199.807 202.728 197.256 205.284 197.256 208.411V248.51C197.256 251.627 199.812 254.183 202.929 254.183H396.897C400.02 254.183 402.576 251.627 402.576 248.51V208.401C402.576 205.284 400.025 202.723 396.902 202.723M366.868 240.06C363.793 240.051 360.846 238.825 358.673 236.649C356.5 234.474 355.278 231.526 355.273 228.451C355.271 226.928 355.571 225.419 356.153 224.012C356.735 222.605 357.589 221.326 358.666 220.249C359.743 219.172 361.022 218.318 362.429 217.736C363.837 217.153 365.345 216.854 366.868 216.856C373.281 216.856 378.477 222.019 378.477 228.451C378.477 229.975 378.177 231.485 377.593 232.893C377.01 234.302 376.155 235.582 375.077 236.66C373.999 237.738 372.719 238.593 371.311 239.176C369.902 239.76 368.392 240.06 366.868 240.06ZM396.897 279.808L202.929 279.817C199.807 279.817 197.256 282.373 197.256 285.5V325.594C197.256 328.712 199.812 331.272 202.929 331.272H396.897C400.02 331.272 402.576 328.712 402.576 325.594V285.491C402.576 282.373 400.02 279.808 396.897 279.808ZM366.868 317.145C363.793 317.137 360.845 315.911 358.672 313.735C356.499 311.559 355.276 308.611 355.273 305.535C355.271 304.012 355.571 302.504 356.153 301.097C356.735 299.689 357.589 298.411 358.666 297.334C359.743 296.257 361.022 295.403 362.429 294.82C363.837 294.238 365.345 293.939 366.868 293.94C368.43 293.877 369.99 294.131 371.452 294.686C372.914 295.24 374.249 296.085 375.377 297.168C376.504 298.251 377.402 299.551 378.014 300.99C378.627 302.429 378.943 303.976 378.943 305.54C378.943 307.104 378.627 308.651 378.014 310.09C377.402 311.529 376.504 312.829 375.377 313.912C374.249 314.996 372.914 315.84 371.452 316.395C369.99 316.949 368.43 317.207 366.868 317.145Z" fill="white"/>
</g>
<defs>
<linearGradient id="paint0_linear_7911_208" x1="299.998" y1="0.333295" x2="299.998" y2="532.838" gradientUnits="userSpaceOnUse">
<stop stop-color="#4387FD"/>
<stop offset="1" stop-color="#4683EA"/>
</linearGradient>
<clipPath id="clip0_7911_208">
<rect width="600" height="534" fill="white"/>
</clipPath>
</defs>
</svg>
