<svg width="45" height="46" viewBox="0 0 45 46" fill="none" xmlns="http://www.w3.org/2000/svg">
<g clip-path="url(#clip0_4311_5134)">
<path d="M0 8.74683C0 4.08692 3.77759 0.309326 8.4375 0.309326H36.5625C41.2225 0.309326 45 4.08692 45 8.74683V36.8718C45 41.5318 41.2225 45.3093 36.5625 45.3093H8.4375C3.77759 45.3093 0 41.5318 0 36.8718V8.74683Z" fill="#FA0F00"/>
<path d="M34.8592 34.4591H29.557C29.3267 34.4633 29.1003 34.3989 28.9066 34.2741C28.7129 34.1492 28.5608 33.9697 28.4696 33.758L22.7133 20.2992C22.6983 20.2468 22.6669 20.2006 22.6234 20.1675C22.5802 20.1343 22.5273 20.1162 22.4728 20.1155C22.4183 20.1148 22.365 20.1317 22.3209 20.1635C22.2766 20.1955 22.2439 20.2408 22.2276 20.2928L18.6404 28.8381C18.6209 28.8843 18.6132 28.9348 18.6179 28.9847C18.6225 29.0346 18.6395 29.0826 18.6673 29.1244C18.6949 29.1661 18.7327 29.2004 18.7768 29.2241C18.8211 29.2478 18.8703 29.2603 18.9206 29.2603H22.8637C22.9831 29.2603 23.1 29.2955 23.1995 29.3614C23.2991 29.4273 23.377 29.5212 23.4236 29.6312L25.1499 33.4729C25.1956 33.5809 25.2141 33.6983 25.2034 33.8148C25.1927 33.9315 25.1533 34.0437 25.0886 34.1412C25.0239 34.239 24.9362 34.3191 24.833 34.3745C24.7298 34.4301 24.6147 34.4591 24.4974 34.4591H10.1427C10.0348 34.4585 9.92863 34.4311 9.83379 34.3794C9.73896 34.3279 9.65836 34.2536 9.59919 34.1634C9.54003 34.073 9.50413 33.9695 9.49469 33.8619C9.48525 33.7543 9.50258 33.6461 9.54512 33.5469L18.6759 11.8028C18.7693 11.5727 18.9298 11.376 19.1365 11.2385C19.3434 11.101 19.5868 11.0291 19.835 11.0321H25.1014C25.3498 11.0288 25.5934 11.1006 25.8003 11.2382C26.0072 11.3757 26.1677 11.5725 26.2609 11.8028L35.4548 33.5469C35.4973 33.6459 35.5147 33.754 35.5054 33.8614C35.4961 33.9688 35.4604 34.0723 35.4013 34.1625C35.3424 34.2529 35.2621 34.3272 35.1675 34.3789C35.073 34.4306 34.967 34.4582 34.8592 34.4591Z" fill="white"/>
</g>
<defs>
<clipPath id="clip0_4311_5134">
<rect width="45" height="45" fill="white" transform="translate(0 0.309326)"/>
</clipPath>
</defs>
</svg>
