<svg width="256" height="228" xmlns="http://www.w3.org/2000/svg" preserveAspectRatio="xMidYMid" version="1.1">
 <title>Google Search Console</title>
 <defs>
  <radialGradient id="gscRadialGradient-1" gradientTransform="translate(0.216598,0.287076),scale(0.740246,1.000000),rotate(36.502479),translate(-0.216598,-0.287076)" r="82.8696858%" fy="28.7075835%" fx="21.6597926%" cy="28.7075835%" cx="21.6597926%">
   <stop offset="0%" stop-color="#F1F2F2"/>
   <stop offset="100%" stop-color="#E6E7E8"/>
  </radialGradient>
 </defs>
 <g>
  <title>Layer 1</title>
  <g id="svg_1">
   <polygon id="svg_2" points="165.979466 0 90.0205339 0 71.0965092 19.0554415 71.0965092 37.9794661 90.0205339 37.9794661 90.0205339 19.0554415 165.979466 19.0554415 165.979466 37.9794661 184.903491 37.9794661 184.903491 19.0554415" fill="#737373"/>
   <polygon id="svg_3" points="90.020534 8.8817842e-15 90.020534 19.0554415 165.979466 19.0554415 165.979466 8.8817842e-15" fill="#BFBFBF"/>
   <path id="svg_4" fill="url(#gscRadialGradient-1)" d="m36.40246,37.97947l-36.40246,36.40246l0,134.17659c0,10.51335 8.54209,18.92403 18.92402,18.92403l218.15195,0c10.51335,0 18.92403,-8.5421 18.92403,-18.92403l0,-134.04517l-36.53388,-36.53388l-183.06366,0z"/>
   <polygon id="svg_5" points="28.5174538 109.075975 227.613963 109.075975 227.613963 227.613963 28.5174538 227.613963" fill="#FFFFFF"/>
   <polygon id="svg_6" points="36.4024641 37.979466 0 74.3819301 0 109.075975 256 109.075975 256 74.5133469 219.466119 37.979466" fill="#E0E0E0"/>
   <polygon id="svg_7" points="42.710472 213.289528 128 213.289528 128 227.482546 42.710472 227.482546" fill="#D1D1D1"/>
   <path id="svg_8" fill="#4285F4" d="m28.51745,86.99795c0,-8.14785 6.57085,-14.71869 14.71869,-14.71869l169.52772,0c8.14784,0 14.71869,6.57084 14.71869,14.71869l0,22.07802l-198.9651,0l0,-22.07802z"/>
   <path id="svg_9" fill="#E6E6E6" d="m56.90349,90.15195c0,3.94251 -3.154,7.09651 -7.09651,7.09651c-3.9425,0 -7.09651,-3.154 -7.09651,-7.09651c0,-3.9425 3.15401,-7.09651 7.09651,-7.09651c3.94251,0 7.09651,3.15401 7.09651,7.09651m23.65503,0c0,3.94251 -3.154,7.09651 -7.09651,7.09651c-3.9425,0 -7.09651,-3.154 -7.09651,-7.09651c0,-3.9425 3.15401,-7.09651 7.09651,-7.09651c3.94251,0 7.09651,3.15401 7.09651,7.09651"/>
   <path id="svg_10" fill="#BABABA" d="m227.48255,165.19097l-29.83163,-29.83163l-9.98768,30.88296l-40.73921,-40.6078l-1.18276,62.68583l15.11294,23.65503c2.23409,-0.39425 -11.30185,15.50719 -11.30185,15.50719l77.93019,0l0,-62.29158z"/>
   <path id="svg_11" fill="#4D4D4D" d="m208.82136,164.00821c0,-16.82135 -9.85627,-31.2772 -23.91787,-38.2423l0,39.95072l-18.79261,10.1191l-19.05544,-10.1191l0,-40.08213c-14.0616,6.96509 -23.65503,21.55236 -23.65503,38.2423c0,16.82135 9.72485,31.2772 23.78645,38.2423l0,25.36345l37.84805,0l0,-25.36345c13.93018,-6.83368 23.78645,-21.42095 23.78645,-38.11089"/>
   <polygon id="svg_12" points="42.710472 123.268994 109.075975 123.268994 109.075975 199.096509 42.710472 199.096509" fill="#D1D1D1"/>
  </g>
 </g>
</svg>
