<svg width="108" height="166" viewBox="0 0 108 166" fill="none" xmlns="http://www.w3.org/2000/svg">
<path d="M43.6 89.7C46.2 89.7 48.8 88.7 51.6 86.6C54.9 84.3 57.8 82.4 57.8 82.4L58.8 81.7L57.8 81C57.4 80.7 13.9 50.5 9.4 47.6C7.3 46.1 4.9 45.8 3 46.7C1.2 47.6 0.199997 49.5 0.199997 51.8V62.1L0.599998 62.3C0.899998 62.5 30.8 83.3 36.6 87.2C39 88.9 41.3 89.7 43.6 89.7Z" fill="#356AE6"/>
<path d="M101.9 71.6C99.3 69.7 6 4.60002 2 1.80002L0.699997 0.900024V16.9C0.699997 22 3.4 23.9 6.7 26.3C6.7 26.3 78.3 76.2 87.2 82.3C78.3 88.5 10.9 135.2 6.6 137.9C1.5 141.3 1 143.5 1 148.1V165.3C1 165.3 99.7 94.7 101.8 93.1C106.3 89.7 107.3 85.7 107.4 82.8V81C107.5 77.4 105.6 74.2 101.9 71.6Z" fill="#356AE6"/>
</svg>
