<svg width="192" height="192" viewBox="0 0 192 192" fill="none" xmlns="http://www.w3.org/2000/svg">
<g clip-path="url(#clip0)">
<path d="M83.5282 142.767C83.5282 151.027 81.0787 159.102 76.4896 165.97C71.9005 172.838 65.3778 178.191 57.7464 181.352C50.115 184.513 41.7177 185.34 33.6162 183.729C25.5148 182.118 18.0731 178.14 12.2322 172.299C6.3914 166.458 2.41373 159.017 0.802252 150.915C-0.809229 142.814 0.017881 134.416 3.17892 126.785C6.33995 119.153 11.693 112.631 18.5611 108.042C25.4291 103.453 33.5038 101.003 41.764 101.003C47.2485 101.003 52.6793 102.083 57.7464 104.182C62.8135 106.281 67.4175 109.357 71.2957 113.236C75.1739 117.114 78.2502 121.718 80.349 126.785C82.4479 131.852 83.5282 137.283 83.5282 142.767Z" fill="url(#paint0_radial)"/>
<path d="M95.9996 90.5284C87.7394 90.5284 79.6647 88.079 72.7967 83.4899C65.9286 78.9008 60.5755 72.3781 57.4145 64.7467C54.2535 57.1152 53.4264 48.7179 55.0378 40.6164C56.6493 32.515 60.627 25.0733 66.4678 19.2324C72.3087 13.3916 79.7504 9.41399 87.8518 7.80251C95.9533 6.19103 104.351 7.01807 111.982 10.1791C119.613 13.3401 126.136 18.6932 130.725 25.5613C135.314 32.4293 137.764 40.504 137.764 48.7642C137.764 59.8408 133.364 70.4636 125.531 78.296C117.699 86.1283 107.076 90.5284 95.9996 90.5284Z" fill="url(#paint1_radial)"/>
<path d="M191.999 142.767C191.999 151.027 189.55 159.102 184.961 165.97C180.372 172.838 173.849 178.191 166.218 181.352C158.586 184.513 150.189 185.34 142.087 183.729C133.986 182.118 126.544 178.14 120.703 172.299C114.863 166.458 110.885 159.017 109.273 150.915C107.662 142.814 108.489 134.416 111.65 126.785C114.811 119.153 120.164 112.631 127.032 108.042C133.9 103.453 141.975 101.003 150.235 101.003C161.312 101.003 171.935 105.403 179.767 113.236C187.599 121.068 191.999 131.691 191.999 142.767Z" fill="url(#paint2_radial)"/>
</g>
<defs>
<radialGradient id="paint0_radial" cx="0" cy="0" r="1" gradientUnits="userSpaceOnUse" gradientTransform="translate(100.742 129.319) scale(104.27)">
<stop stop-color="#FCB615"/>
<stop offset="0.6" stop-color="#EF5E8E"/>
<stop offset="1" stop-color="#F05756"/>
</radialGradient>
<radialGradient id="paint1_radial" cx="0" cy="0" r="1" gradientUnits="userSpaceOnUse" gradientTransform="translate(59082.1 -211787) scale(2223.53)">
<stop stop-color="#FCB615"/>
<stop offset="0.6" stop-color="#EF5E8E"/>
<stop offset="1" stop-color="#F05756"/>
</radialGradient>
<radialGradient id="paint2_radial" cx="0" cy="0" r="1" gradientUnits="userSpaceOnUse" gradientTransform="translate(59133.8 -211686) scale(2078.19)">
<stop stop-color="#FCB615"/>
<stop offset="0.6" stop-color="#EF5E8E"/>
<stop offset="1" stop-color="#F05756"/>
</radialGradient>
<clipPath id="clip0">
<rect width="192" height="192" fill="white"/>
</clipPath>
</defs>
</svg>
