<svg width="192" height="192" viewBox="0 0 192 192" fill="none" xmlns="http://www.w3.org/2000/svg">
<path d="M184.439 192H137.132C136.41 191.995 135.704 191.788 135.095 191.401C134.485 191.015 133.996 190.465 133.684 189.814L66.7982 49.9358H38.4932C37.4715 49.9358 36.4916 49.5299 35.7692 48.8075C35.0467 48.085 34.6409 47.1052 34.6409 46.0835V3.85233C34.6409 2.83063 35.0467 1.85077 35.7692 1.12832C36.4916 0.405866 37.4715 0 38.4932 0H97.5879C98.314 0.00205548 99.0247 0.209281 99.6382 0.597789C100.252 0.986298 100.743 1.54027 101.055 2.19583L167.614 142.064H184.439C185.46 142.064 186.44 142.47 187.163 143.193C187.885 143.915 188.291 144.895 188.291 145.917V188.148C188.291 189.169 187.885 190.149 187.163 190.872C186.44 191.594 185.46 192 184.439 192ZM139.559 184.295H180.596V149.759H165.187C164.462 149.758 163.751 149.552 163.138 149.166C162.525 148.779 162.033 148.227 161.72 147.573L95.1609 7.70465H42.3648V42.26H69.2444C69.9684 42.2603 70.6777 42.4647 71.291 42.8497C71.9042 43.2346 72.3965 43.7846 72.7115 44.4366L139.559 184.295Z" fill="url(#paint0_linear)"/>
<path d="M57.6585 192H7.80938C7.16713 191.993 6.53686 191.825 5.97591 191.512C5.41496 191.199 4.94114 190.751 4.59755 190.209C4.25395 189.666 4.0515 189.046 4.0086 188.405C3.9657 187.764 4.08372 187.123 4.35192 186.539L56.4932 77.2969C56.8061 76.6446 57.2963 76.0936 57.9078 75.707C58.5192 75.3204 59.2272 75.1137 59.9506 75.1107C60.662 75.1129 61.3589 75.312 61.9641 75.686C62.5693 76.0599 63.0591 76.5942 63.3792 77.2295L88.4193 128.803C88.6673 129.321 88.796 129.889 88.796 130.464C88.796 131.039 88.6673 131.606 88.4193 132.125L61.1256 189.804C60.8134 190.46 60.3222 191.014 59.7088 191.402C59.0954 191.791 58.3846 191.998 57.6585 192ZM13.9057 184.295H55.2315L80.7147 130.498L59.9988 87.7656L13.9057 184.295Z" fill="url(#paint1_linear)"/>
<defs>
<linearGradient id="paint0_linear" x1="2.8182" y1="231.764" x2="267.743" y2="19.7546" gradientUnits="userSpaceOnUse">
<stop stop-color="#C8511B"/>
<stop offset="1" stop-color="#FF9900"/>
</linearGradient>
<linearGradient id="paint1_linear" x1="-13.5622" y1="216.208" x2="143.579" y2="102.212" gradientUnits="userSpaceOnUse">
<stop stop-color="#C8511B"/>
<stop offset="1" stop-color="#FF9900"/>
</linearGradient>
</defs>
</svg>
