<svg width="47" height="47" viewBox="0 0 47 47" fill="none" xmlns="http://www.w3.org/2000/svg">
<g clip-path="url(#clip0_33_11)">
<path d="M23.8489 0.00806072H36.2559C38.6591 -0.0938885 41.0294 0.595735 43.0029 1.97106C44.5559 3.16871 45.7186 4.80023 46.3439 6.65906C47.0848 8.76547 47.3419 11.0117 47.0959 13.2311C46.963 14.0916 46.6531 14.9153 46.1859 15.6501C43.127 21.4213 38.8809 26.4795 33.7269 30.4921C31.4008 32.3262 28.7876 33.7632 25.9929 34.7451C23.9397 35.5193 21.7167 35.7292 19.5549 35.3531C18.5489 35.206 17.6064 34.7732 16.8392 34.1061C16.072 33.4391 15.5124 32.5658 15.2269 31.5901C14.9399 30.4399 14.7162 29.2748 14.5569 28.1001C14.4749 27.6451 14.6569 27.4571 15.1429 27.4091C16.9189 27.2271 18.7049 27.0781 20.4599 26.7621C23.4131 26.1888 26.2164 25.013 28.6949 23.3081C30.4486 22.2468 31.9449 20.8096 33.0759 19.1001C34.6969 16.4321 35.1099 13.6451 33.4049 10.8491C32.9578 10.1345 32.3671 9.52067 31.6702 9.04642C30.9734 8.57217 30.1856 8.24786 29.3569 8.09406C27.0564 7.56744 24.6658 7.57549 22.3689 8.1176C20.0721 8.6597 17.9301 9.72141 16.1079 11.2211C12.5277 13.8957 9.997 17.7394 8.95489 22.0851C8.81089 22.6851 8.71089 23.2951 8.53289 23.8851C8.48089 24.0581 8.19389 24.3141 8.07189 24.2851C5.94217 23.9173 3.93714 23.0263 2.23689 21.6921C1.80331 21.3177 1.391 20.9194 1.00189 20.4991C0.666673 20.155 0.405113 19.7461 0.23318 19.2976C0.0612461 18.849 -0.0174531 18.3701 0.00188739 17.8901C0.0828874 15.0671 -0.0451126 12.2361 0.0878874 9.41606C0.13347 7.57952 0.729088 5.79892 1.79769 4.30458C2.8663 2.81025 4.35871 1.67095 6.08189 1.03406C7.8761 0.317525 9.79519 -0.0339971 11.7269 6.07236e-05C15.7659 0.0330607 19.8089 0.00806072 23.8489 0.00806072Z" fill="#0084c7"/>
<path d="M47.0789 21.0171C47.1089 21.4171 47.1369 21.5931 47.1369 21.7711C47.1369 27.0771 47.2689 32.3861 47.0909 37.6851C46.9369 42.2721 44.3909 45.7411 39.4529 46.9591C38.0706 47.2753 36.6559 47.428 35.2379 47.4141C27.1079 47.4551 18.9769 47.4241 10.8469 47.4401C8.77451 47.5298 6.7199 47.0231 4.92689 45.98C3.0438 44.7627 1.62694 42.9452 0.905887 40.8221C0.219315 38.8497 -0.0834639 36.7642 0.0138874 34.678C0.0598874 30.978 0.0268874 27.2781 0.0268874 23.5781V22.6671C0.907887 23.3581 1.64489 23.9961 2.44189 24.5481C3.96859 25.6509 5.70115 26.4361 7.53689 26.8571C8.05489 26.9651 8.19289 27.1941 8.20589 27.6881C8.1799 29.871 8.63073 32.0334 9.52689 34.0241C10.222 35.595 11.3227 36.9526 12.7159 37.9575C14.1092 38.9624 15.7449 39.5784 17.4549 39.7421C19.853 40.0098 22.2803 39.8018 24.5979 39.1301C27.2596 38.3546 29.7996 37.2101 32.1439 35.73C36.7267 32.8244 40.7489 29.1172 44.0179 24.786C44.9809 23.572 45.9709 22.3791 47.0769 21.0201" fill="#0084c7"/>
<path d="M14.7299 24.6321C14.9299 23.6191 15.0429 22.8381 15.2399 22.0781C16.3059 17.9541 18.2209 14.3521 21.7979 11.8531C23.078 10.9369 24.6421 10.5055 26.2109 10.6361C26.8208 10.6773 27.3987 10.9237 27.8508 11.3351C28.3029 11.7465 28.6025 12.2988 28.7009 12.9021C29.2539 16.1281 27.8669 18.5601 25.5009 20.5511C23.3092 22.4155 20.6536 23.6516 17.8159 24.1281C16.8599 24.2911 15.9019 24.4411 14.7299 24.6281" fill="#0084c7"/>
</g>
<defs>
<clipPath id="clip0_33_11">
<rect width="47" height="47" fill="white"/>
</clipPath>
</defs>
</svg>
