<svg width="26" height="26" viewBox="0 0 26 26" fill="none" xmlns="http://www.w3.org/2000/svg">
<mask id="mask0_7910_188" style="mask-type:luminance" maskUnits="userSpaceOnUse" x="0" y="0" width="26" height="26">
<path d="M26 0H0V26H26V0Z" fill="white"/>
</mask>
<g mask="url(#mask0_7910_188)">
<path d="M12.9889 0H22.7491C23.6113 0 24.4381 0.342508 25.0478 0.952173C25.6575 1.56184 26 2.38873 26 3.25093V12.9889C26 16.4337 24.6315 19.7375 22.1956 22.1734C19.7598 24.6093 16.456 25.9777 13.0111 25.9777C11.3035 25.9807 9.61213 25.6468 8.03369 24.9954C6.45521 24.344 5.02072 23.3877 3.81223 22.1813C2.60373 20.9748 1.64499 19.542 0.990843 17.9646C0.336701 16.3873 -2.5091e-06 14.6965 0 12.9889C0 9.544 1.36847 6.24022 3.80437 3.80436C6.24022 1.36847 9.544 0 12.9889 0Z" fill="#E57300"/>
<path d="M12.709 7.22217C14.1521 7.22217 15.3066 8.37674 15.3066 9.81994C15.3066 11.2632 14.1521 12.4177 12.709 12.4177C11.2659 12.4177 10.1114 11.2632 10.1114 9.81994C10.0874 8.37674 11.2659 7.22217 12.709 7.22217Z" fill="white"/>
<path d="M7.22217 13.1602L11.5454 17.4463V19.8401H13.6611V17.4463L17.9844 13.1602H7.22217Z" fill="white"/>
</g>
</svg>
