<svg width="40" height="40" viewBox="0 0 40 40" fill="none" xmlns="http://www.w3.org/2000/svg">
<path fill-rule="evenodd" clip-rule="evenodd" d="M39.1245 7.0007C38.5104 7.02095 38.6881 7.29759 37.3589 7.62597C36.0161 7.9566 34.3922 7.75418 32.9482 8.36146C29.1696 9.94488 28.5578 16.0671 24.0572 18.4355C21.1063 20.1022 18.0969 20.4845 15.4069 21.328C13.2477 22.1939 11.9049 22.7674 10.3215 24.1327C9.09343 25.1921 8.79429 26.2199 7.51001 27.5492C6.20774 29.3193 1.27079 27.7471 0 29.9671C0.670255 30.4012 1.0571 30.5204 2.23342 30.3652C1.99051 30.8263 0.443082 31.4335 0.724229 32.1128C0.724229 32.1128 4.46462 32.7943 7.61797 30.8915C9.08893 30.2932 10.4677 29.0269 12.7528 28.7233C15.7128 28.3297 19.0483 29.344 22.6267 29.6297C21.8868 31.0917 21.1243 31.9553 20.3078 33.1609C20.0559 33.4331 20.5238 33.6737 21.3919 33.5095C22.9529 33.1227 24.0842 32.7043 25.2065 31.9284C26.6708 30.9185 27.3005 29.9941 28.5353 28.5298C29.6082 30.2505 33.3913 30.6283 34.1673 29.1416C32.7233 28.5298 32.4152 25.3473 32.91 23.973C33.4948 22.664 33.9154 20.8129 34.3877 19.0923C34.8128 17.5426 35.0759 15.1787 35.5843 13.9687C36.1915 12.464 37.3724 11.9939 38.2585 11.1954C39.1447 10.397 40.0264 9.73121 39.9994 7.90487C39.9904 7.31109 39.6845 6.98271 39.1245 7.0007V7.0007Z" fill="#1F305F"/>
<path d="M1.12908 31.7979C3.44798 31.8676 4.07776 31.8069 5.91084 31.0107C7.46952 30.3337 9.55448 28.5096 11.3966 27.9203C14.1001 27.0521 16.9993 27.1826 19.876 27.5222C20.8386 27.6369 21.8058 27.7966 22.4963 27.7224C23.5736 27.0611 23.6254 25.2663 24.2934 25.1223C24.1112 28.5951 22.6222 30.8173 21.1333 32.8325C24.2709 32.2792 26.3671 30.3202 27.6357 27.8956C28.0203 27.1601 28.659 25.9568 28.9514 25.1291C29.1831 25.6779 28.65 26.0265 28.8997 26.6248C30.9195 24.9581 31.8731 23.0598 32.6918 20.2799C33.641 17.0635 34.6149 14.2993 35.2266 13.3479C35.8227 12.419 36.7516 11.8454 37.5995 11.2516C38.5621 10.5746 39.4236 9.87065 39.572 8.58187C38.5554 8.4874 38.3215 8.25349 38.1708 7.74068C37.6625 8.02632 37.1947 8.0893 36.6661 8.10504C36.2073 8.11854 35.7035 8.0983 35.0872 8.16127C29.9973 8.68308 29.7611 13.6583 26.0612 17.3109C25.8228 17.5426 25.4157 17.8845 25.1458 18.0869C24.0032 18.9393 22.7797 19.4072 21.4909 19.8997C19.4036 20.696 17.4244 20.9276 15.4676 21.6159C14.0304 22.1197 12.6943 22.6977 11.5135 23.5052C11.2189 23.7076 10.8185 24.0675 10.5621 24.2766C9.86938 24.8434 9.41506 25.471 8.97422 26.1187C8.51988 26.7845 8.08353 27.4705 7.41552 28.125C6.33367 29.1866 2.29415 28.4354 0.870418 29.4205C0.712976 29.5307 0.584767 29.6612 0.499298 29.8186C1.27526 30.1717 1.79482 29.9558 2.68775 30.0525C2.79795 30.905 0.838935 31.4088 1.12908 31.7979Z" fill="#C0765A"/>
<path fill-rule="evenodd" clip-rule="evenodd" d="M33.3913 10.2665C34.111 10.8918 35.6225 10.3902 35.3526 9.14642C34.2325 9.05195 33.5847 9.43206 33.3913 10.2665V10.2665Z" fill="#1F305F"/>
<path d="M38.4137 8.81129C38.2226 9.2139 37.8559 9.73121 37.8559 10.7546C37.8537 10.93 37.7232 11.0515 37.721 10.7793C37.73 9.77844 37.9954 9.3466 38.2765 8.7798C38.4047 8.54814 38.4835 8.6426 38.4137 8.81129Z" fill="#1F305F"/>
<path d="M38.2203 8.6606C37.9931 9.04296 37.4488 9.74246 37.3611 10.7636C37.3454 10.939 37.2014 11.047 37.2239 10.7771C37.3229 9.78294 37.757 9.15992 38.0876 8.61787C38.236 8.39745 38.3057 8.49866 38.2203 8.6606Z" fill="#1F305F"/>
<path d="M38.0449 8.46042C37.7862 8.82254 36.9495 9.66373 36.7741 10.6714C36.7426 10.8445 36.5919 10.939 36.6369 10.6736C36.8191 9.69072 37.541 8.917 37.9144 8.40644C38.0808 8.19727 38.1438 8.30523 38.0449 8.46042Z" fill="#1F305F"/>
<path d="M37.8874 8.23551C37.5815 8.55939 36.5829 9.63 36.268 10.6039C36.2118 10.7703 36.0499 10.8446 36.1308 10.5859C36.448 9.63675 37.3229 8.61562 37.766 8.16354C37.9617 7.98135 38.0066 8.09831 37.8874 8.23551Z" fill="#1F305F"/>
</svg>
