<svg width="60" height="60" viewBox="0 0 60 60" fill="none" xmlns="http://www.w3.org/2000/svg">
<path fill-rule="evenodd" clip-rule="evenodd" d="M37.3234 0.0619999C37.0173 0.0907108 35.6857 0.194187 34.3644 0.29198C33.0432 0.389773 31.2634 0.52243 30.4094 0.586707C29.5554 0.650984 27.4196 0.809187 25.6633 0.938387C23.9069 1.06753 22.1271 1.19872 21.7082 1.23001C20.0292 1.35516 19.295 1.4093 17.7238 1.52356C16.8215 1.58919 15.1999 1.70866 14.1203 1.78899C10.9341 2.02624 10.6415 2.04798 9.82831 2.10815C9.40134 2.13973 8.49823 2.206 7.82148 2.2554C4.01745 2.53313 3.32927 2.59196 2.93429 2.67317C1.45708 2.97692 0.570324 3.79108 0.134094 5.24409C0.0334881 5.57919 0.0278045 6.49032 0.0132147 24.6679C-0.000496242 41.7164 0.0075311 43.7919 0.089035 44.2272C0.257726 45.1289 0.675851 46.0858 1.34652 47.1052C1.64833 47.5638 5.44831 52.5438 8.72669 56.7771C9.16339 57.341 9.63366 57.9523 9.77177 58.1356C10.1493 58.6366 10.8398 59.2519 11.2899 59.4884C11.9864 59.8545 12.4328 59.9503 13.593 59.9831C14.551 60.0102 15.4255 59.9698 19.6281 59.7046C20.1599 59.6711 27.9968 59.1965 37.0434 58.6499C46.0901 58.1034 53.6839 57.6294 53.9184 57.5964C55.7418 57.3408 56.8445 56.5055 57.2434 55.0781C57.3109 54.8364 57.391 54.309 57.4212 53.9062C57.4964 52.906 57.4949 12.5372 57.4196 11.9576C57.2831 10.9058 57.1321 10.7618 53.466 8.18637C52.4992 7.50721 49.999 5.74167 47.91 4.26288C45.8209 2.78409 43.8698 1.41516 43.574 1.22075C42.8436 0.740691 42.0577 0.372781 41.3771 0.192312C40.8512 0.0528593 40.7026 0.0406718 39.3449 0.0258476C38.5393 0.0169999 37.6296 0.033289 37.3234 0.0619999ZM38.6711 3.38421C38.3186 3.39821 34.4203 3.67477 32.6652 3.8103C32.2463 3.84264 30.6379 3.96048 29.091 4.07216C27.5441 4.18384 25.738 4.31509 25.0773 4.36389C24.4167 4.41264 22.7951 4.53153 21.4738 4.62803C20.1525 4.72454 18.5441 4.84313 17.8996 4.89153C17.2551 4.93993 14.3415 5.15221 11.425 5.36321C8.06007 5.60667 6.01128 5.77829 5.81857 5.8329C5.38427 5.95589 5.15511 6.16466 5.15675 6.43583C5.15745 6.55384 5.20362 6.70841 5.25929 6.77942C5.42786 6.99434 10.4288 10.9474 10.8563 11.2035C11.7982 11.7681 12.5239 11.8869 14.3795 11.7805C15.0587 11.7415 23.1493 11.2555 32.3587 10.7003C50.6424 9.59819 49.3878 9.69962 49.1992 9.33827C49.1508 9.24563 49.0364 9.10067 48.9449 9.01606C48.8123 8.89343 45.9019 6.76975 42.9533 4.64397C41.6313 3.69089 40.3606 3.31712 38.6711 3.38421ZM43.7101 14.1245C35.138 14.6349 26.3513 15.1507 18.8371 15.5845C16.0978 15.7426 13.6776 15.9001 13.4587 15.9343C12.5689 16.0734 12.1216 16.5019 11.9553 17.3745C11.9061 17.6327 11.8932 22.4576 11.9058 35.7714L11.923 53.8183L12.0628 54.1651C12.41 55.0267 13.1668 55.4295 14.4387 55.4297C15.1752 55.4298 51.3163 53.3258 51.6789 53.2617C51.8561 53.2304 52.1714 53.1187 52.3794 53.0135C52.8119 52.7948 53.0611 52.5084 53.2707 51.9891L53.4074 51.6503V33.3105V14.9707L53.2688 14.627C53.0043 13.9709 52.488 13.6437 51.7415 13.659C51.5621 13.6627 47.9479 13.8721 43.7101 14.1245ZM43.2121 20.3345C39.2726 20.569 39.0824 20.592 38.6104 20.8899C38.2971 21.0877 37.9312 21.5308 37.8259 21.8398C37.7751 21.9888 37.7336 22.2854 37.7336 22.499V22.8873L39.2424 23.0598L40.7512 23.2324L40.766 31.2578C40.7788 38.1272 40.7691 39.2709 40.6991 39.1973C40.6541 39.15 37.9863 35.0771 34.7707 30.1464C31.5551 25.2158 28.9162 21.1713 28.9066 21.1587C28.8829 21.1279 20.7715 21.6666 20.2108 21.7363C19.9673 21.7665 19.644 21.8444 19.4925 21.9094C19.1176 22.07 18.6851 22.489 18.4965 22.8741C18.2976 23.2804 18.1799 23.9359 18.2573 24.2063L18.314 24.4042L19.7474 24.5214L21.1809 24.6386L21.1956 36.1277L21.2104 47.6168L20.1702 47.9004C19.5982 48.0563 19.0327 48.2319 18.9137 48.2906C18.4944 48.4974 18.2219 49.0282 18.2219 49.6381C18.2219 49.9054 18.2438 49.9925 18.3184 50.0211C18.3715 50.0415 18.9714 50.0262 19.6514 49.9872C21.2831 49.8934 24.4688 49.7078 25.8976 49.6233C27.5469 49.5257 28.0789 49.3674 28.639 48.8073C28.9227 48.5236 29.177 48.0224 29.1953 47.7107L29.2082 47.4919L27.4064 47.083L25.6047 46.674L25.6066 38C25.6082 30.2242 25.6176 29.3382 25.6976 29.4433C25.7465 29.5078 28.3077 33.5288 31.3891 38.3789C34.4704 43.229 37.1602 47.4082 37.3666 47.666C38.0273 48.4918 38.5984 49.0292 39.0519 49.2519C39.5629 49.5027 39.9195 49.5703 40.7324 49.5703C41.763 49.5703 42.6884 49.3288 44.0617 48.7016L44.7941 48.367L44.8234 35.5107L44.8527 22.6543L45.9241 22.4361C47.151 22.1862 47.3208 22.0989 47.5538 21.5986C47.6668 21.3558 47.6935 21.2022 47.6939 20.7909C47.6943 20.5115 47.6785 20.2413 47.659 20.1903C47.6127 20.0697 47.718 20.0662 43.2121 20.3345Z" fill="#040404"/>
<path fill-rule="evenodd" clip-rule="evenodd" d="M38.6725 3.38431C38.3201 3.39831 34.4218 3.67487 32.6667 3.8104C32.2477 3.84274 30.6393 3.96058 29.0925 4.07226C27.5456 4.18394 25.7394 4.31519 25.0788 4.36399C24.4182 4.41274 22.7966 4.53163 21.4753 4.62813C20.154 4.72464 18.5456 4.84323 17.9011 4.89163C17.2565 4.94003 14.343 5.15231 11.4265 5.36331C8.06153 5.60677 6.01274 5.77839 5.82003 5.833C5.38573 5.95599 5.15657 6.16476 5.15821 6.43593C5.15891 6.55393 5.20509 6.70851 5.26075 6.77952C5.42933 6.99444 10.4303 10.9475 10.8577 11.2036C11.7996 11.7682 12.5253 11.887 14.381 11.7806C15.0602 11.7416 23.1508 11.2556 32.3601 10.7004C50.6439 9.59829 49.3893 9.69972 49.2006 9.33837C49.1523 9.24573 49.0378 9.10077 48.9463 9.01616C48.8137 8.89352 45.9034 6.76985 42.9548 4.64407C41.6328 3.69099 40.362 3.31722 38.6725 3.38431ZM43.7116 14.1246C35.1395 14.635 26.3528 15.1508 18.8386 15.5846C16.0993 15.7427 13.679 15.9002 13.4602 15.9344C12.5703 16.0735 12.123 16.502 11.9568 17.3746C11.9076 17.6328 11.8946 22.4577 11.9073 35.7715L11.9245 53.8184L12.0642 54.1652C12.4114 55.0268 13.1683 55.4296 14.4402 55.4298C15.1767 55.4299 51.3177 53.3259 51.6804 53.2618C51.8576 53.2305 52.1728 53.1188 52.3809 53.0136C52.8133 52.7949 53.0625 52.5085 53.2721 51.9892L53.4089 51.6504V33.3106V14.9708L53.2703 14.6271C53.0058 13.971 52.4895 13.6438 51.7429 13.6591C51.5635 13.6628 47.9494 13.8722 43.7116 14.1246ZM43.2136 20.3346C39.2741 20.5691 39.0839 20.5921 38.6119 20.89C38.2986 21.0878 37.9326 21.5309 37.8273 21.8399C37.7766 21.9889 37.735 22.2855 37.735 22.4991V22.8874L39.2438 23.0599L40.7526 23.2325L40.7675 31.2579C40.7802 38.1273 40.7706 39.271 40.7005 39.1974C40.6556 39.1501 37.9878 35.0772 34.7721 30.1465C31.5565 25.2159 28.9177 21.1714 28.908 21.1588C28.8843 21.128 20.7729 21.6667 20.2122 21.7364C19.9687 21.7666 19.6455 21.8445 19.4939 21.9095C19.1191 22.0701 18.6866 22.4891 18.498 22.8742C18.299 23.2805 18.1813 23.936 18.2587 24.2064L18.3154 24.4043L19.7489 24.5215L21.1823 24.6387L21.1971 36.1278L21.2119 47.6169L20.1717 47.9005C19.5996 48.0564 19.0342 48.232 18.9152 48.2907C18.4958 48.4975 18.2233 49.0283 18.2233 49.6381C18.2233 49.9055 18.2453 49.9926 18.3199 50.0212C18.373 50.0416 18.9729 50.0263 19.6529 49.9873C21.2846 49.8935 24.4703 49.7079 25.8991 49.6234C27.5484 49.5258 28.0804 49.3674 28.6404 48.8074C28.9242 48.5237 29.1784 48.0225 29.1968 47.7108L29.2097 47.492L27.4079 47.0831L25.6061 46.6741L25.608 38.0001C25.6097 30.2243 25.6191 29.3383 25.699 29.4434C25.748 29.5079 28.3092 33.5289 31.3905 38.379C34.4718 43.229 37.1617 47.4082 37.368 47.6661C38.0288 48.4919 38.5999 49.0293 39.0534 49.252C39.5643 49.5028 39.9209 49.5704 40.7338 49.5704C41.7644 49.5704 42.6899 49.3289 44.0632 48.7016L44.7956 48.3671L44.8249 35.5108L44.8542 22.6544L45.9255 22.4362C47.1525 22.1863 47.3223 22.099 47.5552 21.5987C47.6683 21.3559 47.6949 21.2023 47.6954 20.791C47.6958 20.5116 47.68 20.2414 47.6604 20.1904C47.6141 20.0698 47.7195 20.0663 43.2136 20.3346Z" fill="#FBFBFB"/>
</svg>
