<svg width="79" height="98" viewBox="0 0 79 98" xmlns="http://www.w3.org/2000/svg">
<path fill="#893999" d="M38.0798 0.0190006L35.5198 0.250999C33.8087 0.388886 32.1105 0.656321 30.4398 1.051C19.2838 3.359 11.8158 10.651 9.27582 21.695C9.1238 22.3772 8.96246 23.0572 8.79182 23.735C8.75582 23.847 7.70782 23.935 4.31582 23.935C1.34782 23.935 -0.0841793 23.987 0.00382066 24.099C0.0918207 24.211 1.05182 25.063 2.21182 26.039C3.37182 27.015 4.71582 28.163 5.19982 28.579C5.68382 28.995 6.66782 29.831 7.38382 30.435C10.7238 33.235 12.6478 34.891 12.7198 34.975C12.7918 35.059 13.4838 35.635 14.3198 36.335C15.1558 37.035 15.8758 37.647 15.9198 37.695C16.4198 38.243 17.8878 39.295 18.0558 39.247C18.2238 39.199 19.9998 37.791 25.7598 33.135L32.6318 27.619L37.0998 24.019L32.1518 23.979C26.2158 23.931 26.7918 24.083 27.0478 22.631C28.2478 15.799 34.8758 12.035 43.6598 13.207C51.4718 14.247 56.1518 19.815 56.3598 28.315C56.6158 38.543 51.6358 44.995 42.3198 46.519C40.6078 46.799 39.3838 46.819 24.7798 46.819C11.7598 46.819 9.04782 46.855 8.89982 47.035C8.75182 47.215 8.72782 53.895 8.75982 72.195L8.79982 97.139H27.0398L27.0798 78.219L27.1198 59.299H27.9598C31.9398 59.327 36.0198 62.447 40.7198 69.055C41.6278 70.335 48.7438 81.695 56.3478 94.015L58.2718 97.135L68.3758 97.175C75.2198 97.203 78.4798 97.175 78.4798 97.055C78.4798 96.795 62.2238 70.819 59.5718 66.843C56.7718 62.623 54.8038 60.015 53.1358 58.255C51.8878 56.939 51.7558 56.735 52.1478 56.735C52.6318 56.735 56.1798 55.431 57.7838 54.663C69.9688 48.847 76.0998 37.499 74.4088 23.919C72.5168 8.719 61.1528 0.447 41.6088 0.027C40.0088 -0.009 38.4408 -0.009 38.0888 0.027" />
</svg>
