<svg width="71" height="71" viewBox="0 0 71 71" fill="none" xmlns="http://www.w3.org/2000/svg">
<g clip-path="url(#clip0_7911_244)">
<path fill-rule="evenodd" clip-rule="evenodd" d="M70.53 51.02L64.35 48.59C64.07 47.06 63.68 45.56 63.16 44.1L67.29 38.91C67.4753 38.6761 67.5867 38.3923 67.6098 38.0948C67.633 37.7974 67.5669 37.4997 67.42 37.24L65.94 34.66C65.64 34.13 65.04 33.84 64.43 33.93L57.88 34.93C56.88 33.75 55.79 32.65 54.61 31.65L55.61 25.07C55.7 24.46 55.41 23.86 54.88 23.56L52.32 22.08C52.0621 21.9291 51.7645 21.8597 51.4664 21.8811C51.1683 21.9026 50.8837 22.0137 50.65 22.2L45.48 26.37C44.02 25.84 42.53 25.44 41.01 25.15L38.59 18.95C38.37 18.38 37.82 18 37.21 18H34.26C33.65 18 33.1 18.38 32.88 18.95L30.46 25.15C28.94 25.43 27.44 25.84 25.99 26.37L20.83 22.22C20.5961 22.0347 20.3123 21.9233 20.0148 21.9002C19.7174 21.877 19.4197 21.9431 19.16 22.09L16.58 23.57C16.05 23.88 15.76 24.48 15.85 25.08L16.85 31.66C15.68 32.67 14.58 33.76 13.58 34.94L7.04 33.94C6.44 33.84 5.84 34.13 5.53 34.66L4.04 37.24C3.89311 37.4997 3.82702 37.7974 3.85018 38.0948C3.87334 38.3923 3.98469 38.6761 4.17 38.91L8.3 44.1C7.78 45.56 7.39 47.06 7.11 48.59L0.940001 51.02C0.380001 51.24 0.01 51.79 0 52.39V53.87H19.05C19.05 47.89 22.23 42.36 27.39 39.37C29.924 37.9011 32.801 37.1275 35.73 37.1275C38.659 37.1275 41.536 37.9011 44.07 39.37C49.23 42.36 52.41 47.89 52.41 53.87H71.46V52.39C71.46 51.78 71.09 51.23 70.52 51L70.53 51.02Z" fill="#0D51FF"/>
</g>
<defs>
<clipPath id="clip0_7911_244">
<rect width="71" height="71" fill="white"/>
</clipPath>
</defs>
</svg>
