<svg width="46" height="48" viewBox="0 0 46 48" fill="none" xmlns="http://www.w3.org/2000/svg">
<path d="M43.639 18.824C40.245 14.598 35.525 10.513 29.316 6.817L29.296 6.797C23.068 3.182 17.196 1.08 11.902 0.215003C8.609 -0.334997 7.023 0.292002 6.309 0.726002C5.596 1.138 4.266 2.22 3.075 5.383C1.171 10.473 0.059 16.683 0 23.973V23.993C0.039 31.282 1.171 37.513 3.075 42.601C4.265 45.786 5.595 46.847 6.309 47.278C7.023 47.689 8.609 48.338 11.902 47.788C17.199 46.924 23.049 44.803 29.297 41.187L29.317 41.167C35.525 37.472 40.245 33.387 43.639 29.16C45.74 26.528 46 24.818 46 23.992C46 23.166 45.76 21.459 43.639 18.824Z" fill="#FF6900"/>
</svg>
