<svg width="207" height="207" viewBox="0 0 207 207" fill="none" xmlns="http://www.w3.org/2000/svg">
<path opacity="0.25" d="M160.941 84.6222L85.7057 159.858L123.606 197.758L198.842 122.523L160.941 84.6222Z" fill="#59C1A7"/>
<path opacity="0.25" d="M123.145 8.80574L85.244 46.7063L160.479 121.942L198.38 84.0412L123.145 8.80574Z" fill="#36C3F2"/>
<path opacity="0.15" d="M46.7431 84.7049L8.84259 122.605L84.078 197.841L121.979 159.94L46.7431 84.7049Z" fill="#EF3D55"/>
<path opacity="0.15" d="M85.8628 7.00919L10.6273 82.2446L48.5279 120.145L123.763 44.9098L85.8628 7.00919Z" fill="#6A266D"/>
<path d="M103.7 54.2C118.612 54.2 130.7 42.1116 130.7 27.2C130.7 12.2883 118.612 0.199951 103.7 0.199951C88.7883 0.199951 76.7 12.2883 76.7 27.2C76.7 42.1116 88.7883 54.2 103.7 54.2Z" fill="#6A266D"/>
<path d="M179.9 130.7C194.812 130.7 206.9 118.612 206.9 103.7C206.9 88.7883 194.812 76.7 179.9 76.7C164.988 76.7 152.9 88.7883 152.9 103.7C152.9 118.612 164.988 130.7 179.9 130.7Z" fill="#36C3F2"/>
<path d="M103.7 206.9C118.612 206.9 130.7 194.812 130.7 179.9C130.7 164.988 118.612 152.9 103.7 152.9C88.7883 152.9 76.7 164.988 76.7 179.9C76.7 194.812 88.7883 206.9 103.7 206.9Z" fill="#59C1A7"/>
<path d="M27.5 130.4C42.4117 130.4 54.5 118.312 54.5 103.4C54.5 88.4882 42.4117 76.3999 27.5 76.3999C12.5883 76.3999 0.5 88.4882 0.5 103.4C0.5 118.312 12.5883 130.4 27.5 130.4Z" fill="#EF3D55"/>
</svg>
