<svg width="392" height="386" fill="none" xmlns="http://www.w3.org/2000/svg"><path d="M364 285.7c-60.7-29.3-70.3-74.6-70.8-78-.5-4-1-7.3 3.4-11.4 4.3-4 23.5-15.9 28.9-19.6 8.8-6.2 12.7-12.3 9.8-19.9-2-5.2-6.9-7.2-12-7.2-1.6 0-3.2.2-4.8.6-9.7 2-19 7-24.5 8.2-.7.2-1.3.3-2 .3-3 0-4-1.3-3.7-4.8.6-10.6 2-31.2.4-50.5a80.1 80.1 0 0 0-21-51.3c-4.9-5.7-27.7-29.9-71.7-29.9S129.2 46.4 124.3 52a79.9 79.9 0 0 0-21 51.3c-1.6 19.3-.1 40 .5 50.5.2 3.4-.8 4.8-3.7 4.8-.7 0-1.4 0-2-.3-5.4-1.3-14.8-6.1-24.5-8.2-1.6-.4-3.2-.5-4.8-.5-5.2 0-10 2-12 7.2-2.9 7.5 1 13.7 9.8 19.8 5.3 3.7 24.5 15.6 28.9 19.6 4.5 4.2 3.9 7.4 3.4 11.4-.5 3.5-10.1 48.8-70.7 78-3.6 1.8-9.6 5.4 1 11.3C46 306 57.1 305 65.7 310.7c7.4 4.7 3 15 8.4 18.6 6.5 4.5 25.9-.3 51 8 21 6.9 33.7 26.4 71 26.4 37.2 0 50.3-19.6 71-26.4 25-8.3 44.4-3.5 51-8 5.3-3.7 1-13.9 8.3-18.6 8.6-5.6 19.8-4.6 36.5-13.8 10.6-5.8 4.6-9.5 1-11.2Z" fill="#fff"/><path d="M390.3 282.3a27.2 27.2 0 0 0-13.8-14.7l-3-1.6-5.4-2.7c-18.3-9.7-32.7-22-42.7-36.6a83 83 0 0 1-7.3-13c-.8-2.4-.8-3.8-.2-5 .6-1 1.4-1.9 2.4-2.5a1073.6 1073.6 0 0 1 17.7-11.7 49.5 49.5 0 0 0 16-17.1 34.2 34.2 0 0 0 1.8-28.4 33.6 33.6 0 0 0-32.5-21.3 44.7 44.7 0 0 0-12 1.5c.2-9 0-18.4-.8-27.8A105 105 0 0 0 257.4 16 122 122 0 0 0 196 .3c-22.5 0-43 5.3-61.3 15.7a104.6 104.6 0 0 0-53.2 85.4c-.8 9.4-1 19-.8 27.9a44.7 44.7 0 0 0-12-1.6A33.5 33.5 0 0 0 34 163.4c.3 5 1.6 9.7 3.9 14A49.6 49.6 0 0 0 54 194.6l9.1 6 8.3 5.4c1 .7 2 1.6 2.6 2.7.7 1.3.7 2.7-.2 5.3-2 4.5-4.5 8.7-7.3 12.8a116.5 116.5 0 0 1-41.4 36c-9.5 5-19.3 8.3-23.4 19.5-3.1 8.5-1 18.2 6.9 26.3 2.9 3 6.2 5.6 10 7.6 7.7 4.2 15.9 7.5 24.4 9.8 1.8.4 3.4 1.2 5 2.2 2.9 2.5 2.4 6.3 6.3 12 2 2.8 4.4 5.3 7.2 7.3 8.1 5.6 17.2 6 26.8 6.3 8.7.3 18.5.7 29.8 4.4 4.7 1.5 9.5 4.5 15.1 8 13.5 8.3 32 19.6 62.8 19.6 30.8 0 49.4-11.4 63-19.7a77.9 77.9 0 0 1 14.9-7.9c11.2-3.7 21-4 29.8-4.4 9.6-.4 18.7-.7 26.8-6.3 3.3-2.3 6.2-5.4 8.2-9 2.8-4.7 2.7-8 5.3-10.3 1.4-1 3-1.7 4.6-2.1 8.7-2.3 17-5.6 24.8-9.9A39 39 0 0 0 384 308l.1-.1c7.5-8 9.4-17.4 6.3-25.6ZM362.9 297c-16.8 9.2-27.9 8.3-36.5 13.8-7.4 4.8-3 15-8.4 18.6-6.5 4.6-26-.3-51 8-20.6 6.8-33.8 26.5-71 26.5-37.1 0-50-19.6-71-26.6-25-8.2-44.4-3.4-51-8-5.3-3.6-1-13.8-8.3-18.5-8.7-5.6-19.8-4.6-36.5-13.8-10.7-5.9-4.6-9.5-1.1-11.2 60.6-29.4 70.3-74.7 70.7-78 .5-4.1 1.1-7.3-3.4-11.5-4.3-4-23.5-15.8-28.9-19.6-8.8-6.1-12.6-12.3-9.8-19.8 2-5.3 6.9-7.2 12-7.2 1.6 0 3.2.2 4.8.5 9.7 2.1 19.1 7 24.5 8.3l2 .2c3 0 4-1.4 3.8-4.7-.7-10.6-2.2-31.3-.5-50.6a80 80 0 0 1 21-51.3A93.7 93.7 0 0 1 196 22.3c43.8 0 66.8 24.1 71.7 29.7a80 80 0 0 1 21 51.3c1.7 19.3.2 40-.5 50.5-.2 3.5.9 4.8 3.8 4.8.6 0 1.3 0 2-.3 5.4-1.3 14.8-6.1 24.5-8.2 1.5-.4 3.2-.5 4.8-.5 5.1 0 10 2 12 7.2 2.8 7.5-1 13.7-9.9 19.8-5.3 3.7-24.5 15.6-28.8 19.6-4.5 4.2-4 7.4-3.4 11.4.4 3.5 10 48.8 70.7 78 3.6 1.8 9.6 5.5-1 11.4Z" fill="#000"/></svg>