<svg width="96" height="96" viewBox="0 0 96 96" fill="none" xmlns="http://www.w3.org/2000/svg">
<path d="M80 0H16C7.16344 0 0 7.16345 0 16V80C0 88.8366 7.16345 96 16 96H80C88.8366 96 96 88.8366 96 80V16C96 7.16344 88.8366 0 80 0Z" fill="#7856FF"/>
<path d="M26.0015 58C31.5251 58 36.003 53.5228 36.003 48C36.003 42.4771 31.5251 38 26.0015 38C20.4778 38 16 42.4771 16 48C16 53.5228 20.4778 58 26.0015 58Z" fill="white"/>
<path d="M55.0017 55C58.8687 55 62.0035 51.866 62.0035 48C62.0035 44.134 58.8687 41 55.0017 41C51.1348 41 48 44.134 48 48C48 51.866 51.1348 55 55.0017 55Z" fill="white"/>
<path d="M77 51C78.6569 51 80 49.6569 80 48C80 46.3431 78.6569 45 77 45C75.3431 45 74 46.3431 74 48C74 49.6569 75.3431 51 77 51Z" fill="white"/>
</svg>
