<svg width="100" height="100" viewBox="0 0 100 100" fill="none" xmlns="http://www.w3.org/2000/svg">
<path d="M76.5225 68.115C75.0213 68.5575 73.825 68.71 72.26 68.71C59.42 68.71 40.56 23.84 40.56 8.90625C40.56 3.405 41.8662 1.57125 43.7025 0C27.985 1.8325 9.1225 7.5975 3.095 14.9325C1.78625 16.7675 1 19.6488 1 23.315C1 46.6325 25.8875 99.5487 43.4413 99.5487C51.5613 99.5487 65.2575 86.1887 76.5225 68.115Z" fill="#FF8700"/>
<path d="M67.3268 0C83.5693 0 99.8143 2.62001 99.8143 11.7888C99.8143 30.39 88.0256 52.92 81.9993 52.92C71.2593 52.92 57.8981 23.0562 57.8981 8.1225C57.8981 1.31125 60.5181 0 67.3268 0Z" fill="#FF8700"/>
</svg>
