<svg width="103" height="104" viewBox="0 0 103 104" fill="none" xmlns="http://www.w3.org/2000/svg">
<g clip-path="url(#clip0_9_421)">
<path d="M51.84 -1C23.68 -1 -0.0300293 21.83 -0.0300293 50V102.81L51.83 102.76C79.99 102.76 102.83 79.05 102.83 50.89C102.83 22.73 79.97 -1 51.84 -1Z" fill="black"/>
<path d="M52.37 19.7401C41.23 19.7466 30.92 25.6131 25.22 35.1801C19.52 44.7471 19.278 56.6101 24.5796 66.4101L18.8596 84.8101L39.3996 80.1701C51.1596 85.4691 64.9596 83.0891 74.2696 74.1571C83.5776 65.2241 86.5196 51.5271 81.7116 39.5571C76.9006 27.5871 65.3016 19.7371 52.4016 19.7371L52.37 19.7401Z" fill="#FFF9AE"/>
<path d="M77.0901 70.9101C68.1111 82.2401 52.5901 86.0301 39.4001 80.1161L18.8601 84.8161L39.7701 82.3461C53.6301 90.4661 71.3801 86.8931 81.0201 74.0421C90.6601 61.1911 89.1241 43.1521 77.4491 32.1121C86.2141 43.6021 86.0651 59.5821 77.0865 70.9021L77.0901 70.9101Z" fill="#00AEEF"/>
<path d="M75.3201 64.91C67.5731 77.11 52.5401 82.5 38.8001 78L18.8601 84.82L39.4001 80.17C54.0301 86.778 71.2901 81.369 79.5301 67.59C87.7701 53.81 84.3741 36.05 71.6331 26.29C81.5501 36.8 83.0731 52.71 75.3221 64.91H75.3201Z" fill="#00A94F"/>
<path d="M26.4701 67.11C20.7451 53.31 25.4631 37.39 37.7801 28.93C50.1001 20.477 66.6501 21.801 77.4701 32.106C67.4501 18.956 49.0001 15.746 35.1301 24.743C21.2601 33.737 16.6601 51.893 24.5801 66.403L18.8601 84.803L26.4701 67.11Z" fill="#F15D22"/>
<path d="M24.58 66.41C17.477 53.29 20.515 36.99 31.868 27.31C43.218 17.629 59.798 17.2 71.628 26.292C60.278 14.342 41.648 13.112 28.828 23.482C16.008 33.852 13.308 52.322 22.626 65.922L18.866 84.822L24.58 66.41Z" fill="#D0232B"/>
</g>
<defs>
<clipPath id="clip0_9_421">
<rect width="103" height="104" fill="white"/>
</clipPath>
</defs>
</svg>
