<svg width="30" height="26" viewBox="0 0 30 26" fill="none" xmlns="http://www.w3.org/2000/svg">
<path d="M0 4.69V1C0 0.734784 0.10536 0.480429 0.292896 0.292892C0.480433 0.105356 0.734784 0 1 0H28.84C29.1052 0 29.3596 0.105356 29.5471 0.292892C29.7346 0.480429 29.84 0.734784 29.84 1V4.69H0Z" fill="#7A7A7A"/>
<path d="M28.61 25.56H1.24C0.912859 25.56 0.598967 25.4308 0.366707 25.2004C0.134447 24.97 0.00263825 24.6572 0 24.33V4.52002H29.85V24.33C29.85 24.4924 29.8179 24.6532 29.7554 24.803C29.693 24.9529 29.6015 25.089 29.4862 25.2033C29.3709 25.3177 29.2342 25.4081 29.0838 25.4693C28.9334 25.5305 28.7724 25.5613 28.61 25.56Z" fill="#A3A3A3"/>
<path d="M14.75 6.57996H2.11V14.85H14.75V6.57996Z" fill="#0089D6"/>
<path d="M14.75 15.4099H2.11V23.6799H14.75V15.4099Z" fill="#0089D6"/>
<path d="M27.89 15.4099H15.25V23.6799H27.89V15.4099Z" fill="#0089D6"/>
<path d="M27.89 6.57996H15.25V14.85H27.89V6.57996Z" fill="white"/>
<path d="M28.73 0.130005H23.95C22.21 2.34 4.31 24.96 3.88 25.7H28.49C28.6524 25.7 28.8131 25.6679 28.963 25.6054C29.1129 25.543 29.249 25.4515 29.3633 25.3362C29.4776 25.2209 29.568 25.0842 29.6293 24.9338C29.6905 24.7834 29.7213 24.6224 29.72 24.46V1.13C29.72 0.866512 29.616 0.613662 29.4307 0.426411C29.2453 0.239159 28.9935 0.13264 28.73 0.130005Z" fill="url(#paint0_linear_7902_27)"/>
<defs>
<linearGradient id="paint0_linear_7902_27" x1="14.6" y1="29.67" x2="45.56" y2="-33.06" gradientUnits="userSpaceOnUse">
<stop stop-color="white" stop-opacity="0"/>
<stop offset="1"/>
</linearGradient>
</defs>
</svg>
