<svg width="44" height="44" viewBox="0 0 44 44" fill="none" xmlns="http://www.w3.org/2000/svg">
<mask id="mask0_7863_199" style="mask-type:luminance" maskUnits="userSpaceOnUse" x="4" y="6" width="35" height="33">
<path d="M39 6H4V38.9412H39V6Z" fill="white"/>
</mask>
<g mask="url(#mask0_7863_199)">
<path d="M25.9767 21.6471L12.1396 19.1765V37.4317C12.1396 38.2653 12.8074 38.9412 13.6316 38.9412H37.508C38.3321 38.9412 39 38.2653 39 37.4317V30.7059L25.9767 21.6471Z" fill="#185C37"/>
<path d="M25.9767 6H13.6316C12.8074 6 12.1396 6.67591 12.1396 7.50953V14.2353L25.9767 22.4706L33.3024 24.9412L39 22.4706V14.2353L25.9767 6Z" fill="#21A366"/>
<path d="M12.1396 14.2352H25.9767V22.4705H12.1396V14.2352Z" fill="#107C41"/>
<path opacity="0.1" d="M22.0429 12.5881H12.1396V33.1764H22.0429C22.8658 33.1737 23.5323 32.4994 23.5349 31.6668V14.0977C23.5323 13.2651 22.8658 12.5908 22.0429 12.5881Z" fill="black"/>
<path opacity="0.2" d="M21.2291 13.4117H12.1396V34H21.2291C22.0518 33.9973 22.7182 33.323 22.7209 32.4904V14.9213C22.7182 14.0887 22.0518 13.4144 21.2291 13.4117Z" fill="black"/>
<path opacity="0.2" d="M21.2291 13.4117H12.1396V32.3529H21.2291C22.0518 32.3502 22.7182 31.676 22.7209 30.8434V14.9213C22.7182 14.0887 22.0518 13.4144 21.2291 13.4117Z" fill="black"/>
<path opacity="0.2" d="M20.415 13.4117H12.1396V32.3529H20.415C21.2379 32.3502 21.9044 31.676 21.907 30.8434V14.9213C21.9044 14.0887 21.2379 13.4144 20.415 13.4117Z" fill="black"/>
<path d="M5.49203 13.4117H20.415C21.2389 13.4117 21.907 14.0877 21.907 14.9213V30.0199C21.907 30.8535 21.2389 31.5294 20.415 31.5294H5.49203C4.66788 31.5294 4 30.8535 4 30.0199V14.9213C4 14.0877 4.66788 13.4117 5.49203 13.4117Z" fill="url(#paint0_linear_7863_199)"/>
<path d="M8.62079 27.3774L11.7593 22.4568L8.8837 17.5634H11.197L12.7662 20.6928C12.9112 20.9901 13.0104 21.2108 13.0641 21.3565H13.0845C13.1877 21.1194 13.2962 20.889 13.41 20.6656L15.0876 17.565H17.2112L14.2622 22.4296L17.2862 27.3774H15.0266L13.2138 23.9424C13.1286 23.7962 13.0561 23.6429 12.9974 23.4837H12.9705C12.9173 23.6396 12.8469 23.7886 12.7605 23.9284L10.8941 27.3774H8.62079Z" fill="white"/>
<path d="M37.508 6H25.9767V14.2353H39V7.50953C39 6.67591 38.3319 6 37.508 6Z" fill="#33C481"/>
<path d="M25.9767 22.4706H39V30.7059H25.9767V22.4706Z" fill="#107C41"/>
</g>
<defs>
<linearGradient id="paint0_linear_7863_199" x1="7.11088" y1="12.2322" x2="19.0024" y2="32.5884" gradientUnits="userSpaceOnUse">
<stop stop-color="#18884F"/>
<stop offset="0.5" stop-color="#117E43"/>
<stop offset="1" stop-color="#0B6631"/>
</linearGradient>
</defs>
</svg>
